<svg width="70" height="60" viewBox="0 0 70 60" fill="none" xmlns="http://www.w3.org/2000/svg">
<path d="M22.404 27.2634C20.68 26.767 18.9559 26.5151 17.2788 26.5151C14.6891 26.5151 12.5281 27.107 10.8525 27.8317C12.4679 21.9178 16.3485 11.7136 24.0789 10.5645C24.7948 10.458 25.3815 9.94033 25.5768 9.2435L27.2664 3.20041C27.4088 2.68936 27.3244 2.14232 27.0329 1.69882C26.7414 1.25532 26.2729 0.959402 25.7479 0.887443C25.1774 0.809609 24.5958 0.769958 24.0194 0.769958C14.7405 0.769958 5.55111 10.4551 1.67344 24.3226C-0.602796 32.4584 -1.27025 44.6899 4.33663 52.3888C7.47416 56.6968 12.0516 58.9973 17.9419 59.2271C17.9661 59.2279 17.9896 59.2286 18.0138 59.2286C25.2816 59.2286 31.7263 54.3339 33.6868 47.3267C34.858 43.1377 34.3286 38.7445 32.1948 34.9534C30.0837 31.205 26.607 28.4727 22.404 27.2634Z" fill="#F8F9FA"/>
<path d="M67.8984 34.9542C65.7874 31.205 62.3107 28.4727 58.1077 27.2634C56.3837 26.767 54.6596 26.5151 52.9833 26.5151C50.3935 26.5151 48.2318 27.107 46.5562 27.8317C48.1716 21.9178 52.0522 11.7136 59.7833 10.5645C60.4992 10.458 61.0852 9.94033 61.2812 9.2435L62.9708 3.20041C63.1132 2.68936 63.0288 2.14232 62.7373 1.69882C62.4465 1.25532 61.978 0.959402 61.4523 0.887443C60.8825 0.809609 60.301 0.769958 59.7238 0.769958C50.4449 0.769958 41.2555 10.4551 37.3771 24.3226C35.1016 32.4584 34.4342 44.6899 40.0418 52.3903C43.1786 56.6976 47.7567 58.9988 53.6463 59.2279C53.6705 59.2286 53.694 59.2293 53.719 59.2293C60.9861 59.2293 67.4315 54.3347 69.3919 47.3275C70.5616 43.1384 70.0315 38.7445 67.8984 34.9542Z" fill="#F8F9FA"/>
</svg>
