<svg width="70" height="70" viewBox="0 0 70 70" fill="none" xmlns="http://www.w3.org/2000/svg">
<circle cx="35" cy="35" r="35" fill="url(#paint0_linear)"/>
<g clip-path="url(#clip0)">
<path d="M34.5 29.5703C31.8615 29.5703 29.7148 27.4237 29.7148 24.7852C29.7148 22.1466 31.8615 20 34.5 20C37.1385 20 39.2852 22.1466 39.2852 24.7852C39.2852 27.4237 37.1385 29.5703 34.5 29.5703Z" fill="white"/>
<path d="M38.7486 30.1365C37.5812 31.0653 36.1044 31.6211 34.5001 31.6211C32.8957 31.6211 31.4189 31.0653 30.2515 30.1365C28.0797 31.537 26.6387 33.9773 26.6387 36.748V38.7988C26.6387 39.3651 27.0978 39.8242 27.6641 39.8242H41.3359C41.9022 39.8242 42.3613 39.3651 42.3613 38.7988V36.748C42.3613 33.9773 40.9204 31.537 38.7486 30.1365Z" fill="white"/>
<path d="M51.9499 43.596C51.8293 43.2248 51.5084 42.9542 51.1221 42.8981L48.1129 42.4609L46.7672 39.7341C46.5945 39.3841 46.238 39.1625 45.8477 39.1625C45.4575 39.1625 45.101 39.3842 44.9282 39.7341L43.5825 42.4609L40.5733 42.8981C40.1871 42.9542 39.8661 43.2248 39.7455 43.596C39.6249 43.9672 39.7255 44.3747 40.005 44.6471L42.1824 46.7696L41.6684 49.7666C41.6024 50.1512 41.7605 50.5401 42.0763 50.7695C42.3921 50.9989 42.8106 51.0292 43.1561 50.8475L45.8477 49.4326L48.5392 50.8475C48.6892 50.9264 48.8531 50.9653 49.0163 50.9653C49.2289 50.9653 49.4405 50.8993 49.6191 50.7695C49.9349 50.5401 50.093 50.1513 50.027 49.7666L49.5129 46.7696L51.6904 44.6471C51.9699 44.3747 52.0705 43.9672 51.9499 43.596Z" fill="white"/>
<path d="M26.8177 46.7696L28.9951 44.6471C29.2746 44.3747 29.3752 43.9672 29.2546 43.596C29.134 43.2249 28.8131 42.9543 28.4268 42.8982L25.4176 42.4609L24.0719 39.7342C23.8992 39.3842 23.5427 39.1626 23.1524 39.1626C22.7621 39.1626 22.4056 39.3842 22.2329 39.7342L20.8872 42.4609L17.878 42.8982C17.4918 42.9543 17.1708 43.2249 17.0502 43.596C16.9296 43.9672 17.0302 44.3747 17.3097 44.6471L19.4871 46.7696L18.973 49.7666C18.9071 50.1513 19.0652 50.5401 19.3809 50.7695C19.6968 50.999 20.1153 51.0292 20.4608 50.8476L23.1524 49.4326L25.8439 50.8475C25.9939 50.9264 26.1578 50.9653 26.321 50.9653C26.5336 50.9653 26.7452 50.8993 26.9238 50.7695C27.2395 50.5401 27.3977 50.1513 27.3317 49.7666L26.8177 46.7696Z" fill="white"/>
<path d="M39.7745 46.9328L36.7653 46.4956L35.4196 43.7688C35.2468 43.4188 34.8903 43.1972 34.5001 43.1972C34.1098 43.1972 33.7533 43.4188 33.5806 43.7688L32.2348 46.4956L29.2257 46.9328C28.8394 46.9889 28.5185 47.2595 28.3979 47.6307C28.2772 48.0019 28.3779 48.4093 28.6573 48.6818L30.8348 50.8043L30.3207 53.8013C30.2547 54.1859 30.4129 54.5748 30.7286 54.8042C31.0444 55.0336 31.4631 55.0638 31.8085 54.8822L34.5001 53.4673L37.1916 54.8822C37.3416 54.9611 37.5054 55 37.6687 55C37.8813 55 38.0928 54.934 38.2715 54.8042C38.5872 54.5748 38.7454 54.186 38.6794 53.8013L38.1653 50.8043L40.3428 48.6818C40.6222 48.4093 40.7228 48.0019 40.6022 47.6307C40.4817 47.2595 40.1607 46.9889 39.7745 46.9328Z" fill="white"/>
</g>
<defs>
<linearGradient id="paint0_linear" x1="35" y1="0" x2="35" y2="70" gradientUnits="userSpaceOnUse">
<stop stop-color="#6730E3"/>
<stop offset="1" stop-color="#DA23F8"/>
</linearGradient>
<clipPath id="clip0">
<rect x="17" y="20" width="35" height="35" fill="white"/>
</clipPath>
</defs>
</svg>
