<svg width="35" height="35" viewBox="0 0 35 35" fill="none" xmlns="http://www.w3.org/2000/svg">
<g clip-path="url(#clip0)">
<path d="M13.2769 28.3608H21.7248V28.9643H13.2769V28.3608Z" fill="white"/>
<path d="M21.51 31.9812H13.4531C13.5147 32.188 13.5922 32.3899 13.6853 32.5846H21.2723C21.366 32.3896 21.4452 32.1877 21.51 31.9812Z" fill="white"/>
<path d="M17.7813 34.9892C18.7728 34.9212 19.7059 34.4957 20.4074 33.7915H14.5488C14.5706 33.8127 14.5892 33.8357 14.6092 33.856C15.461 34.6616 16.6119 35.0729 17.7813 34.9892Z" fill="white"/>
<path d="M21.7248 30.1711H13.2769V30.7746H21.7168C21.7192 30.7198 21.7248 30.1711 21.7248 30.1711Z" fill="white"/>
<path d="M21.7247 26.6947C21.7303 25.37 22.3532 24.1237 23.4095 23.3241C26.5114 20.9251 27.8544 16.8877 26.8069 13.1086C25.7595 9.32928 22.5303 6.55908 18.6357 6.09886C18.255 6.05584 17.8723 6.03404 17.4893 6.03374C15.1204 6.02608 12.8334 6.89939 11.0729 8.48426C8.93384 10.3926 7.75352 13.1531 7.85134 16.0179C7.94916 18.883 9.3151 21.5565 11.5794 23.3146C12.6404 24.1166 13.2677 25.3668 13.2768 26.6968V27.1541H21.7247V26.6947ZM18.4318 8.50105C18.4088 8.50105 18.3859 8.49987 18.3629 8.49751C18.0768 8.46452 17.7889 8.44802 17.5008 8.44802C17.1675 8.44802 16.8973 8.17783 16.8973 7.84459C16.8973 7.51136 17.1675 7.24117 17.5008 7.24117C17.8343 7.24235 18.1678 7.26268 18.4993 7.30157C18.8157 7.33899 19.0485 7.61625 19.0305 7.93446C19.0129 8.25267 18.7503 8.50223 18.4318 8.504V8.50105ZM19.9439 8.20435C20.0718 7.89645 20.4248 7.7506 20.7327 7.87848C23.5409 9.037 25.5088 11.6163 25.8847 14.6307C25.9242 14.9616 25.6882 15.2621 25.3573 15.3016C25.0261 15.3414 24.7259 15.1051 24.6861 14.7742C24.3635 12.1917 22.6764 9.9822 20.2698 8.99104C19.9642 8.86316 19.819 8.51313 19.9439 8.20671V8.20435Z" fill="white"/>
<path d="M17.5009 3.62053C17.8341 3.62053 18.1043 3.35034 18.1043 3.01711V0.603421C18.1043 0.270184 17.8341 0 17.5009 0C17.1676 0 16.8975 0.270184 16.8975 0.603421V3.01711C16.8975 3.35034 17.1676 3.62053 17.5009 3.62053Z" fill="white"/>
<path d="M10.3406 5.09695C10.4476 5.28522 10.6474 5.4019 10.8639 5.4022C11.0805 5.40278 11.2805 5.28729 11.3884 5.09931C11.4962 4.91162 11.4953 4.68033 11.3857 4.49353L10.1789 2.40336C10.0112 2.11726 9.64382 2.02003 9.35655 2.18591C9.06957 2.3518 8.96998 2.71862 9.1338 3.00678L10.3406 5.09695Z" fill="white"/>
<path d="M6.30544 9.13214L4.21527 7.92529C3.92682 7.76147 3.56029 7.86106 3.39441 8.14834C3.22853 8.43561 3.32576 8.80273 3.61185 8.97067L5.70202 10.1775C5.99048 10.3413 6.35701 10.2418 6.52289 9.95448C6.68877 9.6672 6.59154 9.30008 6.30544 9.13214Z" fill="white"/>
<path d="M4.82902 16.2924C4.82902 15.9592 4.55883 15.689 4.2256 15.689H1.81192C1.47868 15.689 1.2085 15.9592 1.2085 16.2924C1.2085 16.6256 1.47868 16.8958 1.81192 16.8958H4.2256C4.55883 16.8958 4.82902 16.6256 4.82902 16.2924Z" fill="white"/>
<path d="M5.70206 22.4072L3.61189 23.6141C3.42361 23.7213 3.30723 23.9208 3.30664 24.1373C3.30605 24.3539 3.42185 24.5543 3.60953 24.6621C3.79722 24.7699 4.02851 24.7688 4.21531 24.6595L6.30548 23.4526C6.49376 23.3454 6.61014 23.1459 6.61073 22.9293C6.61132 22.7128 6.49553 22.5124 6.30784 22.4046C6.12016 22.2967 5.88886 22.2979 5.70206 22.4072Z" fill="white"/>
<path d="M31.3897 23.6141L29.2995 22.4072C29.1127 22.2979 28.8817 22.2967 28.6938 22.4046C28.5061 22.5124 28.3906 22.7128 28.3909 22.9293C28.3915 23.1459 28.5078 23.3454 28.6961 23.4526L30.7863 24.6595C31.0747 24.8233 31.4413 24.7237 31.6071 24.4364C31.773 24.1491 31.6761 23.782 31.3897 23.6141Z" fill="white"/>
<path d="M33.1897 15.689H30.776C30.4428 15.689 30.1726 15.9592 30.1726 16.2924C30.1726 16.6256 30.4428 16.8958 30.776 16.8958H33.1897C33.523 16.8958 33.7931 16.6256 33.7931 16.2924C33.7931 15.9592 33.523 15.689 33.1897 15.689Z" fill="white"/>
<path d="M28.9982 10.2583C29.1042 10.2583 29.2083 10.2303 29.2999 10.1775L31.3903 8.97068C31.6764 8.80273 31.7734 8.43561 31.6075 8.14834C31.4416 7.86106 31.0751 7.76147 30.7869 7.92529L28.6965 9.13214C28.4602 9.26885 28.3447 9.54729 28.4154 9.81099C28.4861 10.0747 28.7251 10.2583 28.9982 10.2583Z" fill="white"/>
<path d="M23.8368 5.31792C24.1252 5.48469 24.4944 5.38569 24.6609 5.09695L25.8677 3.00678C26.0318 2.71862 25.9322 2.35179 25.645 2.18591C25.3577 2.02003 24.9903 2.11726 24.8226 2.40336L23.6158 4.49352C23.4493 4.78227 23.548 5.15116 23.8368 5.31792Z" fill="white"/>
</g>
<defs>
<clipPath id="clip0">
<rect width="35" height="35" rx="10" fill="white"/>
</clipPath>
</defs>
</svg>
