<svg width="35" height="35" viewBox="0 0 35 35" fill="none" xmlns="http://www.w3.org/2000/svg">
<g clip-path="url(#clip0)">
<path d="M3.91829 11.3584H0.871362C0.403713 11.3584 0.0246582 11.7375 0.0246582 12.2051C0.0246582 12.6728 0.403713 13.0518 0.871362 13.0518H3.91823C4.38594 13.0518 4.765 12.6728 4.765 12.2051C4.765 11.7375 4.38594 11.3584 3.91829 11.3584Z" fill="#2967D8"/>
<path d="M34.1287 11.3584H31.0818C30.6142 11.3584 30.2351 11.7375 30.2351 12.2051C30.2351 12.6728 30.6142 13.0518 31.0818 13.0518H34.1287C34.5963 13.0518 34.9754 12.6728 34.9754 12.2051C34.9754 11.7375 34.5963 11.3584 34.1287 11.3584Z" fill="#2967D8"/>
<path d="M7.40655 22.2983C7.07589 21.9676 6.53982 21.9676 6.20909 22.2983L3.99287 24.5145C3.66221 24.8452 3.66221 25.3812 3.99287 25.712C4.15823 25.8773 4.37493 25.96 4.59156 25.96C4.80819 25.96 5.02496 25.8773 5.19026 25.712L7.40655 23.4957C7.73721 23.1652 7.73721 22.629 7.40655 22.2983Z" fill="#2967D8"/>
<path d="M29.4569 0.247992C29.1262 -0.0826641 28.5903 -0.0826641 28.2595 0.247992L26.1039 2.40351C25.7733 2.73417 25.7733 3.27031 26.1039 3.6009C26.2694 3.76613 26.4861 3.84884 26.7027 3.84884C26.9195 3.84884 27.136 3.76613 27.3014 3.60083L29.4569 1.44538C29.7875 1.11473 29.7875 0.57858 29.4569 0.247992Z" fill="#2967D8"/>
<path d="M8.89473 2.40242L6.74037 0.248134C6.40972 -0.0823857 5.87357 -0.0823857 5.54291 0.248134C5.21226 0.57879 5.21226 1.11494 5.54291 1.44559L7.69727 3.59995C7.86264 3.76524 8.07934 3.84796 8.29597 3.84796C8.5126 3.84796 8.72937 3.76524 8.89467 3.59995C9.22532 3.26929 9.22532 2.73315 8.89473 2.40242Z" fill="#2967D8"/>
<path d="M31.007 24.5148L28.799 22.3066C28.4682 21.9759 27.9323 21.9759 27.6015 22.3066C27.2709 22.6373 27.2709 23.1735 27.6015 23.504L29.8096 25.7121C29.975 25.8775 30.1917 25.9601 30.4083 25.9601C30.6251 25.9601 30.8416 25.8774 31.007 25.7121C31.3377 25.3815 31.3377 24.8454 31.007 24.5148Z" fill="#2967D8"/>
<path d="M17.5 2.29932C11.6451 2.29932 6.88184 7.28172 6.88184 13.406C6.88184 16.2532 7.9017 19.3179 9.68001 21.8143C11.0458 23.7314 11.7676 25.8645 11.7676 27.983V33.3066C11.7676 34.2403 12.5273 35 13.461 35H21.539C22.4727 35 23.2324 34.2403 23.2324 33.3066V27.983C23.2324 25.8646 23.9542 23.7314 25.3198 21.8143C27.0981 19.318 28.1181 16.2532 28.1181 13.406C28.1179 7.28172 23.3547 2.29932 17.5 2.29932ZM21.5389 33.3067H13.4608V32.1992H17.4999C17.9675 32.1992 18.3467 31.8201 18.3467 31.3525C18.3467 30.8848 17.9675 30.5058 17.4999 30.5058H13.4608V29.3984H21.5391L21.54 33.3066C21.5399 33.3067 21.5396 33.3067 21.5389 33.3067ZM16.3125 17.5097L15.1802 15.0907H19.8195L18.6874 17.5097C18.6428 17.6049 18.6163 17.7077 18.6093 17.8125L17.9527 27.705H17.0471L16.3905 17.8125C16.3836 17.7077 16.357 17.6049 16.3125 17.5097ZM23.9405 20.8318C22.4282 22.9548 21.6021 25.3253 21.5423 27.705H19.6499L20.2884 18.0834L21.9175 14.6028C22.0403 14.3406 22.0205 14.0338 21.8651 13.7894C21.7097 13.5452 21.4402 13.3972 21.1506 13.3972H13.8491C13.5595 13.3972 13.2901 13.5452 13.1346 13.7894C12.9793 14.0337 12.9594 14.3405 13.0822 14.6028L14.7114 18.0833L15.3499 27.7049H13.4573C13.3975 25.3251 12.5715 22.9547 11.0591 20.8317C9.50364 18.6482 8.57504 15.8721 8.57504 13.4059C8.57504 8.21538 12.5787 3.99266 17.4998 3.99266C22.4208 3.99266 26.4245 8.21538 26.4245 13.4059C26.4246 15.8723 25.496 18.6483 23.9405 20.8318Z" fill="#1A2C79"/>
</g>
<defs>
<clipPath id="clip0">
<rect width="35" height="35" rx="10" fill="white"/>
</clipPath>
</defs>
</svg>
