<svg width="70" height="70" viewBox="0 0 70 70" fill="none" xmlns="http://www.w3.org/2000/svg">
<circle cx="35" cy="35" r="35" fill="url(#paint0_linear)"/>
<g clip-path="url(#clip0)">
<path d="M36.1255 51.9792C38.802 51.599 41.1483 48.8055 42.6247 44.6801C40.4904 44.2021 38.3124 43.9456 36.1255 43.915V51.9792Z" fill="white"/>
<path d="M40.4015 51.3231C40.5597 51.2773 40.7173 51.2311 40.8736 51.1804C41.0056 51.138 41.1357 51.0922 41.2658 51.0467C41.4197 50.9935 41.5731 50.9388 41.7258 50.8808C41.8559 50.8313 41.9848 50.7788 42.114 50.7263C42.263 50.6637 42.4118 50.6014 42.559 50.5387C42.6876 50.4822 42.8152 50.423 42.9429 50.3634C43.0874 50.2953 43.2312 50.226 43.3739 50.1539C43.4991 50.0901 43.624 50.025 43.7492 49.9581C43.8894 49.883 44.0287 49.8063 44.1671 49.7275C44.2923 49.6567 44.4129 49.5855 44.5348 49.5122C44.6704 49.4288 44.8054 49.3454 44.9395 49.2621C45.0595 49.1857 45.1792 49.1081 45.2974 49.0281C45.4294 48.9392 45.5595 48.8467 45.689 48.7541C45.8054 48.6708 45.9211 48.5877 46.0348 48.504C46.16 48.4075 46.2883 48.3076 46.4138 48.2074C46.5253 48.1185 46.6364 48.0303 46.7461 47.9389C46.871 47.8351 46.9907 47.7276 47.112 47.6201C47.2183 47.5257 47.3252 47.4322 47.429 47.3354C47.5484 47.2239 47.6648 47.1085 47.7812 46.994C47.882 46.8944 47.984 46.7963 48.0826 46.6943C48.101 46.6754 48.1184 46.6549 48.1373 46.6354C46.773 45.9308 45.3359 45.3776 43.8513 44.9861C43.0791 47.4484 41.705 49.6799 39.8535 51.4776C39.9042 51.4645 39.9549 51.4538 40.0056 51.4407C40.1394 51.4031 40.2707 51.3619 40.4015 51.3231Z" fill="white"/>
<path d="M53.0001 35.1399H45.5C45.4716 38.0683 45.0467 40.9793 44.2371 43.7939C45.8882 44.2349 47.4816 44.869 48.9843 45.6829C51.4516 42.7093 52.8639 39.0017 53.0001 35.1399Z" fill="white"/>
<path d="M36.1255 33.8888H44.2489C44.2172 31.0639 43.8027 28.2564 43.0175 25.5427C40.7555 26.0586 38.4452 26.3341 36.1255 26.3646V33.8888Z" fill="white"/>
<path d="M36.1255 17.0496V25.1137C38.3124 25.0829 40.4904 24.8266 42.6247 24.3486C41.1483 20.2232 38.802 17.4298 36.1255 17.0496Z" fill="white"/>
<path d="M36.1255 42.6641C38.4452 42.6949 40.7555 42.9704 43.0175 43.4863C43.8027 40.7726 44.2172 37.9648 44.2489 35.1399H36.1255V42.6641Z" fill="white"/>
<path d="M48.9843 23.3457C47.4816 24.1597 45.8882 24.7937 44.2371 25.2348C45.0467 28.0493 45.4716 30.9603 45.5 33.8887H53.0001C52.8636 30.0272 51.4513 26.3196 48.9843 23.3457Z" fill="white"/>
<path d="M48.1393 22.3969C48.121 22.3782 48.1035 22.3581 48.0855 22.3388C47.9866 22.2368 47.8839 22.1385 47.7831 22.0392C47.6671 21.9247 47.5513 21.8089 47.4316 21.6977C47.3281 21.6012 47.2209 21.5099 47.1146 21.4137C46.9933 21.3062 46.8721 21.1978 46.7474 21.0939C46.6393 21.0026 46.5285 20.9152 46.4185 20.8276C46.2933 20.7262 46.165 20.6254 46.0361 20.5286C45.9231 20.4434 45.8086 20.3609 45.6934 20.2784C45.5627 20.1843 45.4314 20.0906 45.2982 20.0011C45.1812 19.9223 45.0624 19.8453 44.9436 19.7699C44.8083 19.6828 44.6733 19.5976 44.5355 19.5152C44.4149 19.4428 44.293 19.3713 44.1709 19.302C44.031 19.2219 43.8908 19.1444 43.7494 19.0686C43.6241 19.006 43.4992 18.9379 43.374 18.8753C43.2301 18.8026 43.0851 18.7327 42.9363 18.6639C42.8111 18.6044 42.684 18.5463 42.5551 18.4898C42.407 18.4242 42.2574 18.3649 42.108 18.3023C41.9791 18.2498 41.8508 18.1979 41.7207 18.1484C41.5689 18.0903 41.415 18.036 41.2611 17.9828C41.1309 17.937 41.0008 17.8915 40.8689 17.8488C40.7125 17.7981 40.5561 17.7519 40.3955 17.7055C40.2654 17.6673 40.1346 17.6285 40.003 17.5937C39.9526 17.58 39.9013 17.5693 39.8506 17.5562C41.7021 19.3539 43.0759 21.585 43.8483 24.0477C45.3345 23.6561 46.7737 23.1027 48.1393 22.3969Z" fill="white"/>
<path d="M18 33.8887H25.5001C25.5285 30.9603 25.9533 28.0493 26.7627 25.2348C25.1119 24.794 23.5184 24.16 22.0157 23.3457C19.5485 26.3193 18.1362 30.0272 18 33.8887Z" fill="white"/>
<path d="M34.8747 51.9792V43.915C32.6878 43.9459 30.5098 44.2021 28.3755 44.6801C29.8516 48.8055 32.1982 51.599 34.8747 51.9792Z" fill="white"/>
<path d="M34.8744 35.1399H26.751C26.7827 37.9648 27.1969 40.7726 27.9825 43.4863C30.2444 42.9701 32.5544 42.6946 34.8744 42.6641V35.1399Z" fill="white"/>
<path d="M34.8747 17.0496C32.1982 17.4298 29.8516 20.2232 28.3755 24.3486C30.5098 24.8269 32.6878 25.0832 34.8747 25.1137V17.0496Z" fill="white"/>
<path d="M34.8744 26.3646C32.5547 26.3341 30.2444 26.0586 27.9825 25.5427C27.1969 28.2564 26.7827 31.0639 26.751 33.8888H34.8744V26.3646Z" fill="white"/>
<path d="M31.1447 17.5557C31.094 17.5688 31.0433 17.5795 30.9926 17.5926C30.8601 17.6281 30.7294 17.6675 30.5974 17.7056C30.4404 17.7514 30.2847 17.7976 30.1271 17.8477C29.9942 17.8907 29.8635 17.9365 29.7327 17.982C29.5797 18.0361 29.4264 18.0899 29.2749 18.1473C29.1442 18.1974 29.0153 18.2493 28.8858 18.3024C28.7371 18.365 28.588 18.4277 28.4411 18.49C28.3122 18.5465 28.1848 18.6057 28.0572 18.6653C27.9127 18.7334 27.7689 18.8027 27.6262 18.8748C27.501 18.9386 27.3758 19.004 27.2509 19.0706C27.1107 19.1457 26.9717 19.2227 26.8336 19.3015C26.7084 19.3714 26.5853 19.4432 26.4647 19.5165C26.3288 19.5984 26.1944 19.683 26.0606 19.7666C25.9403 19.8436 25.8208 19.9212 25.7026 20.0012C25.5707 20.0901 25.4406 20.1826 25.3111 20.2752C25.1947 20.3586 25.079 20.4416 24.965 20.5256C24.8371 20.6218 24.7149 20.722 24.586 20.8219C24.4748 20.9108 24.3627 20.999 24.254 21.091C24.1288 21.1942 24.01 21.3011 23.8893 21.408C23.7824 21.5033 23.6746 21.5958 23.5702 21.6945C23.4513 21.8054 23.3356 21.9205 23.2195 22.0347C23.1187 22.1343 23.0161 22.2327 22.9172 22.335C22.8991 22.3539 22.8817 22.3747 22.8628 22.3939C24.2268 23.0989 25.6642 23.652 27.1488 24.0435C27.921 21.5824 29.2942 19.3525 31.1447 17.5557Z" fill="white"/>
<path d="M23.2167 46.9894C23.333 47.104 23.4488 47.2197 23.5682 47.3312C23.672 47.4274 23.7789 47.5187 23.8855 47.615C24.0068 47.7228 24.1281 47.8309 24.2527 47.9347C24.3608 48.0254 24.471 48.1131 24.5816 48.2011C24.7068 48.3025 24.8318 48.4033 24.9643 48.5007C25.077 48.5853 25.1915 48.6671 25.3061 48.7511C25.4368 48.8449 25.5687 48.9387 25.7019 49.0288C25.8189 49.1076 25.9377 49.1845 26.0565 49.2603C26.1918 49.347 26.3268 49.4322 26.4646 49.5147C26.5852 49.5874 26.7071 49.6586 26.8292 49.7282C26.9691 49.8082 27.1093 49.8858 27.2507 49.9612C27.3757 50.0239 27.5009 50.092 27.6261 50.1546C27.77 50.2273 27.915 50.2972 28.0638 50.3662C28.189 50.4252 28.3161 50.4832 28.445 50.54C28.5931 50.6057 28.7424 50.6649 28.8921 50.7276C29.021 50.7801 29.1493 50.832 29.2794 50.8815C29.4312 50.9398 29.5851 50.9942 29.739 51.0473C29.8692 51.0928 29.9993 51.1387 30.1312 51.1811C30.2876 51.2318 30.444 51.2782 30.6046 51.3244C30.7347 51.3625 30.8655 51.4013 30.9968 51.4364C31.0475 51.4502 31.0988 51.4609 31.1495 51.474C29.298 49.676 27.9242 47.4448 27.1518 44.9822C25.6671 45.374 24.2298 45.9272 22.8657 46.6324C22.884 46.651 22.9015 46.6712 22.9198 46.6904C23.0135 46.7918 23.1146 46.8902 23.2167 46.9894Z" fill="white"/>
<path d="M22.0157 45.6829C23.5184 44.869 25.1119 44.2349 26.7627 43.7939C25.9533 40.9793 25.5285 38.0683 25.5001 35.1399H18C18.1365 39.0014 19.5485 42.709 22.0157 45.6829Z" fill="white"/>
</g>
<defs>
<linearGradient id="paint0_linear" x1="35" y1="0" x2="35" y2="70" gradientUnits="userSpaceOnUse">
<stop stop-color="#6730E3"/>
<stop offset="1" stop-color="#DA23F8"/>
</linearGradient>
<clipPath id="clip0">
<rect x="18" y="17" width="35" height="35" fill="white"/>
</clipPath>
</defs>
</svg>
