<svg width="246" height="63" viewBox="0 0 246 63" fill="none" xmlns="http://www.w3.org/2000/svg">
<path d="M190.162 16.3997H176.886C176.105 16.3997 175.324 17.1806 174.933 17.9616L169.467 52.3235C169.467 53.1045 169.857 53.4949 170.638 53.4949H177.667C178.448 53.4949 178.838 53.1045 178.838 52.3235L180.4 42.5616C180.4 41.7806 181.181 40.9997 182.353 40.9997H186.648C195.629 40.9997 200.705 36.7044 201.876 28.114C202.657 24.5997 201.876 21.4759 200.314 19.5235C197.972 17.5711 194.457 16.3997 190.162 16.3997ZM191.724 29.2854C190.943 33.9711 187.429 33.9711 183.914 33.9711H181.572L183.133 24.9901C183.133 24.5997 183.524 24.2092 184.305 24.2092H185.086C187.429 24.2092 189.772 24.2092 190.943 25.7711C191.724 26.1616 191.724 27.333 191.724 29.2854Z" fill="#139AD6"/>
<path d="M94.4953 16.3997H81.2191C80.4381 16.3997 79.6572 17.1806 79.2667 17.9616L73.8 52.3235C73.8 53.1045 74.1905 53.4949 74.9715 53.4949H81.2191C82 53.4949 82.781 52.714 83.1715 51.933L84.7334 42.5616C84.7334 41.7806 85.5143 40.9997 86.6858 40.9997H90.981C99.962 40.9997 105.038 36.7044 106.21 28.114C106.991 24.5997 106.21 21.4759 104.648 19.5235C102.305 17.5711 99.181 16.3997 94.4953 16.3997ZM96.0572 29.2854C95.2762 33.9711 91.762 33.9711 88.2477 33.9711H86.2953L87.8572 24.9901C87.8572 24.5997 88.2477 24.2092 89.0286 24.2092H89.8096C92.1524 24.2092 94.4953 24.2092 95.6667 25.7711C96.0572 26.1616 96.4477 27.333 96.0572 29.2854Z" fill="#263B80"/>
<path d="M134.714 28.8947H128.467C128.076 28.8947 127.295 29.2852 127.295 29.6757L126.905 31.6281L126.514 30.8471C124.952 28.8947 122.219 28.1138 119.095 28.1138C112.067 28.1138 105.819 33.5805 104.648 40.9995C103.867 44.9043 105.038 48.4186 106.991 50.7614C108.943 53.1043 111.676 53.8852 115.191 53.8852C121.048 53.8852 124.171 50.3709 124.171 50.3709L123.781 52.3233C123.781 53.1043 124.171 53.4948 124.952 53.4948H130.81C131.591 53.4948 132.371 52.7138 132.762 51.9329L136.276 30.0662C135.886 29.6757 135.105 28.8947 134.714 28.8947ZM125.733 41.39C124.952 44.9043 122.219 47.6376 118.314 47.6376C116.362 47.6376 114.8 46.8567 114.019 46.0757C113.238 44.9043 112.848 43.3424 112.848 41.39C113.238 37.8757 116.362 35.1424 119.876 35.1424C121.829 35.1424 123 35.9233 124.171 36.7043C125.343 37.8757 125.733 39.8281 125.733 41.39Z" fill="#263B80"/>
<path d="M229.99 28.895H223.743C223.352 28.895 222.571 29.2854 222.571 29.6759L222.181 31.6283L221.79 30.8474C220.229 28.895 217.495 28.114 214.371 28.114C207.343 28.114 201.095 33.5807 199.924 40.9998C199.143 44.9045 200.314 48.4188 202.267 50.7617C204.219 53.1045 206.952 53.8855 210.467 53.8855C216.324 53.8855 219.448 50.3712 219.448 50.3712L219.057 52.3236C219.057 53.1045 219.448 53.495 220.229 53.495H226.086C226.867 53.495 227.648 52.7141 228.038 51.9331L231.552 30.0664C231.162 29.6759 230.771 28.895 229.99 28.895ZM221.01 41.3902C220.229 44.9045 217.495 47.6379 213.59 47.6379C211.638 47.6379 210.076 46.8569 209.295 46.076C208.514 44.9045 208.124 43.3426 208.124 41.3902C208.514 37.8759 211.638 35.1426 215.152 35.1426C217.105 35.1426 218.276 35.9235 219.448 36.7045C221.01 37.8759 221.4 39.8283 221.01 41.3902Z" fill="#139AD6"/>
<path d="M168.686 28.896H162.047C161.267 28.896 160.876 29.2865 160.486 29.6769L151.895 42.9531L147.99 30.4579C147.6 29.6769 147.209 29.2865 146.038 29.2865H139.79C139.009 29.2865 138.619 30.0674 138.619 30.8484L145.647 51.5436L139.009 60.915C138.619 61.696 139.009 62.8674 139.79 62.8674H146.038C146.819 62.8674 147.209 62.4769 147.6 62.0864L169.076 31.2389C170.247 30.0674 169.467 28.896 168.686 28.896Z" fill="#263B80"/>
<path d="M237.41 17.5711L231.943 52.714C231.943 53.4949 232.333 53.8854 233.114 53.8854H238.581C239.362 53.8854 240.143 53.1044 240.533 52.3235L246 17.9616C246 17.1806 245.61 16.7901 244.829 16.7901H238.581C238.19 16.3997 237.8 16.7902 237.41 17.5711Z" fill="#139AD6"/>
<path d="M44.9048 4.68571C42.1714 1.5619 37.0952 0 30.0667 0H10.5429C9.37143 0 8.2 1.17142 7.80952 2.34285L0 53.4952C0 54.6667 0.780952 55.4476 1.5619 55.4476H13.6667L16.7905 36.3143V37.0952C17.181 35.9238 18.3524 34.7524 19.5238 34.7524H25.381C36.7048 34.7524 45.2952 30.0667 48.0286 17.1809C48.0286 16.7905 48.0286 16.4 48.0286 16.0095C47.6381 16.0095 47.6381 16.0095 48.0286 16.0095C48.419 10.9333 47.6381 7.80952 44.9048 4.68571Z" fill="#263B80"/>
<path d="M47.6382 16.0105C47.6382 16.401 47.6382 16.7915 47.6382 17.1819C44.9049 30.4581 36.3144 34.7534 24.9906 34.7534H19.1335C17.962 34.7534 16.7906 35.9248 16.4001 37.0962L12.4954 60.9153C12.4954 61.6962 12.8858 62.4772 14.0573 62.4772H24.2096C25.3811 62.4772 26.5525 61.6962 26.5525 60.5248V60.1343L28.5049 48.0295V47.2486C28.5049 46.0772 29.6763 45.2962 30.8477 45.2962H32.4096C42.1716 45.2962 49.9811 41.3914 51.9335 29.6772C52.7144 24.9915 52.3239 20.6962 49.9811 17.9629C49.5906 17.1819 48.8096 16.401 47.6382 16.0105Z" fill="#139AD6"/>
<path d="M44.9048 14.8382C44.5143 14.8382 44.1239 14.4477 43.7334 14.4477C43.3429 14.4477 42.9524 14.4477 42.562 14.0572C41.0001 13.6667 39.4381 13.6667 37.4858 13.6667H22.2572C21.8667 13.6667 21.4762 13.6667 21.0858 14.0572C20.3048 14.4477 19.9143 15.2286 19.9143 16.0096L16.7905 36.3144V37.0953C17.181 35.9239 18.3524 34.7525 19.5239 34.7525H25.381C36.7048 34.7525 45.2953 30.0668 48.0286 17.181C48.0286 16.7906 48.0286 16.4001 48.4191 16.0096C47.6381 15.6191 47.2477 15.2287 46.4667 15.2287C45.2953 14.8382 45.2953 14.8382 44.9048 14.8382Z" fill="#232C65"/>
</svg>
