<svg width="200" height="47" viewBox="0 0 200 47" fill="none" xmlns="http://www.w3.org/2000/svg">
<path d="M74.5803 44.5485C72.4203 44.5485 70.3403 44.2685 68.3403 43.7085C66.3669 43.1218 64.7269 42.3085 63.4203 41.2685L65.4203 36.7885C68.1669 38.7085 71.2336 39.6685 74.6203 39.6685C76.4336 39.6685 77.8203 39.3885 78.7803 38.8285C79.7669 38.2418 80.2603 37.4285 80.2603 36.3885C80.2603 35.4818 79.8069 34.7751 78.9003 34.2685C78.0203 33.7351 76.4603 33.2285 74.2203 32.7485C71.7136 32.2418 69.7136 31.6285 68.2203 30.9085C66.7536 30.1618 65.6736 29.2685 64.9803 28.2285C64.3136 27.1618 63.9803 25.8418 63.9803 24.2685C63.9803 22.5618 64.4469 21.0285 65.3803 19.6685C66.3403 18.3085 67.6736 17.2551 69.3803 16.5085C71.0869 15.7351 73.0603 15.3485 75.3003 15.3485C77.3269 15.3485 79.2736 15.6418 81.1403 16.2285C83.0069 16.8151 84.5003 17.6151 85.6203 18.6285L83.6203 23.1085C81.1136 21.1885 78.3536 20.2285 75.3403 20.2285C73.7403 20.2285 72.4603 20.5485 71.5003 21.1885C70.5403 21.8285 70.0603 22.6951 70.0603 23.7885C70.0603 24.4285 70.2336 24.9618 70.5803 25.3885C70.9536 25.8151 71.5669 26.2018 72.4203 26.5485C73.2736 26.8685 74.4869 27.1885 76.0603 27.5085C79.7136 28.3085 82.3403 29.3485 83.9403 30.6285C85.5669 31.9085 86.3803 33.6551 86.3803 35.8685C86.3803 38.5351 85.3403 40.6551 83.2603 42.2285C81.1803 43.7751 78.2869 44.5485 74.5803 44.5485ZM94.5093 14.7485H100.549V44.1885H94.5093V14.7485ZM129.806 23.9085V44.1885H123.846V41.1885C123.233 42.2285 122.366 43.0418 121.246 43.6285C120.126 44.2151 118.859 44.5085 117.446 44.5085C115.686 44.5085 114.126 44.0818 112.766 43.2285C111.433 42.3751 110.379 41.1618 109.606 39.5885C108.859 37.9885 108.486 36.1485 108.486 34.0685C108.486 31.9885 108.859 30.1351 109.606 28.5085C110.379 26.8818 111.446 25.6285 112.806 24.7485C114.166 23.8418 115.713 23.3885 117.446 23.3885C118.859 23.3885 120.126 23.6951 121.246 24.3085C122.366 24.9218 123.233 25.7485 123.846 26.7885V23.9085H129.806ZM119.206 39.9085C120.699 39.9085 121.846 39.4018 122.646 38.3885C123.446 37.3751 123.846 35.9085 123.846 33.9885C123.846 32.0685 123.446 30.6018 122.646 29.5885C121.846 28.5485 120.699 28.0285 119.206 28.0285C117.713 28.0285 116.553 28.5618 115.726 29.6285C114.899 30.6951 114.486 32.1751 114.486 34.0685C114.486 35.9618 114.886 37.4151 115.686 38.4285C116.513 39.4151 117.686 39.9085 119.206 39.9085ZM148.281 44.5085C144.975 44.5085 142.375 43.5751 140.481 41.7085C138.615 39.8418 137.681 37.2951 137.681 34.0685C137.681 31.9618 138.135 30.1085 139.041 28.5085C139.948 26.8818 141.215 25.6285 142.841 24.7485C144.495 23.8418 146.401 23.3885 148.561 23.3885C150.028 23.3885 151.455 23.6151 152.841 24.0685C154.228 24.5218 155.335 25.1351 156.161 25.9085L154.561 30.1085C153.761 29.4685 152.881 28.9751 151.921 28.6285C150.961 28.2551 150.028 28.0685 149.121 28.0685C147.468 28.0685 146.175 28.5751 145.241 29.5885C144.335 30.5751 143.881 32.0285 143.881 33.9485C143.881 35.8951 144.335 37.3751 145.241 38.3885C146.148 39.3751 147.441 39.8685 149.121 39.8685C150.028 39.8685 150.961 39.6951 151.921 39.3485C152.881 38.9751 153.761 38.4685 154.561 37.8285L156.161 42.0285C155.281 42.8018 154.135 43.4151 152.721 43.8685C151.308 44.2951 149.828 44.5085 148.281 44.5085ZM177.033 44.1885L169.073 35.1085V44.1885H163.033V14.7485H169.073V32.6285L176.673 23.9485H183.913L175.313 33.6685L184.433 44.1885H177.033Z" fill="#666666"/>
<g clip-path="url(#clip0)">
<path d="M12.8554 32.0991L15.2511 39.228C11.8036 40.3382 9.4273 41.0589 9.252 41.0394C7.73274 40.9809 6.25244 39.9876 5.74602 38.4683C5.10325 36.4816 6.15505 34.3391 8.14177 33.6768L12.8554 32.0991Z" fill="#E91E63"/>
<path d="M29.8203 26.4507L32.2356 33.638C29.0802 34.6897 25.6716 35.8195 22.4578 36.8712L20.062 29.7035L29.8203 26.4507Z" fill="#E91E63"/>
<path d="M46.7467 26.0611C46.7467 27.6583 45.7533 29.1386 44.1756 29.645C44.1756 29.645 42.3058 30.2683 39.4231 31.2227L37.0273 24.0549L41.7604 22.4772C43.7471 21.8345 45.9092 22.8862 46.5519 24.873C46.6883 25.2625 46.7467 25.6716 46.7467 26.0611Z" fill="#E91E63"/>
<path d="M7.30401 15.5237L9.69977 22.6525C6.25221 23.7627 3.87594 24.4834 3.70064 24.4639C2.18138 24.4055 0.701073 23.4121 0.194653 21.8929C-0.448111 19.9062 0.584207 17.7636 2.59041 17.1014L7.30401 15.5237Z" fill="#00BCD4"/>
<path d="M24.2496 9.875L26.6648 17.0623C23.5289 18.1141 20.1203 19.2438 16.9065 20.2956L14.5107 13.1278L24.2496 9.875Z" fill="#00BCD4"/>
<path d="M38.5854 13.0888C38.5854 13.0888 36.735 13.7121 33.8718 14.6665L31.4565 7.47923L36.1896 5.90153C38.1763 5.25877 40.3384 6.31057 41.0006 8.29729C41.6239 10.284 40.5916 12.446 38.5854 13.0888Z" fill="#00BCD4"/>
<path d="M33.8715 14.6668C31.8653 15.329 29.3721 16.1665 26.6647 17.0625L24.2495 9.87525L31.4563 7.47949L33.8715 14.6668Z" fill="#689F38"/>
<path d="M31.4565 7.47931L24.2497 9.87507L22.6136 4.98617C21.9903 2.97996 23.0226 0.837419 25.0093 0.194655C27.0155 -0.448109 29.1776 0.603686 29.8203 2.57093L31.4565 7.47931Z" fill="#FFC107"/>
<path d="M39.4228 31.2227C37.4166 31.9044 34.9235 32.742 32.2355 33.6379L29.8203 26.4507L37.0271 24.0549L39.4228 31.2227Z" fill="#B71C1C"/>
<path d="M37.0272 24.0548L29.8204 26.4505L26.665 17.0623C29.3724 16.1663 31.8656 15.3287 33.8718 14.6665L37.0272 24.0548Z" fill="#FFC107"/>
<path d="M38.663 40.9033C36.4425 41.5461 34.4948 40.28 33.8715 38.527L32.2354 33.6381C34.9233 32.7422 37.4164 31.9046 39.4226 31.2229L41.0587 36.1118C41.7015 38.118 40.6692 40.2605 38.663 40.9033Z" fill="#FFC107"/>
<path d="M16.9067 20.2957C14.2772 21.1527 11.7841 21.9708 9.69995 22.6525L7.3042 15.5237L14.5109 13.1279L16.9067 20.2957Z" fill="#009688"/>
<path d="M14.5107 13.1278L7.30391 15.5236L5.66778 10.6347C5.0445 8.64797 6.07682 6.48595 8.06354 5.84318C10.0697 5.20042 12.2318 6.25222 12.8745 8.23894L14.5107 13.1278Z" fill="#4CAF50"/>
<path d="M22.458 36.8712C19.8285 37.7282 17.3548 38.5462 15.2512 39.2279L12.8555 32.0991L20.0622 29.7034L22.458 36.8712Z" fill="#880E4F"/>
<path d="M20.0618 29.7034L12.8551 32.0991L9.69971 22.6525C11.7838 21.9707 14.277 21.1527 16.9064 20.2957L20.0618 29.7034Z" fill="#4CAF50"/>
<path d="M21.6981 46.5712C19.4776 47.214 17.5299 45.9479 16.9066 44.1949L15.251 39.2281C17.3546 38.5464 19.8282 37.7284 22.4577 36.8713L24.0938 41.7797C24.7366 43.7859 23.7043 45.9285 21.6981 46.5712Z" fill="#4CAF50"/>
</g>
<defs>
<clipPath id="clip0">
<rect width="46.7464" height="46.7464" fill="white"/>
</clipPath>
</defs>
</svg>
