<svg width="200" height="62" viewBox="0 0 200 62" fill="none" xmlns="http://www.w3.org/2000/svg">
<path d="M96.6875 16.106C96.6875 27.1811 96.6875 38.1987 96.6875 49.3346C101.975 49.3346 107.164 49.3346 112.417 49.3346C112.417 38.2371 112.417 27.1843 112.417 16.106C107.143 16.106 101.966 16.106 96.6875 16.106Z" fill="#6B8DCA"/>
<path d="M91.5108 15.7664C86.5474 14.7758 83.6034 15.6609 80.6849 19.1343C80.1055 18.3546 79.492 17.6197 79.0063 16.84C78.6314 16.2329 78.1116 16.0252 77.2212 16.0348C73.8 16.0763 70.3831 16.0507 66.9662 16.0571C66.6083 16.0571 66.2462 16.1083 65.9224 16.1402C65.9224 27.2601 65.9224 38.2905 65.9224 49.3081C71.2181 49.3081 76.3904 49.3081 81.716 49.3081C81.716 48.8576 81.716 48.471 81.716 48.0811C81.716 41.6137 81.716 35.159 81.716 28.698C81.716 26.2631 82.1633 25.8733 85.4567 25.5506C86.2662 25.4739 87.097 25.4323 87.9022 25.4835C89.4786 25.5953 91.0422 25.771 92.8103 25.9372C92.8103 22.9176 92.7719 19.9619 92.8358 17.0062C92.8486 16.2265 92.4439 15.9517 91.5108 15.7664Z" fill="#6B8DCA"/>
<path d="M25.7035 30.8922C24.1655 30.055 22.3718 29.4703 20.6804 28.7993C19.3682 28.272 17.9111 27.9014 16.7522 27.2303C16.1217 26.8725 15.6189 25.9841 15.7382 25.4122C15.8447 24.9297 16.8459 24.3449 17.5915 24.1979C18.6183 23.9902 19.7985 24.0477 20.8764 24.166C23.5306 24.4663 26.1594 24.8626 28.8989 25.2396C28.8989 22.8207 28.8563 20.3699 28.9244 17.919C28.9457 17.2097 28.6091 16.9125 27.7485 16.7048C22.3803 15.4107 16.9099 15.0432 11.3797 15.89C6.18622 16.6824 2.22823 18.6795 0.711501 22.7376C0.387704 23.5908 0.234327 24.4855 0 25.3547C0 26.0065 0 26.6552 0 27.3038C0.0894701 27.5467 0.221545 27.7831 0.26415 28.026C0.715761 30.6398 2.37309 32.7391 5.21483 34.2474C6.65913 35.0047 8.29516 35.567 9.8545 36.1965C11.2008 36.7461 12.6153 37.2222 13.9105 37.8262C14.8904 38.2863 15.3846 39.1363 14.852 39.8968C14.4729 40.44 13.5356 41.0183 12.7516 41.1014C11.2605 41.2644 9.67556 41.2133 8.17161 41.0343C5.73887 40.7563 3.34022 40.2962 0.79671 39.9032C0.79671 42.6384 0.762626 45.2746 0.843576 47.898C0.852097 48.16 1.47413 48.5658 1.90444 48.6489C6.89346 49.7033 11.9464 50.221 17.157 49.8631C25.1837 49.3167 29.6572 46.1852 30.4923 40.2099C31.0078 36.532 29.9299 33.1993 25.7035 30.8922Z" fill="#6B8DCA"/>
<path d="M54.0912 39.0428C54.0358 38.6913 54.04 38.3143 54.04 37.9596C54.0358 33.5564 54.0358 29.15 54.04 24.7468C54.04 24.4049 54.0912 24.0598 54.121 23.6316C56.2725 23.6316 58.2792 23.6316 60.337 23.6316C61.0357 21.0881 61.7132 18.6244 62.4289 16.0266C59.5659 16.0266 56.8477 16.0266 53.9932 16.0266C53.9932 12.6395 53.9932 9.38026 53.9932 6.02832C49.6816 6.80479 45.5404 7.58766 41.3736 8.29064C40.3383 8.46 40.0145 8.85303 39.8398 9.57837C39.3243 11.732 38.7066 13.8729 38.1058 16.0969C36.1204 16.0969 34.2671 16.0969 32.4138 16.0969C32.4138 18.6692 32.4138 21.136 32.4138 23.6795C34.3481 23.6795 36.163 23.6795 38.1314 23.6795C38.1314 24.1556 38.1314 24.5359 38.1314 24.9225C38.1356 30.3067 38.0845 35.6781 38.157 41.0623C38.2209 45.6349 40.9348 48.6768 45.8514 49.562C51.4198 50.5877 56.8903 49.7026 62.3522 48.9516C62.3522 46.0758 62.3522 43.3374 62.3522 40.4967C60.4734 40.6565 58.7607 40.8514 57.0352 40.9281C55.054 41.0144 54.3255 40.5127 54.0912 39.0428Z" fill="#6B8DCA"/>
<path d="M105.553 0.044735C105.515 0.0255628 105.481 0.0159768 105.438 0C104.863 0 104.284 0 103.709 0C103.615 0.0159768 103.517 0.0383441 103.423 0.0671025C99.5802 0.501673 96.6362 2.99406 96.6362 5.99771C96.6362 7.68806 97.5693 9.21544 99.069 10.3083C100.036 11.024 101.272 11.5576 102.69 11.8261C103.329 11.9475 103.986 12.0082 104.62 12.0018C104.629 12.0018 104.637 12.0018 104.646 12.0018C109.064 12.0018 112.643 9.3145 112.643 6.0009C112.643 2.91737 109.55 0.380249 105.553 0.044735Z" fill="#6B8DCA"/>
<path d="M182.166 40.7977C179.264 40.4654 177.965 39.0019 178.382 36.6501C185.399 36.6501 192.468 36.6501 200 36.6501C199.663 33.049 199.544 29.6203 198.939 26.2364C198.407 23.2711 196.852 20.5295 193.822 18.4206C190.129 15.8419 185.557 15.3179 180.785 15.4744C171.489 15.7876 165.929 18.8935 163.654 25.1276C161.801 30.1955 161.809 35.3464 163.611 40.4366C165.328 45.3064 169.469 48.4314 176.21 49.4412C182.213 50.3423 188.16 50.1473 194.069 49.0258C197.474 48.3835 197.474 48.3899 197.474 45.7633C197.474 43.7598 197.474 41.7499 197.474 39.6538C195.999 39.8519 194.734 40.0276 193.469 40.1906C189.724 40.6571 185.97 41.2451 182.166 40.7977ZM178.757 24.7058C178.842 24.2042 179.222 23.6674 179.682 23.2743C181.122 22.0122 183.759 22.3541 184.206 23.9677C184.756 25.9488 184.837 28.0035 185.148 30.122C182.57 30.1188 180.461 30.1188 178.067 30.1188C178.293 28.2623 178.459 26.4761 178.757 24.7058Z" fill="#6B8DCA"/>
<path d="M157.847 27.6118C157.561 25.0715 156.922 22.5983 155.423 20.2944C154.063 18.1887 152.044 16.5846 148.964 15.9487C144.239 14.971 139.727 15.3193 135.607 17.4793C135.224 17.6806 134.84 17.8723 134.269 18.1759C133.102 15.8593 130.605 15.904 128.028 16.0574C127.644 16.0829 127.261 16.0606 126.873 16.0606C124.385 16.0606 121.897 16.0606 119.251 16.0606C119.251 16.5686 119.251 16.9585 119.251 17.3451C119.251 31.6412 119.251 45.9372 119.251 60.2333C119.251 60.5944 119.285 60.965 119.315 61.3197C124.611 61.3197 129.902 61.3197 135.202 61.3197C135.202 57.3638 135.202 53.3984 135.202 49.5192C137.567 49.6918 139.804 49.9953 142.04 49.9857C149.713 49.9314 154.315 47.2857 156.603 41.7832C156.696 41.5436 156.794 41.3039 156.871 41.0515C158.396 36.6195 158.375 32.1237 157.847 27.6118ZM141.486 38.8403C140.762 41.4701 138.683 42.205 135.164 41.2368C135.164 40.5147 135.164 39.7702 135.164 39.0193C135.164 34.7279 135.198 30.4365 135.138 26.1515C135.13 25.4006 135.479 25.0204 136.361 24.8095C136.86 24.6881 137.341 24.5283 137.852 24.4164C140.029 23.9435 141.444 24.4804 141.729 26.1515C142.488 30.3758 142.65 34.632 141.486 38.8403Z" fill="#6B8DCA"/>
</svg>
