<svg width="70" height="70" viewBox="0 0 70 70" fill="none" xmlns="http://www.w3.org/2000/svg">
<circle cx="35" cy="35" r="35" fill="url(#paint0_linear)"/>
<g clip-path="url(#clip0)">
<path d="M20.6458 33.3125C18.6363 33.3125 17 34.9488 17 36.9583V48.625C17 50.6346 18.6363 52.2708 20.6458 52.2708H25.0208C25.8419 52.2708 26.5972 51.9938 27.2083 51.5329V33.3125H20.6458Z" fill="white"/>
<path d="M52.0001 38.7813C52.0001 37.9049 51.653 37.0882 51.0507 36.4859C51.7317 35.7407 52.0788 34.7417 51.984 33.7019C51.8134 31.8484 50.1436 30.3959 48.1807 30.3959H39.1726C39.6188 29.0411 40.3334 26.5576 40.3334 24.5626C40.3334 21.3994 37.6457 18.7292 35.9584 18.7292C34.4432 18.7292 33.3611 19.5824 33.3144 19.6174C33.1424 19.7559 33.0417 19.9659 33.0417 20.1876V25.1327L28.8417 34.2313L28.6667 34.3202V49.9507C29.8538 50.5107 31.3559 50.8126 32.3126 50.8126H45.6986C47.2867 50.8126 48.6766 49.7421 49.0032 48.2649C49.1709 47.5051 49.0732 46.7394 48.7393 46.0744C49.8169 45.5319 50.5417 44.4221 50.5417 43.1563C50.5417 42.6401 50.4236 42.1457 50.1991 41.698C51.2767 41.1555 52.0001 40.0457 52.0001 38.7813Z" fill="white"/>
</g>
<defs>
<linearGradient id="paint0_linear" x1="35" y1="0" x2="35" y2="70" gradientUnits="userSpaceOnUse">
<stop stop-color="#6730E3"/>
<stop offset="1" stop-color="#DA23F8"/>
</linearGradient>
<clipPath id="clip0">
<rect x="17" y="18" width="35" height="35" fill="white"/>
</clipPath>
</defs>
</svg>
