<svg width="100" height="111" viewBox="0 0 100 111" fill="none" xmlns="http://www.w3.org/2000/svg">
<path d="M43.1318 5.41809L12.8386 54.7857C10.6324 58.3811 14.7739 62.5011 18.3577 60.2761L44.3984 44.1094C45.6635 43.324 47.2601 43.3063 48.5422 44.0635L76.5259 60.589C80.1589 62.7344 84.2084 58.5219 81.9212 54.9764L49.9024 5.34179C48.3057 2.86672 44.6722 2.90766 43.1318 5.41809Z" fill="white"/>
<path d="M8.73349 94.8936C7.98683 94.8936 7.41083 94.6909 7.00549 94.2856C6.60016 93.8802 6.39749 93.3042 6.39749 92.5576V74.6376C6.39749 73.8909 6.62149 73.2936 7.06949 72.8456C7.51749 72.3976 8.12549 72.1736 8.89349 72.1736C9.66149 72.1736 10.2695 72.3976 10.7175 72.8456C11.1655 73.2936 11.3895 73.8909 11.3895 74.6376V90.8296H19.5815C21.1388 90.8296 21.9175 91.5122 21.9175 92.8776C21.9175 94.2216 21.1388 94.8936 19.5815 94.8936H8.73349ZM33.5155 95.1816C31.2755 95.1816 29.3235 94.7122 27.6595 93.7736C26.0168 92.8136 24.7475 91.4696 23.8515 89.7416C22.9555 87.9922 22.5075 85.9442 22.5075 83.5976C22.5075 81.2509 22.9555 79.2136 23.8515 77.4856C24.7475 75.7362 26.0168 74.3922 27.6595 73.4536C29.3235 72.5149 31.2755 72.0456 33.5155 72.0456C35.7555 72.0456 37.6968 72.5149 39.3395 73.4536C41.0035 74.3922 42.2835 75.7362 43.1795 77.4856C44.0755 79.2136 44.5235 81.2509 44.5235 83.5976C44.5235 85.9442 44.0755 87.9922 43.1795 89.7416C42.2835 91.4696 41.0035 92.8136 39.3395 93.7736C37.6968 94.7122 35.7555 95.1816 33.5155 95.1816ZM33.5155 91.3096C35.3928 91.3096 36.8648 90.6482 37.9315 89.3256C39.0195 88.0029 39.5635 86.0936 39.5635 83.5976C39.5635 81.1016 39.0302 79.2029 37.9635 77.9016C36.8968 76.5789 35.4142 75.9176 33.5155 75.9176C31.6168 75.9176 30.1342 76.5789 29.0675 77.9016C28.0222 79.2029 27.4995 81.1016 27.4995 83.5976C27.4995 86.0936 28.0328 88.0029 29.0995 89.3256C30.1662 90.6482 31.6382 91.3096 33.5155 91.3096ZM65.775 82.4456C66.3723 82.4456 66.8417 82.6162 67.183 82.9576C67.5457 83.2776 67.727 83.7256 67.727 84.3016V90.5416C67.727 91.3949 67.6523 92.0562 67.503 92.5256C67.375 92.9949 67.1403 93.3682 66.799 93.6456C66.4577 93.9229 65.9457 94.1576 65.263 94.3496C64.431 94.6056 63.471 94.8082 62.383 94.9576C61.3163 95.1069 60.303 95.1816 59.343 95.1816C56.9537 95.1816 54.8843 94.7229 53.135 93.8056C51.3857 92.8669 50.0417 91.5336 49.103 89.8056C48.1643 88.0562 47.695 85.9869 47.695 83.5976C47.695 81.2509 48.1537 79.2136 49.071 77.4856C50.0097 75.7362 51.343 74.3922 53.071 73.4536C54.799 72.5149 56.815 72.0456 59.119 72.0456C62.0843 72.0456 64.5377 72.8136 66.479 74.3496C66.799 74.6056 67.023 74.8616 67.151 75.1176C67.279 75.3736 67.343 75.6936 67.343 76.0776C67.343 76.6322 67.183 77.1122 66.863 77.5176C66.5643 77.9016 66.2017 78.0936 65.775 78.0936C65.4977 78.0936 65.2417 78.0509 65.007 77.9656C64.7937 77.8802 64.527 77.7416 64.207 77.5496C63.311 76.9949 62.4897 76.6002 61.743 76.3656C60.9963 76.1309 60.175 76.0136 59.279 76.0136C54.927 76.0136 52.751 78.5416 52.751 83.5976C52.751 86.2002 53.3163 88.1416 54.447 89.4216C55.5777 90.7016 57.2843 91.3416 59.567 91.3416C60.8043 91.3416 62.031 91.1816 63.247 90.8616V85.9016H60.303C59.6843 85.9016 59.2043 85.7522 58.863 85.4536C58.5217 85.1549 58.351 84.7282 58.351 84.1736C58.351 83.6189 58.5217 83.1922 58.863 82.8936C59.2043 82.5949 59.6843 82.4456 60.303 82.4456H65.775ZM82.328 95.1816C80.088 95.1816 78.136 94.7122 76.472 93.7736C74.8293 92.8136 73.56 91.4696 72.664 89.7416C71.768 87.9922 71.32 85.9442 71.32 83.5976C71.32 81.2509 71.768 79.2136 72.664 77.4856C73.56 75.7362 74.8293 74.3922 76.472 73.4536C78.136 72.5149 80.088 72.0456 82.328 72.0456C84.568 72.0456 86.5093 72.5149 88.152 73.4536C89.816 74.3922 91.096 75.7362 91.992 77.4856C92.888 79.2136 93.336 81.2509 93.336 83.5976C93.336 85.9442 92.888 87.9922 91.992 89.7416C91.096 91.4696 89.816 92.8136 88.152 93.7736C86.5093 94.7122 84.568 95.1816 82.328 95.1816ZM82.328 91.3096C84.2053 91.3096 85.6773 90.6482 86.744 89.3256C87.832 88.0029 88.376 86.0936 88.376 83.5976C88.376 81.1016 87.8427 79.2029 86.776 77.9016C85.7093 76.5789 84.2267 75.9176 82.328 75.9176C80.4293 75.9176 78.9467 76.5789 77.88 77.9016C76.8347 79.2029 76.312 81.1016 76.312 83.5976C76.312 86.0936 76.8453 88.0029 77.912 89.3256C78.9787 90.6482 80.4507 91.3096 82.328 91.3096Z" fill="white"/>
</svg>
