<svg width="104" height="79" viewBox="0 0 104 79" fill="none" xmlns="http://www.w3.org/2000/svg">
<path d="M42.6549 78.1773C9.6549 84.1773 -9.34512 11.1773 4.65486 2.1773C9.90156 -4.19373 44.8184 5.32359 73.876 6.54977C77.7138 6.71172 81.5937 6.99401 85.1885 8.34748C111.534 18.2667 109.69 48.8528 79.6549 59.1773C63.1121 64.8639 55.5 75.8418 42.6549 78.1773Z" fill="url(#paint0_linear)"/>
<g clip-path="url(#clip0)">
<path d="M37.9183 33.3584H34.8714C34.4037 33.3584 34.0247 33.7375 34.0247 34.2051C34.0247 34.6728 34.4037 35.0518 34.8714 35.0518H37.9182C38.3859 35.0518 38.765 34.6728 38.765 34.2051C38.765 33.7375 38.3859 33.3584 37.9183 33.3584Z" fill="white"/>
<path d="M68.1287 33.3584H65.0818C64.6142 33.3584 64.2351 33.7375 64.2351 34.2051C64.2351 34.6728 64.6142 35.0518 65.0818 35.0518H68.1287C68.5963 35.0518 68.9754 34.6728 68.9754 34.2051C68.9754 33.7375 68.5963 33.3584 68.1287 33.3584Z" fill="white"/>
<path d="M41.4066 44.2983C41.0759 43.9676 40.5398 43.9676 40.2091 44.2983L37.9929 46.5145C37.6622 46.8452 37.6622 47.3812 37.9929 47.712C38.1582 47.8773 38.3749 47.96 38.5916 47.96C38.8082 47.96 39.025 47.8773 39.1903 47.712L41.4066 45.4957C41.7372 45.1652 41.7372 44.629 41.4066 44.2983Z" fill="white"/>
<path d="M63.4569 22.248C63.1262 21.9173 62.5903 21.9173 62.2595 22.248L60.1039 24.4035C59.7733 24.7342 59.7733 25.2703 60.1039 25.6009C60.2694 25.7661 60.4861 25.8488 60.7027 25.8488C60.9195 25.8488 61.136 25.7661 61.3014 25.6008L63.4569 23.4454C63.7875 23.1147 63.7875 22.5786 63.4569 22.248Z" fill="white"/>
<path d="M42.8947 24.4024L40.7404 22.2481C40.4097 21.9176 39.8736 21.9176 39.5429 22.2481C39.2123 22.5788 39.2123 23.1149 39.5429 23.4456L41.6973 25.6C41.8626 25.7652 42.0793 25.848 42.296 25.848C42.5126 25.848 42.7294 25.7652 42.8947 25.6C43.2253 25.2693 43.2253 24.7331 42.8947 24.4024Z" fill="white"/>
<path d="M65.007 46.5148L62.799 44.3066C62.4682 43.9759 61.9323 43.9759 61.6015 44.3066C61.2709 44.6373 61.2709 45.1735 61.6015 45.504L63.8096 47.7121C63.975 47.8775 64.1917 47.9601 64.4083 47.9601C64.6251 47.9601 64.8416 47.8774 65.007 47.7121C65.3377 47.3815 65.3377 46.8454 65.007 46.5148Z" fill="white"/>
<path d="M51.5 24.2993C45.6451 24.2993 40.8818 29.2817 40.8818 35.406C40.8818 38.2532 41.9017 41.3179 43.68 43.8143C45.0458 45.7314 45.7676 47.8645 45.7676 49.983V55.3066C45.7676 56.2403 46.5273 57 47.461 57H55.539C56.4727 57 57.2324 56.2403 57.2324 55.3066V49.983C57.2324 47.8646 57.9542 45.7314 59.3198 43.8143C61.0981 41.318 62.1181 38.2532 62.1181 35.406C62.1179 29.2817 57.3547 24.2993 51.5 24.2993ZM55.5389 55.3067H47.4608V54.1992H51.4999C51.9675 54.1992 52.3467 53.8201 52.3467 53.3525C52.3467 52.8848 51.9675 52.5058 51.4999 52.5058H47.4608V51.3984H55.5391L55.54 55.3066C55.5399 55.3067 55.5396 55.3067 55.5389 55.3067ZM50.3125 39.5097L49.1802 37.0907H53.8195L52.6874 39.5097C52.6428 39.6049 52.6163 39.7077 52.6093 39.8125L51.9527 49.705H51.0471L50.3905 39.8125C50.3836 39.7077 50.357 39.6049 50.3125 39.5097ZM57.9405 42.8318C56.4282 44.9548 55.6021 47.3253 55.5423 49.705H53.6499L54.2884 40.0834L55.9175 36.6028C56.0403 36.3406 56.0205 36.0338 55.8651 35.7894C55.7097 35.5452 55.4402 35.3972 55.1506 35.3972H47.8491C47.5595 35.3972 47.2901 35.5452 47.1346 35.7894C46.9793 36.0337 46.9594 36.3405 47.0822 36.6028L48.7114 40.0833L49.3499 49.7049H47.4573C47.3975 47.3251 46.5715 44.9547 45.0591 42.8317C43.5036 40.6482 42.575 37.8721 42.575 35.4059C42.575 30.2154 46.5787 25.9927 51.4998 25.9927C56.4208 25.9927 60.4245 30.2154 60.4245 35.4059C60.4246 37.8723 59.496 40.6483 57.9405 42.8318Z" fill="white"/>
</g>
<defs>
<linearGradient id="paint0_linear" x1="51.8275" y1="0" x2="51.8275" y2="78.5273" gradientUnits="userSpaceOnUse">
<stop stop-color="#6730E3"/>
<stop offset="1" stop-color="#DA23F8"/>
</linearGradient>
<clipPath id="clip0">
<rect x="34" y="22" width="35" height="35" fill="white"/>
</clipPath>
</defs>
</svg>
