<svg width="563" height="293" viewBox="0 0 563 293" fill="none" xmlns="http://www.w3.org/2000/svg">
<path d="M281.5 270.797C436.968 270.797 563 263.848 563 255.277C563 246.705 436.968 239.757 281.5 239.757C126.032 239.757 0 246.705 0 255.277C0 263.848 126.032 270.797 281.5 270.797Z" fill="url(#paint0_linear)"/>
<path d="M494.987 116.304L478.239 125.509L461.42 99.0424L481.761 91.9772L494.987 116.304Z" fill="#292C47"/>
<path d="M493.926 115.508L478.263 124.119L462.534 99.3669L481.558 92.7581L493.926 115.508Z" fill="#E2D2CA"/>
<path d="M499.662 110.88C499.662 110.88 496.76 109.487 495.467 108.77C494.175 108.052 490.895 107.041 490.629 106.804C490.362 106.567 480.867 105.981 480.297 105.485C479.728 104.989 479.163 106.648 481.616 107.187C484.07 107.725 487.5 109.033 487.684 110.004C487.869 110.975 485.157 111.194 484.883 111.986C484.608 112.777 484.959 112.6 485.35 112.777C485.74 112.954 488.576 111.376 489.835 111.822C491.093 112.268 493.001 111.65 493.95 111.978C494.9 112.305 499.559 113.869 499.559 113.869L499.662 110.88Z" fill="#EEA886"/>
<path d="M477.421 122.19C477.421 122.19 474.973 119.985 473.789 119.064C472.604 118.143 470.38 115.429 470.053 115.27C469.726 115.112 465.478 106.398 464.776 106.036C464.075 105.675 465.433 104.514 466.887 106.622C468.341 108.73 470.929 111.445 471.9 111.247C472.87 111.049 472.034 108.403 472.675 107.833C473.316 107.263 473.282 107.667 473.593 107.968C473.905 108.268 473.53 111.556 474.438 112.558C475.345 113.561 475.493 115.6 476.184 116.376C476.875 117.151 480.141 120.924 480.141 120.924L477.421 122.19Z" fill="#EEA886"/>
<path d="M530.163 239.996C530.163 239.996 530.69 243.671 530.759 244.217C530.827 244.763 536.65 243.89 536.65 243.89L537.122 239.513C537.122 239.513 530.891 239.476 530.163 239.996Z" fill="#424773"/>
<path d="M530.696 243.755C530.696 243.755 528.849 245.972 527.065 246.937C525.282 247.903 522.472 248.285 521.417 249.285C520.654 250.008 518.641 253.113 526.058 253.053C533.474 252.992 537.049 253.491 537.843 252.298C538.637 251.106 536.692 243.507 536.692 243.507C536.692 243.507 534.938 244.141 530.696 243.755Z" fill="#292C47"/>
<path d="M488.412 239.996C488.412 239.996 488.94 243.671 489.008 244.217C489.077 244.763 494.902 243.89 494.902 243.89L495.374 239.513C495.374 239.513 489.143 239.476 488.412 239.996Z" fill="#424773"/>
<path d="M488.948 243.755C488.948 243.755 487.101 245.972 485.315 246.937C483.529 247.903 476.96 248.697 475.904 249.697C475.142 250.417 473.875 253.324 484.307 253.053C491.72 252.857 495.298 253.491 496.095 252.298C496.891 251.106 494.944 243.507 494.944 243.507C494.944 243.507 493.29 244.183 488.948 243.755Z" fill="#292C47"/>
<path d="M525.337 145.515C525.337 145.515 530.812 154.221 530.403 162.075C529.994 169.929 532.389 178.525 533.212 186.738C534.128 195.895 537.879 217.571 538.017 222.47C538.154 227.369 537.434 243.009 537.434 243.009L529.922 243.18C529.922 243.18 523.614 205.282 521.981 201.417C520.348 197.552 512.246 169.98 511.972 166.888C511.697 163.795 525.337 145.515 525.337 145.515Z" fill="#292C47"/>
<path d="M496.517 146.694C496.517 146.694 492.391 168.243 491.847 173.056C491.304 177.868 490.94 196.346 490.666 199.354C490.391 202.361 488.85 238.722 487.399 243.18H497.003C497.003 243.18 504.374 216.756 504.374 204.253C504.374 191.75 510.07 177.079 513.745 168.821C517.42 160.564 525.836 160.379 528.094 145.077C528.092 145.064 499.575 141.84 496.517 146.694Z" fill="#292C47"/>
<path d="M516.201 72.3829C516.201 72.3829 508.853 69.6391 505.463 75.2322C502.073 80.8253 502.403 92.0246 506.107 93.4018C509.811 94.779 515.375 94.0587 517.272 90.5604C519.169 87.0621 520.881 81.9993 520.797 78.6171C520.712 75.2348 518.132 73.359 516.201 72.3829Z" fill="#EEA886"/>
<path d="M506.904 93.6578C506.904 93.6578 507.21 95.6417 506.706 96.6205C506.202 97.5993 516.225 97.6231 516.225 97.6231C516.225 97.6231 517.053 92.2991 518.583 87.814C520.113 83.329 506.904 93.6578 506.904 93.6578Z" fill="#EEA886"/>
<path d="M518.583 87.814C518.583 87.814 517.89 88.9564 515.067 88.5132C512.244 88.0699 508.795 84.3131 507.616 83.8989C506.437 83.4847 506.426 82.7961 506.426 82.7961L505.688 83.8725L504.434 83.9516C504.434 83.9516 505.577 80.5905 503.854 79.2213C502.131 77.852 505.643 68.3385 514.7 71.5044C514.7 71.5044 521.66 73.4224 521.406 77.3797C521.153 81.3371 520.14 85.8459 518.583 87.814Z" fill="#3A3F47"/>
<path d="M506.11 96.5017C506.11 96.5017 506.142 94.6339 506.988 94.4571C507.835 94.2803 516.33 93.4598 517.37 93.8687V96.0426C517.37 96.0426 515.367 97.2747 506.11 96.5017Z" fill="#E2D2CA"/>
<path d="M506.611 81.3556C506.772 80.6908 508.458 78.7965 509.104 80.828C509.75 82.8594 508.128 85.5768 507.223 85.3578C506.318 85.1388 506.21 83.0388 506.611 81.3556Z" fill="#EEA886"/>
<path d="M472.391 118.565H472.405C472.345 118.592 472.335 118.592 472.391 118.565Z" fill="#323657"/>
<path d="M531.513 166.236C531.513 166.236 527.007 167.555 519.322 168.412C511.637 169.27 492.436 168.104 492.314 167.196C492.193 166.289 496.446 133.39 496.203 131.696C495.96 130.002 495.831 123.963 495.831 123.963C495.736 125.617 494.05 132.374 492.016 136.06C491.283 137.379 488.816 141.56 487.629 140.611C481.875 136.017 472.968 118.713 472.403 118.565C472.878 118.36 476.625 116.634 477.152 116.455C477.614 116.302 481.764 120.697 484.275 123.42C485.397 124.633 486.193 125.515 486.193 125.515C486.919 123.881 489.562 113.59 490.386 110.028C492.232 101.995 491.953 101.662 491.953 101.662C497.575 99.9605 506.11 96.4991 506.11 96.4991L517.37 96.04C517.37 96.04 527.704 98.3168 531.774 100.153C532.16 100.327 532.162 109.387 533.223 111.745L529.848 118.869C529.848 118.869 527.899 132.97 527.493 139.244C527.308 142.12 531.513 166.236 531.513 166.236Z" fill="#5B94E2"/>
<path d="M533.69 123.491C533.395 124.441 532.06 125.243 531.194 125.602C530.622 125.832 529.996 125.894 529.39 125.781L528.949 125.702L521.232 124.272C521.232 124.272 519.544 104.825 531.785 100.166C532.091 100.264 536.389 114.785 533.69 123.491Z" fill="#5B94E2"/>
<path d="M531.194 125.594C530.622 125.824 529.996 125.886 529.39 125.773L528.949 125.694L529.712 115.758L531.194 125.594Z" fill="#3D6396"/>
<path d="M486.185 125.517L485.241 129.512C485.241 129.512 484.217 125.504 484.267 123.422C485.394 124.636 486.185 125.517 486.185 125.517Z" fill="#3D6396"/>
<path d="M518.293 73.0398C518.293 73.0398 527.925 71.9265 518.459 88.0145L518.293 73.0398Z" fill="#3A3F47"/>
<path d="M469.164 97.6231L468.185 95.9425L475.894 93.2805L476.873 94.9532L469.164 97.6231Z" fill="#292C47"/>
<path d="M214.225 254.013H287.526C292.77 254.013 297.021 249.762 297.021 244.518V49.2878C297.021 44.0438 292.77 39.7927 287.526 39.7927H214.225C208.981 39.7927 204.73 44.0438 204.73 49.2878L204.73 244.518C204.73 249.762 208.981 254.013 214.225 254.013Z" fill="#587AA3"/>
<path d="M211.434 255.657H299.667C305.414 255.657 310.072 250.998 310.072 245.251V48.2773C310.072 42.5306 305.414 37.8721 299.667 37.8721H211.434C205.687 37.8721 201.028 42.5306 201.028 48.2773L201.028 245.251C201.028 250.998 205.687 255.657 211.434 255.657Z" fill="url(#paint1_linear)"/>
<g style="mix-blend-mode:screen" opacity="0.98">
<path d="M218.185 254.013H298.979C304.223 254.013 308.474 249.762 308.474 244.518V49.2878C308.474 44.0438 304.223 39.7927 298.979 39.7927H218.185C212.941 39.7927 208.69 44.0438 208.69 49.2878L208.69 244.518C208.69 249.762 212.941 254.013 218.185 254.013Z" fill="#A3CDFF"/>
</g>
<path d="M262.354 112.801L266.346 119.093L270.04 124.897C270.04 124.868 269.776 123.987 269.37 121.441C269.29 120.958 269.206 120.415 269.106 119.805C269.079 119.627 269.04 119.451 268.99 119.278C267.407 115.645 262.537 112.904 262.36 112.811L262.354 112.801Z" fill="#EDDAD3"/>
<path d="M268.971 119.228C268.971 119.228 269.185 119.668 269.359 121.441L267.916 119.265C267.916 119.265 265.338 115.571 264.454 114.605C263.815 113.94 263.113 113.336 262.359 112.803C262.359 112.803 267.43 115.252 268.971 119.228Z" fill="#FFCA55"/>
<path d="M279.801 160.239C280.247 160.666 280.613 161.169 280.883 161.724C281.102 162.292 281.838 163.044 282.183 163.474C282.529 163.904 283.83 165.909 284.014 166.468C284.088 166.695 283.988 168.273 284.194 168.721C284.399 169.17 284.927 170.027 284.529 170.188C284.13 170.349 283.439 169.705 283.439 169.705C283.483 169.818 283.493 169.942 283.467 170.061C283.441 170.179 283.381 170.288 283.294 170.373C282.698 170.853 282.255 170.66 282.255 170.66C282.255 170.66 282.136 171.188 281.835 171.33C281.672 171.423 281.491 171.481 281.304 171.499C281.118 171.518 280.929 171.497 280.751 171.438C280.57 171.667 280.315 171.825 280.03 171.884C279.844 171.919 279.651 171.907 279.47 171.848C279.289 171.789 279.126 171.685 278.996 171.547C278.996 171.547 278.255 171.892 277.923 171.578C277.59 171.264 277.519 170.866 277.332 170.557C277.144 170.249 276.361 167.23 276.762 164.83C277.163 162.429 275.29 160.627 275.29 160.627L279.801 160.239Z" fill="#EEA886"/>
<path d="M286.431 178.709H276.06C275.554 178.709 275.068 178.507 274.71 178.149C274.352 177.791 274.151 177.306 274.15 176.799V170.259C274.151 169.753 274.352 169.267 274.71 168.909C275.068 168.551 275.554 168.35 276.06 168.349H286.431C286.938 168.349 287.424 168.55 287.783 168.908C288.141 169.266 288.343 169.752 288.344 170.259V176.799C288.343 177.306 288.141 177.792 287.783 178.15C287.424 178.508 286.938 178.709 286.431 178.709ZM276.06 169.631C275.894 169.632 275.734 169.698 275.617 169.816C275.499 169.934 275.433 170.093 275.432 170.259V176.799C275.433 176.966 275.499 177.125 275.617 177.243C275.734 177.36 275.894 177.427 276.06 177.427H286.431C286.598 177.427 286.758 177.361 286.876 177.244C286.994 177.126 287.061 176.966 287.061 176.799V170.259C287.061 170.092 286.994 169.933 286.876 169.815C286.758 169.697 286.598 169.631 286.431 169.631H276.06Z" fill="#0E1E2B"/>
<path d="M300.704 175.902H261.79V203.783H300.704V175.902Z" fill="#54281A"/>
<path d="M264.658 101.338C264.658 101.338 262.724 101.338 261.874 107.284C261.025 113.231 262.634 115.727 262.827 118.217C263.019 120.708 265.929 136.717 266.008 137.424C266.088 138.131 266.475 146.657 267.61 148.918C268.744 151.179 277.084 164.004 277.197 164.642C277.311 165.281 281.247 162.41 281.247 162.41C281.247 162.41 274.694 148.692 274.314 147.13C273.934 145.568 271.298 137.574 271.715 135.136C272.132 132.698 270.546 119.241 270.699 117.745C270.852 116.249 268.478 102.248 264.658 101.338Z" fill="#EEA886"/>
<path d="M264.718 101.295C264.718 101.295 262.724 101.324 261.874 107.284C261.025 113.244 261.792 115.392 262.307 117.974C262.792 120.415 264.446 135.339 264.523 136.049C264.599 136.759 266.581 145.755 267.61 148.918C268.401 151.327 275.83 163.927 275.941 164.566C276.052 165.204 281.722 161.622 281.722 161.622C281.722 161.622 274.451 147.438 274.071 145.871C273.691 144.304 272.461 138.89 272.422 136.416C272.374 133.514 270.546 119.241 270.699 117.745C270.852 116.249 270.28 103.335 264.718 101.295Z" fill="#E64646"/>
<path d="M248.042 240.304C248.042 240.304 251.514 245.46 252.912 246.705C252.912 246.705 256.131 247.831 256.342 250.018C256.471 251.451 256.342 253.749 252.669 253.855C248.997 253.96 246.63 252.673 245.955 250.446C245.28 248.219 244.011 247.222 244.011 247.222V251.884H243.182C243.182 251.884 242.976 247.378 242.918 246.549C242.86 245.721 242.322 242.531 244.071 241.12C245.82 239.708 248.042 240.304 248.042 240.304Z" fill="#EDDAD3"/>
<path d="M271.588 236.181C272.055 237.211 272.637 238.185 273.324 239.083C274.155 240.167 276.754 244.623 277.883 244.937C279.012 245.251 282.545 245.869 282.856 247.839C283.168 249.81 283.323 251.206 279.851 251.362C276.379 251.517 274.1 251.723 272.443 249.288C270.786 246.853 268.143 245.093 268.143 245.093V251.446H266.797C266.797 251.446 266.175 244.834 265.813 244.368C265.452 243.901 264.518 238.827 267.729 236.189C270.939 233.551 271.588 236.181 271.588 236.181Z" fill="#EDDAD3"/>
<path d="M245.71 140.803C245.71 140.803 241.328 146.502 240.138 153.264C238.948 160.025 240.84 182.717 240.79 186.057C240.739 189.397 237.624 197.715 238.252 203.997C238.879 210.279 244.056 241.104 244.056 241.104L248.032 240.289C248.032 240.289 247.644 208.35 248.032 205.709C248.419 203.068 249.2 193.434 249.351 192.347C249.501 191.26 259.218 162.69 259.218 157.817C259.218 152.944 256.279 132.851 245.71 140.803Z" fill="#EEA886"/>
<path d="M267.739 143.03C267.739 143.03 274.941 170.515 275.796 174.322C276.651 178.129 277.888 181.271 277.888 182.888C277.888 186.64 276.495 192.663 276.495 192.663L271.598 236.181H267.739C267.739 236.181 265.304 210.769 264.916 205.641C264.528 200.512 267.712 192.584 266.937 190.41C266.161 188.236 254.424 163.133 254.424 163.133C254.424 163.133 245.53 135.052 267.739 143.03Z" fill="#EEA886"/>
<path d="M253.508 246.963C253.508 246.963 250.485 248.517 247.738 246.465C244.992 244.412 244.066 241.114 244.066 241.114L248.042 240.299L253.508 246.963Z" fill="#EEA886"/>
<path d="M277.883 244.937C277.883 244.937 274.775 245.713 273.582 244.937C272.39 244.162 268.34 237.313 266.987 236.901C266.987 236.901 268.287 234.263 271.577 236.181C271.588 236.181 277.002 243.798 277.883 244.937Z" fill="#EEA886"/>
<path d="M276.946 178.707C276.946 178.707 263.713 186.484 238.913 186.484C238.913 186.484 237.51 157.728 241.116 149.631C244.723 141.534 268.657 146.57 268.657 146.57C268.657 146.57 276.094 172.766 276.946 178.707Z" fill="#1D3B54"/>
<path d="M258.869 99.1585C258.869 99.1585 262.713 100.976 264.05 101.243C265.388 101.509 270.567 108.239 271.474 110.698C272.382 113.157 271.474 116.84 269.604 121.167C267.733 125.494 269.498 126.934 268.644 131.261C267.789 135.587 267.04 144.747 267.2 147.151C267.361 149.554 245.596 150.011 240.628 145.629C240.628 145.629 245.622 138.152 246.263 137.083C246.904 136.015 246.369 130.192 245.781 128.696C245.192 127.2 241.296 114.484 241.296 114.484C241.296 114.484 238.098 104.723 240.987 102.472C243.498 100.523 250.339 99.8339 251.569 99.3986C252.798 98.9633 256.357 98.776 258.869 99.1585Z" fill="#EDDAD3"/>
<path d="M260.088 107.722L262.426 104.986L260.397 97.7813C260.397 97.7813 259.724 101.797 260.088 107.722Z" fill="#D6C5BE"/>
<path d="M254.02 71.8552C256.305 71.0638 264.702 69.0772 266.684 79.8122C268.665 90.5472 262.726 98.1876 257.283 96.1693C251.841 94.1511 248.469 86.7138 248.15 81.0522C247.831 75.3905 251.131 72.8683 254.02 71.8552Z" fill="#EEA886"/>
<path d="M266.684 79.8122C266.684 79.8122 267.095 70.6258 257.962 70.3145C248.828 70.0032 246.372 77.5117 247.119 82.9939C247.555 86.244 249.167 89.2217 251.649 91.3651C251.649 91.3651 251.319 86.9302 253.092 85.7799C254.865 84.6297 261.969 82.3317 265.067 76.9893C265.056 76.9814 266.491 78.6672 266.684 79.8122Z" fill="#252E3B"/>
<path d="M255.3 78.8555C256.503 75.1974 254.886 71.3788 251.687 70.3265C248.489 69.2743 244.92 71.3867 243.717 75.0449C242.513 78.703 244.131 82.5216 247.329 83.5738C250.528 84.6261 254.096 82.5137 255.3 78.8555Z" fill="#252E3B"/>
<path d="M260.703 94.7104C260.703 94.7104 259.938 101.765 260.096 104.063C260.096 104.063 256.102 108.068 251.556 99.388C251.556 99.388 253.469 95.8106 252.028 90.9456C250.588 86.0807 260.703 94.7104 260.703 94.7104Z" fill="#EEA886"/>
<path d="M260.096 104.063V107.722L255.498 104.285L260.096 104.063Z" fill="#EEA886"/>
<path d="M260.096 107.722L258.188 105.358L251.754 98.9473L249.675 100.952L260.096 107.722Z" fill="#D6C5BE"/>
<path d="M250.854 99.5621C250.854 99.5621 256.252 107.741 256.511 111.358C256.769 114.975 254.511 141.932 252.701 150.604C250.891 159.276 237.79 149.625 237.79 149.625C237.79 149.625 246.591 135.379 243.214 123.968C239.837 112.558 238.605 107.999 238.605 107.999C238.605 107.999 239.768 101.646 243.881 100.752C247.498 99.9684 250.854 99.5621 250.854 99.5621Z" fill="#E64646"/>
<path d="M271.828 111.78C271.828 111.78 272.804 115.225 269.01 122.839C269.01 122.839 269.071 132.585 269.177 135.63C269.282 138.674 270.005 150.185 270.005 150.185L266.254 152.382C266.084 152.482 265.889 152.533 265.692 152.528C265.495 152.523 265.303 152.464 265.139 152.355C264.974 152.247 264.843 152.095 264.76 151.916C264.677 151.737 264.646 151.539 264.671 151.343C265.726 142.581 269.19 109.347 261.724 100.425L264.721 101.306C264.721 101.306 270.039 105.651 271.828 111.78Z" fill="#E64646"/>
<path d="M253.999 83.8302C253.916 83.6405 253.792 83.4715 253.636 83.3351C253.48 83.1988 253.296 83.0984 253.097 83.0412C252.898 82.9841 252.689 82.9714 252.485 83.0043C252.28 83.0371 252.086 83.1147 251.915 83.2313C251.273 83.7115 250.902 85.1546 251.915 87.0225C252.928 88.8903 256.51 90.1884 253.999 83.8302Z" fill="#EEA886"/>
<path d="M262.434 104.986L265.378 105.799L260.405 97.7813L262.434 104.986Z" fill="#FAE6DE"/>
<path d="M258.188 105.358L255.497 108.883L249.976 99.6781L251.754 98.9473L258.188 105.358Z" fill="#FAE6DE"/>
<path d="M260.545 96.2563L260.405 97.6441C260.405 97.6441 257.239 98.2641 253.081 93.196C253.081 93.2039 256.028 96.7972 260.545 96.2563Z" fill="#A77860"/>
<path d="M276.891 139.455C276.891 139.455 278.756 140.658 279.833 139.983C280.746 139.413 282.339 139.334 282.832 139.307C283.487 139.273 285.471 138.418 285.515 139.247C285.56 140.075 282.326 140.811 281.677 141.093C281.028 141.376 283.882 142.779 284.204 143.447C284.526 144.114 281.949 148.723 280.099 147.528C278.25 146.333 277.055 143.858 276.688 143.713C276.212 143.472 275.751 143.202 275.308 142.906L276.891 139.455Z" fill="#EEA886"/>
<path d="M241.357 101.889C241.357 101.889 243.995 101.393 246.24 103.796C248.485 106.2 249.604 110.152 250.197 111.447C250.791 112.743 258.21 124.586 258.64 124.855C259.07 125.124 266.613 131.21 270.029 134.469C273.446 137.727 280.112 141.36 280.112 141.36L277.601 144.884C277.601 144.884 257.358 134.094 254.793 130.142C252.229 126.19 241.995 115.239 241.995 115.239C241.995 115.239 235.84 105.87 241.357 101.889Z" fill="#EEA886"/>
<path d="M283.832 143.077C283.832 143.077 289.254 147.079 289.394 147.647C289.534 148.214 289.296 148.499 288.774 148.145C288.251 147.792 283.423 144.431 283.423 144.431C283.423 144.431 289.045 150.235 289.262 150.686C289.386 150.95 288.966 151.514 288.668 151.351C288.37 151.187 282.471 145.745 282.471 145.745C282.471 145.745 287.708 151.182 287.779 151.607C287.783 151.71 287.757 151.812 287.704 151.9C287.651 151.988 287.573 152.059 287.48 152.103C287.387 152.148 287.284 152.165 287.182 152.151C287.079 152.137 286.984 152.094 286.906 152.026C286.489 151.649 281.342 146.879 281.342 146.879C281.342 146.879 284.906 151.076 284.753 151.467C284.661 151.707 284.32 152.219 283.434 151.105C282.547 149.992 280.184 147.591 280.184 147.591L283.832 143.077Z" fill="#EEA886"/>
<path d="M269.902 120.929C269.902 120.929 270.082 133.097 269.341 138.964L269.011 122.839L269.902 120.929Z" fill="#E64646"/>
<path d="M242.881 101.098C242.881 101.098 244.227 101.393 246.469 103.796C248.712 106.2 249.836 110.152 250.427 111.447C251.018 112.743 258.436 124.586 258.869 124.855C259.302 125.124 265.48 129.366 268.894 132.625C272.308 135.883 278.674 139.777 278.674 139.777L275.411 144.623C275.411 144.623 257.558 134.735 254.724 130.97C251.701 126.947 240.918 115.141 240.918 115.141C240.918 115.141 234.056 104.324 242.881 101.098Z" fill="#E64646"/>
<path d="M283.471 169.399C283.471 169.399 282.774 166.69 281.904 166.286C281.033 165.882 281.228 166.872 281.228 166.872C281.228 166.872 281.052 165.89 280.242 165.946C279.432 166.001 279.714 167.149 279.714 167.149C279.667 167.05 279.6 166.963 279.519 166.891C279.437 166.819 279.341 166.764 279.238 166.73C279.134 166.696 279.025 166.683 278.916 166.693C278.808 166.702 278.702 166.733 278.606 166.785C277.838 167.13 278.3 168.027 278.3 168.027C278.3 168.027 277.26 167.286 277.012 168.291C276.59 169.995 277.912 171.573 277.912 171.573C277.912 171.573 278.268 171.924 278.986 171.541C278.986 171.541 279.798 172.459 280.74 171.433C280.74 171.433 282.112 171.803 282.244 170.642C282.249 170.655 283.737 170.969 283.471 169.399Z" fill="#DB9C7C"/>
<path d="M254.928 133.804L248.817 123.958C248.817 123.958 254.028 130.11 254.571 130.77C255.115 131.429 255.16 131.48 255.16 131.48C255.16 131.48 255.001 133.469 254.928 133.804Z" fill="#9C2F2F"/>
<g style="mix-blend-mode:screen" opacity="0.73">
<path d="M300.981 49.2956V244.526C300.981 247.045 299.98 249.46 298.199 251.242C296.418 253.023 294.002 254.023 291.483 254.023H218.185C215.666 254.023 213.25 253.023 211.469 251.242C209.688 249.46 208.687 247.045 208.687 244.526V49.2956C208.687 46.7767 209.688 44.3609 211.469 42.5797C213.25 40.7986 215.666 39.7979 218.185 39.7979H291.483C294.002 39.7979 296.418 40.7986 298.199 42.5797C299.98 44.3609 300.981 46.7767 300.981 49.2956Z" fill="#6BB0FF"/>
</g>
<path d="M279.801 160.239C280.247 160.666 280.613 161.169 280.883 161.724C281.102 162.292 281.838 163.044 282.183 163.474C282.529 163.904 283.83 165.909 284.014 166.468C284.088 166.695 283.988 168.273 284.194 168.721C284.399 169.17 284.927 170.027 284.529 170.188C284.13 170.349 283.439 169.705 283.439 169.705C283.483 169.818 283.493 169.942 283.467 170.061C283.441 170.179 283.381 170.288 283.294 170.373C282.698 170.853 282.255 170.66 282.255 170.66C282.255 170.66 282.136 171.188 281.835 171.33C281.672 171.423 281.491 171.481 281.304 171.499C281.118 171.518 280.929 171.497 280.751 171.438C280.57 171.667 280.315 171.825 280.03 171.884C279.844 171.919 279.651 171.907 279.47 171.848C279.289 171.789 279.126 171.685 278.996 171.547C278.996 171.547 278.255 171.892 277.923 171.578C277.59 171.264 277.519 170.866 277.332 170.557C277.144 170.249 276.361 167.23 276.762 164.83C277.163 162.429 275.29 160.627 275.29 160.627L279.801 160.239Z" fill="#EEA886"/>
<path d="M276.952 169.18C276.95 169.176 276.949 169.172 276.949 169.167C276.949 169.162 276.95 169.158 276.952 169.154C276.952 169.154 276.952 169.135 276.952 169.127C276.904 168.898 276.859 168.65 276.822 168.376H276.081C275.578 168.375 275.095 168.572 274.736 168.924C274.664 169.009 274.59 169.09 274.517 169.188C274.891 170.652 275.213 171.908 275.451 172.858V170.296C275.451 170.129 275.517 169.969 275.635 169.85C275.753 169.732 275.914 169.666 276.081 169.666H277.07C277.022 169.506 276.982 169.344 276.952 169.18ZM276.952 169.18C276.95 169.176 276.949 169.172 276.949 169.167C276.949 169.162 276.95 169.158 276.952 169.154C276.952 169.154 276.952 169.135 276.952 169.127C276.904 168.898 276.859 168.65 276.822 168.376H276.081C275.578 168.375 275.095 168.572 274.736 168.924C274.664 169.009 274.59 169.09 274.517 169.188C274.891 170.652 275.213 171.908 275.451 172.858V170.296C275.451 170.129 275.517 169.969 275.635 169.85C275.753 169.732 275.914 169.666 276.081 169.666H277.07C277.022 169.506 276.982 169.344 276.952 169.18ZM276.952 169.18C276.95 169.176 276.949 169.172 276.949 169.167C276.949 169.162 276.95 169.158 276.952 169.154C276.952 169.154 276.952 169.135 276.952 169.127C276.904 168.898 276.859 168.65 276.822 168.376H276.081C275.578 168.375 275.095 168.572 274.736 168.924C274.664 169.009 274.59 169.09 274.517 169.188C274.891 170.652 275.213 171.908 275.451 172.858V170.296C275.451 170.129 275.517 169.969 275.635 169.85C275.753 169.732 275.914 169.666 276.081 169.666H277.07C277.022 169.506 276.982 169.344 276.952 169.18ZM276.952 169.18C276.95 169.176 276.949 169.172 276.949 169.167C276.949 169.162 276.95 169.158 276.952 169.154C276.952 169.154 276.952 169.135 276.952 169.127C276.904 168.898 276.859 168.65 276.822 168.376H276.081C275.578 168.375 275.095 168.572 274.736 168.924C274.664 169.009 274.59 169.09 274.517 169.188C274.891 170.652 275.213 171.908 275.451 172.858V170.296C275.451 170.129 275.517 169.969 275.635 169.85C275.753 169.732 275.914 169.666 276.081 169.666H277.07C277.022 169.506 276.982 169.344 276.952 169.18ZM276.952 169.18C276.95 169.176 276.949 169.172 276.949 169.167C276.949 169.162 276.95 169.158 276.952 169.154C276.952 169.154 276.952 169.135 276.952 169.127C276.904 168.898 276.859 168.65 276.822 168.376H276.081C275.578 168.375 275.095 168.572 274.736 168.924C274.664 169.009 274.59 169.09 274.517 169.188C274.891 170.652 275.213 171.908 275.451 172.858V170.296C275.451 170.129 275.517 169.969 275.635 169.85C275.753 169.732 275.914 169.666 276.081 169.666H277.07C277.022 169.506 276.982 169.344 276.952 169.18ZM276.952 169.18C276.95 169.176 276.949 169.172 276.949 169.167C276.949 169.162 276.95 169.158 276.952 169.154C276.952 169.154 276.952 169.135 276.952 169.127C276.904 168.898 276.859 168.65 276.822 168.376H276.081C275.578 168.375 275.095 168.572 274.736 168.924C274.664 169.009 274.59 169.09 274.517 169.188C274.891 170.652 275.213 171.908 275.451 172.858V170.296C275.451 170.129 275.517 169.969 275.635 169.85C275.753 169.732 275.914 169.666 276.081 169.666H277.07C277.022 169.506 276.982 169.344 276.952 169.18ZM276.952 169.18C276.95 169.176 276.949 169.172 276.949 169.167C276.949 169.162 276.95 169.158 276.952 169.154C276.952 169.154 276.952 169.135 276.952 169.127C276.904 168.898 276.859 168.65 276.822 168.376H276.081C275.578 168.375 275.095 168.572 274.736 168.924C274.664 169.009 274.59 169.09 274.517 169.188C274.891 170.652 275.213 171.908 275.451 172.858V170.296C275.451 170.129 275.517 169.969 275.635 169.85C275.753 169.732 275.914 169.666 276.081 169.666H277.07C277.022 169.506 276.982 169.344 276.952 169.18ZM286.431 168.346H276.063C275.559 168.346 275.076 168.543 274.717 168.895C274.646 168.98 274.572 169.061 274.498 169.159C274.271 169.484 274.149 169.871 274.15 170.267V176.81C274.151 177.317 274.353 177.803 274.712 178.161C275.07 178.519 275.556 178.721 276.063 178.723H286.431C286.938 178.721 287.423 178.519 287.782 178.161C288.14 177.803 288.342 177.317 288.344 176.81V170.267C288.344 169.759 288.143 169.271 287.785 168.911C287.426 168.551 286.939 168.348 286.431 168.346ZM287.061 176.789C287.061 176.871 287.045 176.953 287.013 177.029C286.982 177.105 286.935 177.174 286.876 177.232C286.818 177.29 286.748 177.336 286.672 177.366C286.595 177.397 286.513 177.413 286.431 177.411H276.063C275.98 177.413 275.898 177.397 275.822 177.366C275.745 177.336 275.676 177.29 275.617 177.232C275.559 177.174 275.512 177.105 275.48 177.029C275.448 176.953 275.432 176.871 275.432 176.789V170.246C275.432 170.163 275.448 170.081 275.48 170.005C275.512 169.928 275.558 169.859 275.617 169.8C275.675 169.742 275.745 169.695 275.821 169.663C275.898 169.632 275.98 169.615 276.063 169.615H286.431C286.514 169.615 286.596 169.632 286.672 169.663C286.749 169.695 286.818 169.742 286.877 169.8C286.935 169.859 286.982 169.928 287.013 170.005C287.045 170.081 287.061 170.163 287.061 170.246V176.789ZM276.952 169.167C276.95 169.163 276.949 169.158 276.949 169.154C276.949 169.149 276.95 169.145 276.952 169.141C276.952 169.141 276.952 169.122 276.952 169.114C276.904 168.885 276.859 168.637 276.822 168.362H276.081C275.578 168.361 275.095 168.559 274.736 168.911C274.664 168.995 274.59 169.077 274.517 169.175C274.891 170.639 275.213 171.895 275.451 172.845V170.283C275.451 170.116 275.517 169.955 275.635 169.837C275.753 169.719 275.914 169.652 276.081 169.652H277.07C277.022 169.497 276.983 169.34 276.952 169.18V169.167ZM276.952 169.167C276.95 169.163 276.949 169.158 276.949 169.154C276.949 169.149 276.95 169.145 276.952 169.141C276.952 169.141 276.952 169.122 276.952 169.114C276.904 168.885 276.859 168.637 276.822 168.362H276.081C275.578 168.361 275.095 168.559 274.736 168.911C274.664 168.995 274.59 169.077 274.517 169.175C274.891 170.639 275.213 171.895 275.451 172.845V170.283C275.451 170.116 275.517 169.955 275.635 169.837C275.753 169.719 275.914 169.652 276.081 169.652H277.07C277.022 169.497 276.983 169.34 276.952 169.18V169.167ZM276.952 169.167C276.95 169.163 276.949 169.158 276.949 169.154C276.949 169.149 276.95 169.145 276.952 169.141C276.952 169.141 276.952 169.122 276.952 169.114C276.904 168.885 276.859 168.637 276.822 168.362H276.081C275.578 168.361 275.095 168.559 274.736 168.911C274.664 168.995 274.59 169.077 274.517 169.175C274.891 170.639 275.213 171.895 275.451 172.845V170.283C275.451 170.116 275.517 169.955 275.635 169.837C275.753 169.719 275.914 169.652 276.081 169.652H277.07C277.022 169.497 276.983 169.34 276.952 169.18V169.167ZM276.952 169.167C276.95 169.163 276.949 169.158 276.949 169.154C276.949 169.149 276.95 169.145 276.952 169.141C276.952 169.141 276.952 169.122 276.952 169.114C276.904 168.885 276.859 168.637 276.822 168.362H276.081C275.578 168.361 275.095 168.559 274.736 168.911C274.664 168.995 274.59 169.077 274.517 169.175C274.891 170.639 275.213 171.895 275.451 172.845V170.283C275.451 170.116 275.517 169.955 275.635 169.837C275.753 169.719 275.914 169.652 276.081 169.652H277.07C277.022 169.497 276.983 169.34 276.952 169.18V169.167ZM276.952 169.167C276.95 169.163 276.949 169.158 276.949 169.154C276.949 169.149 276.95 169.145 276.952 169.141C276.952 169.141 276.952 169.122 276.952 169.114C276.904 168.885 276.859 168.637 276.822 168.362H276.081C275.578 168.361 275.095 168.559 274.736 168.911C274.664 168.995 274.59 169.077 274.517 169.175C274.891 170.639 275.213 171.895 275.451 172.845V170.283C275.451 170.116 275.517 169.955 275.635 169.837C275.753 169.719 275.914 169.652 276.081 169.652H277.07C277.022 169.497 276.983 169.34 276.952 169.18V169.167ZM276.952 169.167C276.95 169.163 276.949 169.158 276.949 169.154C276.949 169.149 276.95 169.145 276.952 169.141C276.952 169.141 276.952 169.122 276.952 169.114C276.904 168.885 276.859 168.637 276.822 168.362H276.081C275.578 168.361 275.095 168.559 274.736 168.911C274.664 168.995 274.59 169.077 274.517 169.175C274.891 170.639 275.213 171.895 275.451 172.845V170.283C275.451 170.116 275.517 169.955 275.635 169.837C275.753 169.719 275.914 169.652 276.081 169.652H277.07C277.022 169.497 276.983 169.34 276.952 169.18V169.167Z" fill="#0E1E2B"/>
<path d="M300.704 175.902H261.79V203.783H300.704V175.902Z" fill="#54281A"/>
<path d="M264.658 101.338C264.658 101.338 262.724 101.338 261.874 107.284C261.025 113.231 262.634 115.727 262.827 118.217C263.019 120.708 265.929 136.717 266.008 137.424C266.088 138.131 266.475 146.657 267.61 148.918C268.744 151.179 277.084 164.004 277.197 164.642C277.311 165.281 281.247 162.41 281.247 162.41C281.247 162.41 274.694 148.692 274.314 147.13C273.934 145.568 271.298 137.574 271.715 135.136C272.132 132.698 270.546 119.241 270.699 117.745C270.852 116.249 268.478 102.248 264.658 101.338Z" fill="#EEA886"/>
<path d="M264.718 101.295C264.718 101.295 262.724 101.324 261.874 107.284C261.025 113.244 261.792 115.392 262.307 117.974C262.792 120.415 264.446 135.339 264.523 136.049C264.599 136.759 266.581 145.755 267.61 148.918C268.401 151.327 275.83 163.927 275.941 164.566C276.052 165.204 281.722 161.622 281.722 161.622C281.722 161.622 274.451 147.438 274.071 145.871C273.691 144.304 272.461 138.89 272.422 136.416C272.374 133.514 270.546 119.241 270.699 117.745C270.852 116.249 270.28 103.335 264.718 101.295Z" fill="#E64646"/>
<path d="M271.588 236.181C272.055 237.211 272.637 238.185 273.324 239.083C274.155 240.167 276.754 244.623 277.883 244.937C279.012 245.251 282.545 245.869 282.856 247.839C283.168 249.81 283.323 251.206 279.851 251.362C276.379 251.517 274.1 251.723 272.443 249.288C270.786 246.853 268.143 245.093 268.143 245.093V251.446H266.797C266.797 251.446 266.175 244.834 265.813 244.368C265.452 243.901 264.518 238.827 267.729 236.189C270.939 233.551 271.588 236.181 271.588 236.181Z" fill="#EDDAD3"/>
<path d="M259.236 157.825C259.236 159.012 258.658 161.595 257.79 164.843C257.305 159.646 256.555 154.219 255.74 148.921C255.547 147.621 255.348 146.331 255.144 145.051C255.081 144.684 255.025 144.328 254.97 143.961C254.825 143.064 254.688 142.167 254.542 141.289C255.007 141.882 255.423 142.512 255.785 143.172C256.107 143.776 256.408 144.418 256.682 145.085C257.187 146.336 257.605 147.621 257.935 148.929C258.869 152.525 259.236 156.113 259.236 157.825Z" fill="#EEA886"/>
<path d="M277.875 182.888C277.875 186.64 276.485 192.65 276.485 192.65L275.232 203.775L271.588 236.17H267.739C267.737 236.13 267.73 236.091 267.72 236.052C267.546 234.165 265.285 210.558 264.919 205.635C264.878 205.016 264.878 204.395 264.919 203.775C265.211 198.763 267.625 192.328 266.94 190.4C266.702 189.74 265.475 187.012 263.884 183.516C263.235 182.108 262.531 180.572 261.808 178.987C260.618 176.425 259.381 173.755 258.265 171.357C258.173 169.246 258.02 167.056 257.809 164.832C257.323 159.635 256.574 154.208 255.759 148.911C255.565 147.611 255.366 146.321 255.162 145.04C255.099 144.674 255.044 144.317 254.988 143.951C255.237 143.664 255.51 143.4 255.803 143.159C257.772 141.56 260.864 141.009 265.605 142.336C265.717 142.358 265.827 142.389 265.934 142.428C266.098 142.473 266.264 142.521 266.428 142.576C266.721 142.666 267.024 142.766 267.335 142.877C267.472 142.914 267.599 142.969 267.747 143.014C267.747 143.014 268.103 144.386 268.678 146.565C268.678 146.565 268.697 146.621 268.726 146.729C268.755 146.837 268.778 146.932 268.815 147.069C269.063 148.048 269.343 149.164 269.667 150.38C269.95 151.451 270.243 152.586 270.554 153.775C270.702 154.353 270.857 154.939 271.013 155.525C272.24 160.239 273.564 165.352 274.517 169.122C274.891 170.586 275.213 171.842 275.45 172.792C275.606 173.451 275.733 173.963 275.807 174.293C275.925 174.821 276.055 175.364 276.181 175.876C276.308 176.388 276.466 176.91 276.603 177.396C276.722 177.826 276.841 178.237 276.952 178.63C276.955 178.645 276.955 178.66 276.952 178.675C277.463 180.498 277.875 181.944 277.875 182.888Z" fill="#EEA886"/>
<path d="M277.883 244.937C277.883 244.937 274.775 245.713 273.582 244.937C272.39 244.162 268.34 237.313 266.987 236.901C266.987 236.901 268.287 234.263 271.577 236.181C271.588 236.181 277.002 243.798 277.883 244.937Z" fill="#EEA886"/>
<path d="M276.941 178.704C276.704 178.833 272.256 181.385 263.874 183.516C263.206 183.69 262.51 183.865 261.798 184.02C260.478 184.332 259.078 184.618 257.595 184.88C258.328 180.999 258.473 176.369 258.254 171.357C258.162 169.246 258.009 167.056 257.798 164.832C257.313 159.635 256.563 154.208 255.748 148.91C255.555 147.611 255.356 146.321 255.152 145.04C255.68 145.04 256.178 145.056 256.69 145.075C259.561 145.226 262.423 145.523 265.264 145.964C265.86 146.064 266.399 146.146 266.847 146.227H266.881C266.984 146.256 267.085 146.264 267.174 146.283C268.108 146.449 268.657 146.568 268.657 146.568C268.657 146.568 268.675 146.623 268.705 146.731C268.734 146.839 268.757 146.934 268.794 147.072C268.979 147.692 269.298 148.837 269.72 150.338C270.032 151.454 270.396 152.752 270.776 154.19C270.95 154.812 271.124 155.464 271.303 156.131V156.15C272.382 160.128 273.638 164.769 274.688 168.877C274.936 169.866 275.184 170.818 275.403 171.731C275.788 173.28 276.118 174.689 276.382 175.887C276.501 176.446 276.601 176.958 276.693 177.406C276.785 177.855 276.857 178.293 276.904 178.641C276.914 178.648 276.923 178.658 276.929 178.669C276.935 178.68 276.939 178.692 276.941 178.704Z" fill="#1D3B54"/>
<path d="M270.702 118.33V118.402C270.391 119.291 270.016 120.196 269.604 121.156C269.364 121.702 269.165 122.266 269.008 122.842C268.185 125.952 269.375 127.535 268.641 131.25C268.589 131.553 268.523 131.873 268.467 132.221L268.359 132.915C268.066 134.761 267.81 137.044 267.599 139.246C267.581 139.51 267.554 139.774 267.536 140.038C267.444 141.027 267.37 141.998 267.317 142.885C267.233 144.238 267.177 145.428 267.177 146.288C267.177 146.628 267.177 146.911 267.196 147.14C267.204 147.213 267.188 147.287 267.151 147.351C267.146 147.368 267.136 147.383 267.124 147.396C266.903 147.763 266.146 148.063 265.014 148.311C263.312 148.676 260.769 148.897 257.93 148.924C257.218 148.942 256.484 148.924 255.735 148.924C255.542 147.624 255.343 146.334 255.139 145.053C255.076 144.687 255.02 144.33 254.965 143.964C254.82 143.067 254.682 142.17 254.537 141.291C254.453 140.763 254.371 140.236 254.289 139.708C253.778 136.479 253.292 133.376 252.899 130.54C252.796 129.817 252.706 129.121 252.614 128.43C252.614 128.393 252.614 128.358 252.614 128.329C252.559 127.873 252.503 127.432 252.448 127.01C252.239 125.208 252.084 123.544 251.991 122.032C251.833 119.645 251.913 117.248 252.229 114.877C252.229 114.777 252.255 114.676 252.274 114.584C252.68 111.957 253.364 109.381 254.316 106.899C254.416 106.606 254.516 106.321 254.616 106.047C254.809 105.519 254.983 105.021 255.144 104.517C255.192 104.39 255.236 104.271 255.273 104.142C255.421 103.712 255.537 103.282 255.666 102.852C256.02 101.586 256.198 100.277 256.194 98.9631C257.088 98.9681 257.981 99.0324 258.867 99.1557C258.867 99.1557 259.415 99.4195 260.186 99.7493C260.209 99.7637 260.234 99.7761 260.26 99.7862C260.524 99.897 260.787 100.024 261.083 100.142C261.302 100.245 261.513 100.335 261.732 100.406L262.143 100.57C262.76 100.834 263.396 101.052 264.046 101.221C264.172 101.252 264.29 101.307 264.394 101.385H264.412C265.125 101.833 266.296 103.097 267.496 104.596C267.963 105.171 268.438 105.794 268.879 106.416C269.976 107.925 270.926 109.426 271.348 110.413C271.393 110.524 271.441 110.635 271.478 110.743C272.166 112.674 271.773 115.265 270.702 118.33Z" fill="#EDDAD3"/>
<path d="M260.088 107.722L262.426 104.986L260.397 97.7813C260.397 97.7813 259.724 101.797 260.088 107.722Z" fill="#D6C5BE"/>
<path d="M260.544 96.2564C260.535 96.26 260.525 96.26 260.515 96.2564C259.454 96.5765 258.316 96.5385 257.278 96.1482C256.717 95.9348 256.178 95.6698 255.666 95.3567C255.666 95.3119 255.64 95.267 255.629 95.2195C255.574 95.0375 255.521 94.8449 255.455 94.6523C255.003 93.2089 254.705 91.7213 254.569 90.2148C254.513 89.6291 254.468 89.0249 254.439 88.4208C254.394 87.3154 254.405 86.1888 254.458 85.0808C254.458 85.0808 254.458 85.0623 254.439 85.0438C254.445 85.0424 254.452 85.0424 254.458 85.0438C254.548 83.2022 254.731 81.3663 255.007 79.5431C255.199 78.224 255.429 76.9734 255.666 75.8495C256.078 73.8181 256.5 72.1903 256.774 71.2379C260.159 70.8817 265.111 71.8236 266.628 79.5932C266.648 79.6653 266.663 79.7384 266.675 79.8122C268.266 88.397 264.781 94.9953 260.544 96.2564Z" fill="#EEA886"/>
<path d="M266.684 79.8148C266.672 79.7411 266.656 79.668 266.636 79.5958C266.325 78.4693 265.053 76.9787 265.053 76.9787C262.5 81.3793 257.22 83.7221 254.456 85.0491C254.546 83.2075 254.729 81.3715 255.004 79.5484C255.197 78.2293 255.426 76.9787 255.664 75.8548C256.075 73.8234 256.498 72.1956 256.772 71.2432C256.909 70.7155 257.009 70.3831 257.036 70.3092C257.329 70.3092 257.64 70.3092 257.951 70.3092C267.087 70.6285 266.684 79.8148 266.684 79.8148Z" fill="#252E3B"/>
<path d="M255.281 78.8439C255.206 79.0859 255.118 79.3236 255.017 79.5562C255.21 78.2371 255.439 76.9866 255.677 75.8627C255.739 76.8727 255.604 77.8851 255.281 78.8439Z" fill="#252E3B"/>
<path d="M260.7 94.713C260.7 94.713 260.637 95.3251 260.544 96.259L260.444 97.2932C260.444 97.4489 260.415 97.6045 260.407 97.7707C260.407 97.7707 260.407 97.7708 260.407 97.7892C260.411 97.8163 260.411 97.8439 260.407 97.871C260.36 98.4751 260.307 99.1163 260.27 99.7653C260.13 101.188 260.078 102.618 260.114 104.047C260.114 104.047 260.077 104.084 260.003 104.15C259.388 104.65 258.627 104.939 257.835 104.973C257.021 104.981 256.223 104.742 255.547 104.287L255.521 104.269C255.442 104.224 255.365 104.175 255.292 104.121C255.439 103.691 255.555 103.261 255.685 102.831C256.039 101.565 256.216 100.256 256.212 98.9421C256.2 97.912 256.068 96.8867 255.819 95.887C255.782 95.7129 255.737 95.5388 255.682 95.3594C255.682 95.3145 255.656 95.2697 255.645 95.2222C255.59 95.0401 255.537 94.8476 255.471 94.655C255.018 93.2115 254.721 91.7239 254.584 90.2174C257.159 91.6922 260.7 94.713 260.7 94.713Z" fill="#EEA886"/>
<path d="M260.096 104.063V107.722L255.498 104.285L260.096 104.063Z" fill="#EEA886"/>
<path d="M260.088 107.725L257.598 106.113L255.136 104.511C255.184 104.385 255.229 104.266 255.266 104.137C255.413 103.707 255.529 103.277 255.659 102.847L257.031 104.211L257.822 104.989L258.189 105.353L260.088 107.725Z" fill="#D6C5BE"/>
<path d="M256.078 120.692C256.078 120.792 256.078 120.9 256.06 121.011C255.841 123.947 255.558 127.287 255.237 130.675C255.21 130.939 255.192 131.203 255.155 131.466C255.091 132.258 255.007 133.02 254.925 133.799C254.725 135.812 254.514 137.806 254.295 139.708C253.783 136.479 253.297 133.376 252.904 130.54C252.801 129.817 252.712 129.121 252.619 128.43C252.619 128.393 252.619 128.358 252.619 128.329C252.564 127.873 252.509 127.432 252.453 127.01C252.245 125.208 252.089 123.544 251.997 122.032C251.839 119.645 251.918 117.248 252.234 114.877C252.234 114.777 252.261 114.677 252.279 114.584C252.685 111.957 253.369 109.381 254.321 106.899C254.421 106.606 254.522 106.321 254.622 106.047C255.052 106.899 255.445 107.749 255.767 108.545C256.153 109.441 256.409 110.387 256.527 111.355C256.601 112.518 256.426 116.088 256.078 120.692Z" fill="#E64646"/>
<path d="M271.828 111.78C271.828 111.78 272.804 115.225 269.01 122.839C269.01 122.839 269.071 132.585 269.177 135.63C269.282 138.674 270.005 150.185 270.005 150.185L266.254 152.382C266.084 152.482 265.889 152.533 265.692 152.528C265.495 152.523 265.303 152.464 265.139 152.355C264.974 152.247 264.843 152.095 264.76 151.916C264.677 151.737 264.646 151.539 264.671 151.343C265.726 142.581 269.19 109.347 261.724 100.425L264.721 101.306C264.721 101.306 270.039 105.651 271.828 111.78Z" fill="#E64646"/>
<path d="M254.439 88.434C254.394 87.3286 254.405 86.202 254.458 85.094C255.099 87.1544 254.925 88.1227 254.439 88.434Z" fill="#EEA886"/>
<path d="M262.434 104.986L265.378 105.799L260.405 97.7813L262.434 104.986Z" fill="#FAE6DE"/>
<path d="M258.183 105.353L257.727 105.949L257.606 106.113L255.759 108.548L255.495 108.886L254.305 106.902C254.405 106.609 254.506 106.324 254.606 106.05C254.799 105.522 254.973 105.023 255.134 104.519C255.181 104.393 255.226 104.274 255.263 104.145C255.411 103.715 255.527 103.285 255.656 102.855L257.028 104.219L257.819 104.997L258.183 105.353Z" fill="#FAE6DE"/>
<path d="M260.544 96.2564L260.444 97.2906L260.407 97.6388C260.407 97.6388 258.56 98.0056 255.804 95.8923C255.767 95.7182 255.722 95.5441 255.666 95.3647C255.666 95.3198 255.64 95.275 255.629 95.2275C257.106 96.0854 258.818 96.4478 260.515 96.2617L260.544 96.2564Z" fill="#A77860"/>
<path d="M276.891 139.455C276.891 139.455 278.756 140.658 279.833 139.983C280.746 139.413 282.339 139.334 282.832 139.307C283.487 139.273 285.471 138.418 285.515 139.247C285.56 140.075 282.326 140.811 281.677 141.093C281.028 141.376 283.882 142.779 284.204 143.447C284.526 144.114 281.949 148.723 280.099 147.528C278.25 146.333 277.055 143.858 276.688 143.713C276.212 143.472 275.751 143.202 275.308 142.906L276.891 139.455Z" fill="#EEA886"/>
<path d="M280.117 141.344L277.601 144.877C277.59 144.867 277.578 144.861 277.564 144.858C277.426 144.784 276.804 144.454 275.862 143.932C275.176 143.557 274.305 143.083 273.327 142.523C273.2 142.46 273.063 142.386 272.944 142.315C271.873 141.719 270.673 141.033 269.419 140.31L267.599 139.255C267.095 138.951 266.583 138.65 266.071 138.339C266.016 138.31 265.961 138.273 265.905 138.239C265.549 138.017 265.182 137.798 264.826 137.579C260.689 135.054 256.774 132.419 255.236 130.68C255.073 130.512 254.926 130.328 254.798 130.131C254.271 129.34 253.442 128.245 252.445 127.018C252.237 125.216 252.081 123.552 251.989 122.04C251.831 119.653 251.91 117.256 252.226 114.885C253.379 116.771 254.825 119.085 256.059 121.016C257.397 123.127 258.484 124.749 258.64 124.85C258.869 124.997 261.138 126.799 263.718 128.95C264.029 129.213 264.351 129.477 264.681 129.741C265.209 130.197 265.736 130.656 266.283 131.105C267.005 131.728 267.71 132.348 268.359 132.915C268.623 133.163 268.886 133.392 269.127 133.611L269.227 133.712C269.393 133.859 269.557 134.004 269.712 134.152C269.823 134.252 269.931 134.353 270.034 134.453C270.555 134.95 271.101 135.42 271.67 135.862C271.918 136.054 272.166 136.247 272.422 136.44C273.912 137.563 275.559 138.635 276.941 139.487C277.023 139.532 277.107 139.587 277.178 139.632C277.582 139.88 277.97 140.109 278.305 140.299C279.395 140.951 280.117 141.344 280.117 141.344Z" fill="#EEA886"/>
<path d="M283.832 143.077C283.832 143.077 289.254 147.079 289.394 147.647C289.534 148.214 289.296 148.499 288.774 148.145C288.251 147.792 283.423 144.431 283.423 144.431C283.423 144.431 289.045 150.235 289.262 150.686C289.386 150.95 288.966 151.514 288.668 151.351C288.37 151.187 282.471 145.745 282.471 145.745C282.471 145.745 287.708 151.182 287.779 151.607C287.783 151.71 287.757 151.812 287.704 151.9C287.651 151.988 287.573 152.059 287.48 152.103C287.387 152.148 287.284 152.165 287.182 152.151C287.079 152.137 286.984 152.094 286.906 152.026C286.489 151.649 281.342 146.879 281.342 146.879C281.342 146.879 284.906 151.076 284.753 151.467C284.661 151.707 284.32 152.219 283.434 151.105C282.547 149.992 280.184 147.591 280.184 147.591L283.832 143.077Z" fill="#EEA886"/>
<path d="M269.902 120.929C269.902 120.929 270.082 133.097 269.341 138.964L269.011 122.839L269.902 120.929Z" fill="#E64646"/>
<path d="M278.672 139.761L278.435 140.117L278.305 140.299L276.195 143.465L275.876 143.94L275.419 144.618C275.419 144.618 274.712 144.225 273.572 143.563C273.472 143.507 273.372 143.444 273.264 143.389C272.248 142.803 270.947 142.051 269.494 141.191C268.871 140.827 268.219 140.442 267.562 140.038C267.095 139.774 266.628 139.481 266.162 139.196L265.879 139.022C265.615 138.848 265.328 138.685 265.053 138.521C260.991 135.994 256.875 133.245 255.189 131.464C255.171 131.435 255.134 131.4 255.07 131.327C254.952 131.197 254.851 131.079 254.759 130.96C254.714 130.897 254.659 130.833 254.603 130.759C254.585 130.741 254.566 130.712 254.54 130.686C254.055 130.044 253.395 129.24 252.646 128.343C252.59 127.886 252.535 127.446 252.48 127.024C252.271 125.222 252.116 123.557 252.023 122.045C251.865 119.658 251.945 117.262 252.261 114.89C252.261 114.79 252.287 114.69 252.305 114.598C253.421 116.428 254.859 118.742 256.112 120.702C257.55 122.953 258.73 124.755 258.896 124.855C259.141 125.011 261.254 126.456 263.671 128.269C263.964 128.498 264.267 128.736 264.579 128.973C265.162 129.422 265.758 129.889 266.333 130.364C267.103 130.997 267.845 131.627 268.502 132.232C268.649 132.358 268.787 132.495 268.924 132.625C268.998 132.688 269.071 132.762 269.143 132.825C269.174 132.858 269.208 132.889 269.243 132.917C269.417 133.081 269.602 133.247 269.771 133.392C270.383 133.941 271.061 134.482 271.757 135.012C271.966 135.178 272.177 135.342 272.396 135.498C275.459 137.793 278.672 139.761 278.672 139.761Z" fill="#E64646"/>
<path d="M283.471 169.399C283.471 169.399 282.774 166.69 281.904 166.286C281.033 165.882 281.228 166.872 281.228 166.872C281.228 166.872 281.052 165.89 280.242 165.946C279.432 166.001 279.714 167.149 279.714 167.149C279.667 167.05 279.6 166.963 279.519 166.891C279.437 166.819 279.341 166.764 279.238 166.73C279.134 166.696 279.025 166.683 278.916 166.693C278.808 166.702 278.702 166.733 278.606 166.785C277.838 167.13 278.3 168.027 278.3 168.027C278.3 168.027 277.26 167.286 277.012 168.291C276.59 169.995 277.822 171.615 277.822 171.615C277.822 171.615 278.263 172 278.981 171.615C278.981 171.615 279.825 172.549 280.769 171.526C280.769 171.526 282.165 171.913 282.299 170.763C282.31 170.768 283.859 170.95 283.471 169.399Z" fill="#DB9C7C"/>
<path d="M255.162 131.469C255.162 131.469 254.999 133.437 254.925 133.793L252.904 130.546C252.801 129.823 252.711 129.126 252.619 128.435C253.379 129.332 254.046 130.129 254.387 130.546L254.505 130.691C254.532 130.717 254.55 130.746 254.569 130.765C254.817 131.057 254.954 131.232 255.036 131.332C255.118 131.432 255.136 131.44 255.155 131.469H255.162Z" fill="#9C2F2F"/>
<path d="M254.458 85.0949C254.458 85.0949 254.458 85.076 254.439 85.0571C254.446 85.0556 254.452 85.0556 254.458 85.0571V85.0949Z" fill="#6BB0FF"/>
<path d="M179.186 240.853C179.186 240.853 183.882 248.536 185.866 249.792C188.557 251.496 186.871 253.221 185.602 253.221C184.333 253.221 177.798 253.673 176.368 252.097C174.938 250.522 174.218 245.797 172.881 244.563C171.543 243.328 170.316 238.759 173.532 237.226C177.033 235.529 179.186 240.853 179.186 240.853Z" fill="#E55353"/>
<path d="M177.426 236.822C177.426 236.822 182.531 246.473 183.46 247.8C184.389 249.127 181.714 249.119 180.057 248.496C178.4 247.874 174.105 241.465 173.638 240.236C173.171 239.007 173.511 237.226 173.511 237.226L177.426 236.822Z" fill="#3B3B40"/>
<path d="M171.704 242.315L172.947 251.541L173.604 251.57L173.398 244.932L171.704 242.315Z" fill="#E55353"/>
<path d="M138.921 233.358C138.921 233.358 140.048 242.215 141.346 244.13C143.108 246.731 140.85 247.66 139.676 247.169C138.502 246.679 132.334 244.573 131.666 242.573C130.999 240.574 132.299 235.978 131.584 234.321C130.869 232.664 131.632 228.023 135.217 227.844C139.151 227.641 138.921 233.358 138.921 233.358Z" fill="#E55353"/>
<path d="M138.974 228.986C138.974 228.986 139.663 239.803 139.963 241.386C140.264 242.969 137.813 241.93 136.555 240.711C135.296 239.492 134.009 231.97 134.091 230.662C134.172 229.353 135.217 227.852 135.217 227.852L138.974 228.986Z" fill="#3B3B40"/>
<path d="M131.458 231.815L128.777 240.75L129.368 241.03L131.927 234.867L131.458 231.815Z" fill="#E55353"/>
<path d="M178.432 154.657C178.281 153.942 172.606 143.331 171.572 140.146C170.538 136.962 169.67 134.023 169.156 132.759C169.121 132.677 169.069 132.53 168.995 132.337C168.646 131.398 167.892 129.3 167.111 127.343C167.056 127.206 167 127.079 166.947 126.934L166.866 126.187C166.317 124.831 166.866 124.05 166.866 122.969C166.869 122.602 166.808 122.238 166.686 121.892L166.67 121.847C166.027 120.027 165.541 118.439 165.446 117.544C165.13 114.579 163.47 101.38 163.47 101.38C163.47 101.38 168.847 104.066 169.443 106.129C170.351 109.276 171.274 113.959 171.504 115.397C171.733 116.835 174.071 128.823 174.559 131.261C175.047 133.698 175.614 135.764 176.305 137.376C176.997 138.988 181.677 153.359 181.967 154.646C182.257 155.934 178.585 155.374 178.432 154.657Z" fill="#EEA886"/>
<path d="M178.36 153.153C178.282 154.305 178.127 155.451 177.896 156.582C177.717 157.437 178.458 162.751 178.606 163.442C178.73 164.012 179.067 163.608 179.205 163.199C179.284 162.964 179.331 161.089 179.516 160.054C179.672 159.192 179.875 158.846 180.067 159.086C180.26 159.326 181.123 162.682 181.033 164.183C180.943 165.684 181.861 168.977 182.571 168.367C183.281 167.758 184.104 161.418 183.563 159.163C183.022 156.907 181.69 154.19 181.69 154.19L178.36 153.153Z" fill="#EEA886"/>
<path d="M158.516 166.117C158.75 167.207 160.246 171.771 161.922 176.844C163.452 181.469 165.13 186.513 166.143 189.732C166.517 190.932 166.8 191.88 166.934 192.455C167.9 196.267 166.816 202.245 166.465 207.229C166.114 212.213 173.628 240.223 173.628 240.223C174.947 240.814 177.416 236.809 177.416 236.809C176.45 235.031 176.585 203.454 177.113 201.507C177.64 199.56 177.989 194.138 177.464 192.009C177.345 191.45 177.287 190.881 177.289 190.31C177.245 187.637 177.817 183.218 178.165 178.374C178.603 172.275 176.147 157.115 175.791 155.762C175.759 155.635 175.706 155.461 175.643 155.234C174.997 153.108 172.915 147.072 172.915 147.072C168.694 145.861 165.528 145.642 163.154 146.109C160.014 146.726 158.286 148.544 157.423 150.858C155.368 156.408 158.22 164.703 158.516 166.117Z" fill="#3B3B40"/>
<path d="M134.771 228.596L139.045 230.044C139.771 226.66 157.123 202.958 158.181 200.332C159.239 197.707 160.368 192.626 160.368 190.764C160.368 190.431 160.394 189.869 160.442 189.141C160.729 185.019 161.227 180.915 161.932 176.844C162.077 176.071 162.228 175.338 162.386 174.67C163.236 171.095 163.383 158.88 163.394 151.696C163.394 148.499 163.375 146.299 163.375 146.299L163.164 146.143C161.566 144.974 151.292 137.848 147.725 144.51C146.797 146.272 146.144 148.167 145.789 150.127C144.641 156.163 145.768 162.962 146.694 169.156C147.485 174.457 149.002 181.944 149.44 187.503C149.68 190.56 149.593 193.043 148.876 194.236C146.857 197.623 144.887 200.491 140.805 212.439C139.475 216.331 134.771 228.596 134.771 228.596Z" fill="#3B3B40"/>
<path d="M165.903 84.648C165.903 84.648 168.135 70.7102 156.178 70.9687C144.221 71.2273 144.38 78.1157 144.593 84.9514C144.807 91.7871 149.387 91.2832 144.221 100.781C139.056 110.279 148.707 110.294 148.707 110.294L156.189 100.369L165.903 84.648Z" fill="#3C4145"/>
<path d="M157.476 72.2932C157.476 72.2932 165.576 73.5279 165.895 84.6375C166.214 95.7472 163.71 98.1111 156.624 95.7973C149.538 93.4836 147.303 81.8595 147.142 80.0602C146.981 78.2609 146.556 70.9582 157.476 72.2932Z" fill="#EEA886"/>
<path d="M143.259 110.933C143.227 114.758 147.781 123.9 148.482 126.723C149.184 129.546 150.295 130.451 149.361 134.062C148.427 137.674 145.522 149.892 145.641 150.974C145.76 152.055 171.739 156.002 175.659 155.269C175.659 155.269 170.868 138.012 170.517 136.036C170.166 134.06 170.944 126.652 171.119 124.562C171.293 122.473 173.493 117.966 173.411 115.882C173.329 113.798 172.25 111.909 170.733 109.63C170.261 108.923 169.768 108.205 169.274 107.503C167.665 105.226 166.058 103.155 165.27 102.443C164.765 101.988 164.226 101.572 163.658 101.2C163.141 100.852 162.584 100.567 161.998 100.354L155.038 99.2824C155.038 99.2824 150.701 100.797 148.205 101.361C148.2 101.361 143.33 102.06 143.259 110.933Z" fill="white"/>
<path d="M163.652 101.2L167.686 107.337L171.409 113.001C171.409 112.97 171.145 112.112 170.733 109.63C170.652 109.157 170.567 108.627 170.47 108.047C170.443 107.868 170.404 107.692 170.353 107.519C168.771 103.973 163.832 101.298 163.652 101.208V101.2Z" fill="white"/>
<path d="M143.493 107.704C143.493 107.704 144.612 100.422 150.136 101.622C155.447 102.775 150.472 112.321 150.081 113.452C149.691 114.584 145.757 123.813 145.417 125.024C144.338 128.847 145.348 128.939 146.971 129.839C151.762 132.503 161.608 132.326 162.745 133.06C163.882 133.793 163.813 136.07 161.906 136.149C159.423 136.252 145.237 134.962 143.259 134.775C141.341 134.595 137.518 134.44 138.51 127.855C139.196 123.43 143.493 107.704 143.493 107.704Z" fill="#EEA886"/>
<path d="M152.07 90.7926C152.772 92.0722 153.513 100.027 153.513 100.027C153.513 100.027 163.417 103.641 162.402 101.609C161.943 100.681 161.808 99.4777 161.797 98.4436C161.794 97.7981 161.831 97.1531 161.908 96.5123C161.935 96.3039 161.953 96.1852 161.953 96.1852C161.953 96.1852 151.369 89.5131 152.07 90.7926Z" fill="#EEA886"/>
<path d="M160.779 80.266C160.779 80.266 156.624 86.7983 152.843 89.368C149.063 91.9376 150.978 93.9981 150.978 93.9981C150.978 93.9981 141.108 73.9474 150.493 72.5518C159.877 71.1562 165.639 71.0612 165.903 84.6481C165.903 84.6481 161.631 80.1631 160.779 80.266Z" fill="#3C4145"/>
<path d="M156.262 95.6681C157.782 97.8341 161.803 98.4171 161.803 98.4171C161.799 97.7717 161.836 97.1267 161.914 96.4859C159.328 96.9661 156.262 95.6681 156.262 95.6681Z" fill="#A77860"/>
<path d="M170.34 107.469C170.34 107.469 170.557 107.899 170.733 109.63L169.274 107.503C169.274 107.503 166.668 103.897 165.776 102.96C165.129 102.309 164.422 101.72 163.666 101.2C163.666 101.2 168.784 103.58 170.34 107.469Z" fill="white"/>
<path d="M168.765 115.252L153.157 114.006C152.846 113.976 152.534 114.07 152.291 114.267C152.048 114.465 151.893 114.75 151.859 115.062L149.923 140.051C149.904 140.358 150.007 140.659 150.208 140.891C150.409 141.122 150.693 141.266 150.999 141.291L165.984 142.779C166.297 142.815 166.611 142.726 166.858 142.531C167.105 142.336 167.265 142.052 167.303 141.74L169.863 116.539C169.878 116.382 169.861 116.223 169.814 116.073C169.766 115.922 169.689 115.783 169.587 115.663C169.484 115.543 169.359 115.444 169.218 115.374C169.077 115.303 168.923 115.262 168.765 115.252Z" fill="#2F4563"/>
<path d="M154.031 132.044C154.031 132.044 156.988 132.522 157.262 132.479C157.537 132.437 158.708 130.588 160.062 130.255C161.415 129.923 163.109 129.667 163.526 129.416C163.942 129.166 164.053 130.448 162.758 130.97C161.463 131.493 161.13 132.197 163.565 132.669C164.913 132.933 169.95 132.387 169.533 133.197C169.288 133.68 164.433 134.025 164.433 134.025C164.433 134.025 169.67 134.002 169.849 134.308C170.2 134.909 164.945 135.123 164.726 135.099C164.726 135.099 169.229 135.363 169.266 135.74C169.317 136.223 164.758 136.004 164.8 136.097C164.8 136.097 168.377 136.334 168.34 136.624C168.296 137.009 165.145 137.057 164.536 136.988C163.927 136.92 157.756 136.242 156.722 136.044C155.687 135.846 153.938 135.727 153.938 135.727L154.031 132.044Z" fill="#EEA886"/>
<path d="M148.385 130.496C150.239 131.112 152.124 131.629 154.033 132.044C156.751 132.598 153.941 135.738 153.941 135.738C153.941 135.738 149.232 135.316 146.968 135.102C145.87 135.007 148.385 130.496 148.385 130.496Z" fill="#EEA886"/>
<path d="M150.633 112.846C150.633 112.846 144.277 110.44 142.396 110.3C142.396 110.3 143.676 100.446 149.918 101.491C156.16 102.535 150.633 112.846 150.633 112.846Z" fill="white"/>
<path d="M146.691 169.156C147.482 174.457 148.999 181.944 149.437 187.503C149.437 187.503 153.922 188.365 160.439 189.141C162.206 189.349 164.132 189.553 166.143 189.732C169.641 190.041 173.443 190.26 177.3 190.334C177.255 187.661 177.828 183.242 178.176 178.398C178.614 172.298 176.158 157.139 175.801 155.786C175.77 155.659 175.717 155.485 175.654 155.258C172.488 153.583 167.968 152.448 163.386 151.686C161.373 151.351 159.349 151.087 157.426 150.879C151.416 150.227 146.398 150.127 145.781 150.116C144.638 156.163 145.765 162.962 146.691 169.156Z" fill="white"/>
<path d="M161.993 100.354C161.993 100.354 166.66 107.282 165.08 107.886C163.499 108.49 154.949 107.079 151.313 100.499C151.313 100.499 156.751 97.8078 161.993 100.354Z" fill="#EEA886"/>
<path d="M437.576 72.3196C440.568 73.5173 438.861 79.6829 439.159 90.9166C439.457 102.15 447.731 104.19 447.731 104.19C447.731 104.19 444.085 99.8866 443.343 95.9477C442.602 92.0088 450.783 82.0573 447.208 74.2455C444.446 68.2092 437.204 72.0927 437.204 72.0927L437.576 72.3196Z" fill="#754836"/>
<path d="M389.969 132.448C389.969 132.448 391.441 131.939 392.309 132.1C393.177 132.261 390.668 127.789 390.668 127.789L389.969 132.448Z" fill="#EEA886"/>
<path d="M390.681 127.789C390.681 127.789 388.365 125.752 388 125.451C387.636 125.15 386.325 125.024 384.808 125.005C383.291 124.987 381.233 125.646 381.088 125.863C380.952 125.997 380.847 126.159 380.78 126.338C380.713 126.518 380.686 126.709 380.7 126.9C380.72 127.337 380.852 127.762 381.083 128.134C381.083 128.134 380.703 128.968 381.22 129.625C381.133 129.878 381.124 130.151 381.192 130.41C381.261 130.669 381.405 130.901 381.605 131.079C381.605 131.079 381.315 131.87 381.869 132.297C382.472 132.352 383.069 132.458 383.653 132.617C384.125 132.807 386.874 132.88 389.523 132.569C389.51 132.569 392.449 132.326 390.681 127.789Z" fill="#EEA886"/>
<path d="M386.196 128.411C386.196 128.411 386.787 129.844 387.156 130.163C387.526 130.482 384.808 132.274 384.808 132.274C384.808 132.274 384.468 129.176 386.196 128.411Z" fill="#CF8C6C"/>
<path d="M381.474 125.85C381.474 125.85 385.318 125.987 385.37 126.609C385.398 126.77 385.384 126.936 385.331 127.09C385.278 127.244 385.187 127.383 385.067 127.493L386.624 128.266C386.624 128.266 387.365 129.361 385.959 129.849C385.959 129.849 386.75 130.799 385.339 131.108C385.339 131.108 385.587 131.97 384.956 132.229C384.326 132.487 381.856 132.297 381.856 132.297C381.856 132.297 381.352 132.034 381.592 131.079C381.388 130.904 381.241 130.672 381.172 130.412C381.104 130.152 381.116 129.878 381.207 129.625C381.207 129.625 380.706 129.068 381.07 128.134C381.07 128.134 380.054 126.815 381.07 125.863C381.075 125.863 381.31 125.844 381.474 125.85Z" fill="#DB9C7C"/>
<path d="M385.384 126.572C385.384 126.572 384.751 122.998 384.948 121.436C384.993 121.082 384.98 120.95 385.326 120.858C385.671 120.766 386.244 121.992 386.626 123.071C387.009 124.151 388.025 125.485 388.025 125.485C388.025 125.485 388.059 126.596 385.384 126.572Z" fill="#EEA886"/>
<path d="M444.815 242.415C444.815 242.415 440.671 248.483 439.222 249.763C439.222 249.763 436.32 251.264 436.241 252.464C436.072 254.73 435.869 256.844 439.671 256.949C443.472 257.055 445.939 256.158 446.636 253.855C447.332 251.551 448.992 249.567 448.992 249.567V254.39H449.849C449.849 254.39 450.065 249.728 450.113 248.871C450.16 248.013 450.728 244.716 448.92 243.257C447.113 241.798 444.815 242.415 444.815 242.415Z" fill="#162D40"/>
<path d="M438.671 250.079C440.154 250.425 441.697 250.412 443.174 250.042C445.623 249.428 447.971 243.571 448.686 243.083L449.319 240.708H444.549C444.497 241.833 444.222 242.936 443.739 243.953C442.969 245.462 438.671 250.079 438.671 250.079Z" fill="#EEA886"/>
<path d="M417.902 240.157C417.421 241.222 416.819 242.228 416.108 243.156C415.248 244.28 412.571 248.892 411.391 249.224C410.212 249.557 406.568 250.187 406.247 252.224C405.925 254.261 405.764 255.707 409.354 255.868C412.945 256.028 415.304 256.245 417.005 253.725C418.707 251.206 421.453 249.385 421.453 249.385V255.955H422.868C422.868 255.955 423.511 249.116 423.886 248.633C424.261 248.151 425.226 242.901 421.902 240.167C418.578 237.434 417.902 240.157 417.902 240.157Z" fill="#162D40"/>
<path d="M411.392 249.214C411.392 249.214 414.608 250.005 415.84 249.214C417.072 248.423 421.264 241.328 422.652 240.904C422.652 240.904 421.306 238.173 417.903 240.157C417.903 240.157 412.315 248.035 411.392 249.214Z" fill="#EEA886"/>
<path d="M446.638 141.742C446.638 141.742 451.173 147.636 452.403 154.63C453.632 161.624 451.677 185.094 451.73 188.55C451.783 192.006 454.933 203.031 454.289 209.543C453.645 216.054 450.126 242.961 450.126 242.961L442.272 242.821C442.272 242.821 443.855 213.495 443.443 210.761C443.032 208.028 441.763 196.401 441.596 195.278C441.43 194.154 432.647 164.392 432.647 159.35C432.647 154.308 435.708 133.516 446.638 141.742Z" fill="#1D3B54"/>
<path d="M423.865 144.046C423.865 144.046 416.414 172.475 415.531 176.414C414.647 180.353 412.892 185.498 412.958 186.221C413.024 186.943 413.898 199.082 413.898 199.082L416.008 240.397H423.86C423.86 240.397 426.379 214.112 426.78 208.807C427.181 203.501 423.878 195.304 424.691 193.054C425.503 190.803 437.618 164.824 437.618 164.824C437.618 164.824 446.828 135.793 423.865 144.046Z" fill="#1D3B54"/>
<path d="M425.96 101.425C425.96 101.425 421.356 101.971 419.412 104.635C417.467 107.3 416.826 111.371 416.396 112.719C415.966 114.067 410.001 126.773 409.608 127.09C409.215 127.406 403.769 127.192 400.495 127.287C395.897 127.417 390.42 127.303 390.42 127.303L391.087 133.899C391.087 133.899 412.956 134.411 414.468 132.696C417.805 128.905 425.337 115.698 425.337 115.698C425.337 115.698 433.191 104.976 425.96 101.425Z" fill="#285173"/>
<path d="M431.368 99.4064C431.368 99.4064 427.508 101.229 426.168 101.496C424.828 101.762 419.63 108.516 418.72 110.994C417.81 113.471 418.72 117.154 420.596 121.496C422.472 125.839 420.702 127.282 421.559 131.625C422.416 135.967 423.168 145.156 423.007 147.568C422.846 149.979 444.681 150.433 449.654 146.04C449.654 146.04 444.641 138.537 444 137.466C443.359 136.395 443.894 130.554 444.483 129.052C445.071 127.551 451.239 115.479 451.239 115.479C451.239 115.479 452.205 104.992 449.305 102.741C446.786 100.784 439.924 100.087 438.689 99.6571C437.454 99.2271 433.885 99.0318 431.368 99.4064Z" fill="#EDDAD3"/>
<path d="M430.134 108.007L427.791 105.263L429.825 98.0345C429.825 98.0345 430.519 102.06 430.134 108.007Z" fill="#D6C5BE"/>
<path d="M429.527 94.9557C429.527 94.9557 430.295 102.031 430.134 104.337C430.134 104.337 434.144 108.355 438.703 99.6465C438.703 99.6465 436.785 96.0585 438.23 91.1672C439.676 86.2759 429.527 94.9557 429.527 94.9557Z" fill="#EEA886"/>
<path d="M430.133 104.337V108.007L434.748 104.559L430.133 104.337Z" fill="#EEA886"/>
<path d="M430.133 108.007L432.051 105.638L438.504 99.2059L440.591 101.216L430.133 108.007Z" fill="#D6C5BE"/>
<path d="M437.558 151.029C439.375 159.735 452.516 150.048 452.516 150.048C452.516 150.048 443.99 135.73 447.38 124.282L447.459 124.019C447.677 123.296 447.893 122.607 448.108 121.953C451.221 112.487 454.015 110.276 454.015 110.276C454.015 110.276 450.058 101.586 446.398 101.024C442.739 100.462 439.399 99.8286 439.399 99.8286C439.399 99.8286 433.983 108.047 433.727 111.664C433.471 115.281 435.737 142.331 437.558 151.029Z" fill="#285173"/>
<path d="M417.9 111.994C417.9 111.994 418.773 120.198 420.435 124.272C420.435 124.272 421.132 132.954 421.024 136.007C420.915 139.059 420.195 150.61 420.195 150.61L423.957 152.815C424.128 152.916 424.325 152.967 424.523 152.962C424.722 152.957 424.915 152.896 425.081 152.785C425.246 152.675 425.377 152.52 425.458 152.339C425.54 152.157 425.568 151.957 425.54 151.76C424.485 142.969 421.008 109.627 428.498 100.665L425.49 101.551C425.49 101.551 419.314 107.337 417.9 111.994Z" fill="#285173"/>
<path d="M427.791 105.263L424.836 106.079L429.825 98.0345L427.791 105.263Z" fill="#FAE6DE"/>
<path d="M432.052 105.638L434.748 109.173L440.265 99.9815L438.505 99.2059L432.052 105.638Z" fill="#FAE6DE"/>
<path d="M419.084 125.277C419.084 125.277 417.338 119.753 418.364 115.848C418.364 115.848 418.224 119.294 420.287 123.842L419.084 125.277Z" fill="#1D3B54"/>
<path d="M432.316 72.1085C429.49 71.8447 423.148 72.9633 421.823 80.4189C421.91 81.646 422.093 82.8643 422.372 84.0624C422.786 85.6743 421.143 90.2913 421.501 90.5393C421.86 90.7872 423.382 91.1566 423.382 91.1566C423.382 91.1566 424.791 96.3513 426.591 96.3909C428.39 96.4305 435.257 95.3514 438.761 89.1357C442.264 82.92 443.71 73.2007 432.316 72.1085Z" fill="#EEA886"/>
<path d="M421.813 80.4269C421.813 80.4269 426.261 83.7748 430.783 84.6243C435.305 85.4738 437.761 93.349 437.761 93.349C437.761 93.349 445.37 81.9201 440.093 74.6174C434.817 67.3148 421.245 71.6362 421.813 80.4269Z" fill="#754836"/>
<path d="M432.706 84.4951C432.772 83.6139 433.817 82.337 435.207 83.6113C436.597 84.8855 434.452 88.9907 433.286 88.5211C432.12 88.0515 432.629 85.4053 432.706 84.4951Z" fill="#EEA886"/>
<path d="M429.516 95.9767C429.619 96.5281 429.722 97.1719 429.809 97.8526C432.045 96.6024 434.017 94.9285 435.613 92.9243C433.402 94.7315 429.516 95.9767 429.516 95.9767Z" fill="#A77860"/>
<path d="M426.021 133.442L442.014 161.144L459.793 150.881L444.494 122.779L426.021 133.442Z" fill="#E8734D"/>
<path d="M433.948 151.841C434.306 151.849 434.662 151.798 435.004 151.691C435.004 151.691 435.563 151.367 435.975 151.163C436.08 151.108 436.188 151.059 436.299 151.016C436.93 150.863 437.532 150.609 438.082 150.264C438.787 149.773 441.293 146.874 441.293 146.874L440.109 145.074L439.243 143.228C439.243 143.228 433.983 143.568 433.273 143.948C433.205 143.984 433.139 144.023 433.075 144.067C432.505 144.449 432.241 144.972 431.962 145.206C431.861 145.291 430.906 146.219 430.946 146.615C430.95 146.835 431.009 147.05 431.119 147.24C431.229 147.43 431.386 147.589 431.574 147.702C431.574 147.702 431.711 148.773 432.239 149.285C432.239 149.285 432.331 150.277 433.165 150.71C433.157 150.702 433.365 151.696 433.948 151.841Z" fill="#EEA886"/>
<path d="M444.34 100.871C444.34 100.871 449.646 100.198 452.427 105.548C455.207 110.899 455.197 113.183 455.569 115.798C455.92 118.265 457.505 125.003 457.679 125.696C457.853 126.39 461.431 134.69 459.79 137.59C458.149 140.489 441.322 149.082 441.43 149.726C441.539 150.369 438.528 143.238 438.528 143.238C438.528 143.238 445.33 139.447 446.443 138.281C448.253 136.384 452.07 134.342 451.287 131.989C450.363 129.226 447.593 119.903 446.955 118.534C446.316 117.164 440.246 102.612 444.34 100.871Z" fill="#285173"/>
<path d="M444.797 112.949C444.992 118.09 447.459 124.011 447.459 124.011C447.677 123.288 447.893 122.599 448.108 121.945C446.72 118.061 444.797 112.949 444.797 112.949Z" fill="#1D3B54"/>
<path d="M241.62 0C160.819 0 95.3164 65.5023 95.3164 146.304C95.3164 227.105 160.806 292.608 241.62 292.608C322.435 292.608 387.914 227.113 387.914 146.304C387.914 65.4944 322.411 0 241.62 0ZM241.62 268.157C174.324 268.157 119.77 213.6 119.77 146.304C119.77 79.0075 174.311 24.4513 241.62 24.4513C308.93 24.4513 363.473 79.0075 363.473 146.304C363.473 213.6 308.896 268.157 241.62 268.157Z" fill="#3F444F"/>
<path d="M67.9815 160.289C67.6729 161.62 67.2789 162.93 66.8022 164.21C66.4354 165.173 66.2534 171.507 66.2903 172.328C66.322 173.014 66.7784 172.607 67.0106 172.153C67.1425 171.89 67.5593 169.705 67.963 168.542C68.3033 167.563 68.5962 167.199 68.7703 167.515C68.9444 167.832 69.2557 171.903 68.8811 173.641C68.5065 175.38 68.8969 179.388 69.8124 178.807C70.7279 178.227 72.8701 170.982 72.6907 168.254C72.5113 165.526 71.5352 162.104 71.5352 162.104L67.9815 160.289Z" fill="#EEA886"/>
<path d="M68.8415 163.956C68.8415 163.956 65.8524 144.096 65.061 140.323C64.7022 138.611 63.7154 134.361 63.0902 130.868C62.8818 129.717 62.7103 128.53 62.5625 127.372C61.9742 122.739 61.8238 118.515 61.8238 118.515C61.8238 118.515 59.2331 106.643 66.723 105.915C66.723 105.915 68.7307 106.54 68.8336 107.363C69.2874 110.529 70.3216 117.389 70.3638 119.019C70.4008 120.338 72.3372 133.656 72.3663 134.128C72.4217 135.041 72.8702 141.209 73.0522 143.919C73.4796 150.251 73.6405 164.384 73.6405 164.384L68.8415 163.956Z" fill="#323657"/>
<path d="M71.2293 248.61C71.2293 248.61 74.1313 251.839 77.0545 252.514C79.9777 253.19 82.0434 254.052 82.0672 255.905C82.0909 257.757 73.6248 258.978 70.2636 257.11C65.251 254.324 64.7392 255.163 64.1957 253.77C63.6522 252.377 64.8632 248.655 64.8262 248.211C64.7682 247.663 71.2293 248.61 71.2293 248.61Z" fill="#202338"/>
<path d="M41.7338 249.451C41.7338 249.451 43.8602 252.596 46.7042 253.322C49.5087 254.037 51.3264 255.398 51.4531 257.197C51.5797 258.997 44.8416 261.355 40.1086 258.192C36.9928 256.116 35.8294 256.234 35.2015 254.913C34.5736 253.591 35.5312 249.9 35.4653 249.465C35.3914 248.934 41.7338 249.451 41.7338 249.451Z" fill="#202338"/>
<path d="M70.9047 247.066C70.9047 247.066 71.2846 248.578 71.2292 248.61C71.1738 248.641 64.6151 249.425 64.813 248.211C64.9739 247.227 65.2034 246.156 65.2034 246.156L70.9047 247.066Z" fill="#81807E"/>
<path d="M41.6413 247.898C41.6976 248.414 41.7267 248.932 41.7284 249.452C41.6756 249.486 35.4256 250.662 35.4626 249.452C35.5143 248.728 35.647 248.012 35.8583 247.317L41.6413 247.898Z" fill="#81807E"/>
<path d="M64.9422 156.548C64.9422 156.548 67.3167 179.707 68.5672 187.635C70.0156 196.903 70.5089 204.562 70.9126 209.361C71.4218 215.394 71.5194 245.077 71.8755 246.842C72.2317 248.607 63.9766 247.33 63.9766 247.33C63.9766 247.33 59.9164 208.548 58.3994 202.119C56.9906 196.132 51.7537 170.37 50.4688 172.003C49.184 173.636 47.5852 202.079 46.6302 206.788C45.6751 211.498 42.7783 248.457 42.7783 248.457C42.7783 248.457 36.2091 249.776 34.4626 248.285C34.4626 248.285 33.6711 216.444 34.2726 207.596C34.5048 204.224 30.3153 167.164 35.6867 152.245C38.5202 144.359 64.9422 156.548 64.9422 156.548Z" fill="#292C47"/>
<path d="M42.2297 98.6308C42.9341 105.079 50.0943 105.079 50.0943 105.079C50.0943 105.079 53.0571 102.488 52.9621 100.57C52.9621 100.528 52.9621 100.483 52.9621 100.443C52.9199 100.09 52.5189 99.6518 52.4767 98.9447C52.4767 98.8471 52.4767 98.7495 52.4767 98.6519C52.4767 98.5543 52.4767 98.4593 52.4767 98.3643C52.4767 97.8736 52.5083 97.3908 52.5374 97.0452C52.5374 96.9265 52.5558 96.8262 52.5638 96.7471L52.5848 96.5598C52.5848 96.5598 51.4293 95.3435 49.9651 93.8951C47.4007 91.3624 43.876 88.1147 43.8707 89.4101C43.8725 89.4928 43.8831 89.575 43.9024 89.6555C44.496 92.5628 42.2297 98.6308 42.2297 98.6308Z" fill="#EEA886"/>
<path d="M42.8998 151.876C42.8998 151.876 42.3194 155.53 42.2693 156.482L41.0425 156.237C41.0425 156.237 41.3802 152.372 41.5701 151.723L42.8998 151.876Z" fill="#5D676C"/>
<path d="M22.7991 173.161C22.7991 173.161 23.1737 168.038 24.5456 167.262C25.9175 166.486 25.1049 168.054 25.1049 168.054C25.1049 168.054 24.287 171.766 24.0945 173.272C24.0865 173.349 22.7991 173.161 22.7991 173.161Z" fill="#434343"/>
<path d="M36.3384 176.778L18.2796 171.359L17.9973 193.697L35.882 204.786L36.3384 176.778Z" fill="#5A5C5A"/>
<path d="M35.882 204.786L33.6052 205.174L16.2139 193.99L16.7705 171.441L18.2796 171.359L35.882 204.786Z" fill="#5A5C5A"/>
<path d="M47.113 102.419L50.0943 105.071C50.0943 105.071 46.6645 104.844 46.0103 104.279L47.113 102.419Z" fill="#B4B1BA"/>
<path d="M66.0108 160.872C66.0108 160.872 52.0096 162.065 39.7471 160.872V164.896C39.7471 164.896 58.162 167.555 66.6255 164.128L66.0108 160.872Z" fill="#292C47"/>
<path d="M54.0701 100.098C54.0701 100.098 56.3469 105.448 58.0565 117.407C58.7107 122 59.9296 129.73 60.8134 137.621C61.5099 143.842 63.1008 150.227 63.6073 154.989C64.135 159.923 65.7179 174.454 65.7179 174.454L69.546 172.04C70.0948 171.533 70.8651 170.879 70.6382 170.167C69.5829 166.769 67.57 155.527 66.3801 145.731C66.3801 145.731 66.3801 145.731 66.3801 145.71C66.3221 145.238 66.2667 144.771 66.2139 144.304C66.2139 144.283 66.2139 144.257 66.2139 144.23C65.9897 142.273 65.8024 140.394 65.6704 138.674C65.5845 137.383 65.6411 136.087 65.8393 134.809C66.3669 126.016 66.6307 116.745 66.6307 116.745C66.913 112.949 67.074 109.403 67.1795 106.097C66.2614 105.709 65.0689 105.171 64.1112 104.715C62.2988 103.855 60.0061 102.789 57.9694 101.849C56.9985 101.398 56.0831 100.979 55.31 100.625L54.0701 100.098Z" fill="#323657"/>
<path d="M30.967 135.672C30.6689 139.663 32.3573 161.74 30.6715 162.054C28.9857 162.368 22.799 160.999 22.799 160.999C22.799 160.999 22.0233 137.191 22.2713 134.696C22.4507 132.878 25.3449 105.633 26.8698 104.538C27.7536 103.905 34.2885 101.588 37.494 100.317C38.0797 100.084 38.6469 99.8655 39.1719 99.665C39.8526 100.422 47.0656 113.766 47.6301 124.612C47.8016 127.913 47.0286 134.883 46.4403 140.579C45.8124 146.647 45.1212 151.396 44.5935 156.474C43.5884 166.484 42.8866 174.449 42.8866 174.449L32.9351 170.022C31.3232 169.214 29.0912 165.906 29.698 164.218C32.0012 157.767 34.9006 146.747 34.9032 141.085C34.9032 141.085 33.7926 127.227 32.9114 124.18C32.914 124.172 31.3522 130.598 30.967 135.672Z" fill="#323657"/>
<path d="M29.1096 161.79C29.1096 161.79 29.6029 164.014 30.2651 166.241C30.9273 168.468 31.5605 169.185 31.2598 170.462C31.0355 171.417 29.9406 172.122 29.6768 171.808C29.413 171.494 29.3312 167.769 27.7852 167.761C26.2392 167.753 28.1783 172.386 27.2575 172.035C26.3368 171.684 22.8332 169.689 23.0838 167.814C23.3345 165.938 24.7723 164.603 24.7222 161.796C24.68 159.247 25.4873 158.194 25.4873 158.194L29.1096 161.79Z" fill="#EEA886"/>
<path d="M27.9358 167.597C27.9358 167.597 29.983 168.154 29.7588 175.108L27.4345 174.686C27.4345 174.686 27.5347 170.84 26.8699 168.734C26.8673 168.734 27.0097 167.376 27.9358 167.597Z" fill="#5A5C5A"/>
<path d="M31.2281 146.834L31.1252 164.378C31.1252 164.378 27.6243 164.223 22.7989 162.442L22.4639 137.698L31.2281 146.834Z" fill="#323657"/>
<path d="M53.3499 102.889C53.3499 102.889 53.6138 106.548 50.5085 106.635C47.4033 106.722 44.9524 103.746 44.9524 103.746L50.0943 105.066L53.2233 102.414L53.3499 102.889Z" fill="#D8D5E0"/>
<path d="M42.6439 97.4172C42.6439 97.4172 45.5803 101.185 47.1131 102.43L44.6015 106.651L40.2668 99.2798L42.6439 97.4172Z" fill="#EAE6F2"/>
<path d="M52.743 103.116L50.1047 105.076C50.1047 105.076 52.4317 100.831 52.4792 98.9421L52.743 103.116Z" fill="#B4B1BA"/>
<path d="M52.4661 98.9342L54.1677 100.137L56.0646 105.794L52.7431 103.111L52.4661 98.9342Z" fill="#EAE6F2"/>
<path d="M66.177 128.179C66.177 128.179 65.4252 134.706 65.8209 140.663C66.2166 146.62 67.8471 156.144 67.8471 156.144C67.8471 156.144 67.8629 135.244 66.177 128.179Z" fill="#1F2136"/>
<path d="M60.9005 80.0602C60.9005 80.0602 62.771 84.6085 61.5495 85.1573C60.5391 85.6111 62.1616 90.0512 62.3595 90.7714C62.5573 91.4917 60.5127 91.7819 60.0404 92.1803C59.5682 92.5787 57.7425 97.9158 56.0831 97.9079C54.4236 97.9 47.3004 94.5494 45.509 92.2462C43.7176 89.9431 43.0581 80.3108 44.8204 76.4642C46.5828 72.6177 57.5922 72.1111 60.9005 80.0602Z" fill="#EEA886"/>
<path d="M61.2645 81.0415C61.2645 81.0415 64.1217 76.6436 60.1802 72.7416C56.2387 68.8397 47.6644 74.0608 46.7436 74.1953C45.8229 74.3299 40.4382 75.4827 42.2296 83.6771C43.8125 90.9745 43.9787 91.1645 43.9787 91.1645C43.9787 91.1645 46.1183 87.3074 47.1182 86.7296C48.6827 85.8273 51.8433 86.4156 51.8433 86.4156C51.8433 86.4156 50.7485 82.2235 53.1836 81.9016C55.6187 81.5797 58.956 79.8992 61.2645 81.0415Z" fill="#FCCCA2"/>
<path d="M49.556 83.8407C49.4057 83.2656 48.9783 80.8173 46.7912 81.994C44.6041 83.1706 47.4454 88.0039 47.7937 88.0989C48.1419 88.1938 50.8303 88.6793 49.556 83.8407Z" fill="#EEA886"/>
<path d="M45.7886 92.5628C45.8387 92.6868 47.4639 96.6389 52.4554 98.6308C52.4554 98.5332 52.4554 98.4382 52.4554 98.3432C52.4554 97.8525 52.4871 97.3697 52.5161 97.0241C52.5161 96.9054 52.5346 96.8051 52.5425 96.726C52.5399 96.7471 47.1816 94.2276 45.7886 92.5628Z" fill="#A77860"/>
<defs>
<linearGradient id="paint0_linear" x1="0" y1="255.277" x2="563" y2="255.277" gradientUnits="userSpaceOnUse">
<stop stop-color="#6A00FA"/>
<stop offset="1" stop-color="#6B4671"/>
</linearGradient>
<linearGradient id="paint1_linear" x1="123109" y1="280860" x2="168179" y2="280860" gradientUnits="userSpaceOnUse">
<stop stop-color="#FF9F55"/>
<stop offset="1" stop-color="#FFD255"/>
</linearGradient>
</defs>
</svg>
