<svg width="70" height="69" viewBox="0 0 70 69" fill="none" xmlns="http://www.w3.org/2000/svg">
<ellipse cx="35" cy="34.1809" rx="35" ry="33.968" fill="white"/>
<g clip-path="url(#clip0)">
<g clip-path="url(#clip1)">
<path d="M39.061 25.0603C40.7561 25.0603 42.1303 23.6826 42.1303 21.9833C42.1303 20.2839 40.7561 18.9062 39.061 18.9062C37.3659 18.9062 35.9917 20.2839 35.9917 21.9833C35.9917 23.6826 37.3659 25.0603 39.061 25.0603Z" fill="#1A2C79"/>
<path d="M48.0342 45.4413L44.3139 36.809C44.3064 36.7917 44.2986 36.7745 44.2906 36.7574C44.116 36.3872 43.7433 36.1504 43.3347 36.1504H43.3345V39.6618C44.7874 39.6618 45.6109 40.725 45.6109 41.8162C45.6109 42.6135 45.1786 43.3092 44.5363 43.6817V45.7611L44.9703 46.7684C45.3362 47.6174 46.319 48.0069 47.164 47.6407C48.0102 47.274 48.3996 46.2895 48.0342 45.4413Z" fill="#1A2C79"/>
<path d="M37.5811 25.6114L36.5018 25.4265C35.4632 25.2485 34.3976 25.5134 33.5623 26.1571C32.7268 26.801 32.1975 27.7651 32.102 28.8171L31.5776 34.5893L31.6083 34.5694C32.8184 33.7846 34.4338 34.132 35.2166 35.345C35.3809 35.5998 35.4948 35.8724 35.5621 36.1515L37.6162 31.385L36.0028 29.7205L37.8149 30.9237L38.9078 28.3878C38.917 28.3663 38.9283 28.3463 38.9383 28.3254L37.188 27.1631L39.0746 27.9323L39.103 27.766C39.2761 26.7496 38.5948 25.785 37.5811 25.6114Z" fill="#1A2C79"/>
<path d="M56.073 32.8421H52.3368C52.5526 32.7141 52.6976 32.4791 52.6976 32.2094C52.6976 31.5935 52.6976 27.1786 52.6976 26.5797L54.6955 21.9433C54.8077 21.6829 54.6882 21.3809 54.4285 21.2683L53.2554 20.7603C52.9957 20.6478 52.6944 20.7677 52.5821 21.0279L48.9108 29.5476C48.7987 29.8078 48.9182 30.11 49.1778 30.2225L50.351 30.7306C50.6106 30.8431 50.912 30.7232 51.0242 30.4629L51.2305 29.9841V31.4741C50.4016 31.4741 48.3482 31.4741 47.5651 31.4741C47.4569 31.4741 47.3546 31.4983 47.2621 31.5404C47.3253 31.3497 47.3497 31.1428 47.3233 30.9301C47.2284 30.166 46.5345 29.6235 45.7717 29.7187L43.2139 30.0377C43.1677 30.1919 43.3129 29.8397 41.2444 34.6401C41.2444 35.1905 41.2444 39.1238 41.2444 39.6619H42.3366V35.1501C42.5761 35.1501 53.1186 35.1501 54.3079 35.1501V46.8548C54.3079 47.3647 54.7201 47.7781 55.2289 47.7781C55.7376 47.7781 56.1499 47.3648 56.1499 46.8548V35.1463C56.7609 35.1056 57.2241 34.593 57.2241 33.9961C57.2241 33.3588 56.7088 32.8421 56.073 32.8421ZM43.2559 32.8421L46.1152 32.4856C46.3902 32.4513 46.6356 32.3378 46.8337 32.172C46.833 32.1845 46.8318 32.1969 46.8318 32.2095C46.8318 32.4791 46.9769 32.7141 47.1927 32.8422H43.2559V32.8421Z" fill="#1A2C79"/>
<path d="M39.0861 45.5915L37.6924 44.1943C37.5916 44.0931 37.4701 44.018 37.3384 43.9705C36.8105 43.9705 33.1386 43.9705 32.6108 43.9705C32.6874 44.1318 32.7617 44.3361 32.8066 44.5357L33.1981 46.2736L33.6347 45.8359H36.6166L37.7294 46.9515C38.104 47.327 38.7114 47.3271 39.0859 46.9515C39.4607 46.5759 39.4608 45.967 39.0861 45.5915Z" fill="#1A2C79"/>
<path d="M26.4492 32.8801C28.1443 32.8801 29.5185 31.5025 29.5185 29.8031C29.5185 28.1037 28.1443 26.7261 26.4492 26.7261C24.7541 26.7261 23.3799 28.1037 23.3799 29.8031C23.3799 31.5025 24.7541 32.8801 26.4492 32.8801Z" fill="#1A2C79"/>
<path d="M33.7425 53.3964L31.7982 44.764C31.7981 44.7637 31.7981 44.7635 31.7981 44.7633C31.6995 44.3263 31.3391 43.9705 30.7229 43.9705V54.675H30.7146C31.0837 55.2455 31.7801 55.5555 32.4823 55.3967C33.3814 55.1932 33.9456 54.2976 33.7425 53.3964Z" fill="#1A2C79"/>
<path d="M43.4619 40.6622C41.7025 40.6622 41.485 40.6622 39.7255 40.6622C39.9413 40.5342 40.0864 40.2992 40.0864 40.0295C40.0864 39.4801 40.0864 34.9353 40.0864 34.3997L42.0843 29.7632C42.1965 29.5029 42.077 29.2008 41.8174 29.0883L40.6442 28.5802C40.3858 28.4683 40.0837 28.5866 39.9709 28.8479L36.2996 37.3676C36.1874 37.6278 36.307 37.93 36.5666 38.0425L37.7397 38.5506C37.9987 38.6628 38.3005 38.5437 38.413 38.2829L38.6193 37.8041V39.2941C38.2052 39.2941 35.315 39.2941 34.9539 39.2941C34.5489 39.2941 34.2204 39.6232 34.2204 40.0295C34.2204 40.2991 34.3655 40.5341 34.5813 40.6622C34.0278 40.6622 30.113 40.6622 29.5761 40.6622C29.6416 40.6208 29.0422 41.0092 33.7809 37.9362C34.4258 37.5181 34.6103 36.6549 34.1931 36.0084C33.7761 35.362 32.915 35.1769 32.2702 35.5951L28.8443 37.8168L24.5764 34.9829L26.4631 35.7522L26.4914 35.5858C26.6647 34.5696 25.9834 33.6051 24.9697 33.4314L23.8904 33.2465C22.8518 33.0685 21.7862 33.3334 20.9509 33.9771C20.1155 34.6208 19.5861 35.5851 19.4906 36.637L18.8426 43.7699C18.7995 44.2448 18.9695 44.7304 19.3421 45.0799H18.8449C18.2095 45.0798 17.6941 45.5964 17.6941 46.2338C17.6941 46.8711 18.2095 47.3878 18.8452 47.3878H21.6048V52.1198H20.626C20.3716 52.1198 20.1277 52.2211 19.9478 52.4015L18.5539 53.7988C18.1793 54.1743 18.1793 54.7832 18.5539 55.1587C18.9286 55.5343 19.5359 55.5343 19.9104 55.1587L21.0233 54.0431H24.0052L25.1181 55.1587C25.4927 55.5343 26.1001 55.5342 26.4746 55.1587C26.8493 54.7832 26.8493 54.1743 26.4746 53.7988L25.0807 52.4015C24.9009 52.2211 24.657 52.1198 24.4025 52.1198H23.5234V47.3878H26.8862C26.8862 45.6612 26.8862 45.3975 26.8862 43.7242C26.3302 43.4314 25.9178 42.9019 25.7827 42.269L25.3705 42.1624C25.5838 40.9108 25.5361 41.1908 25.7446 39.9679L23.3915 37.5404C28.5518 40.9668 28.0278 40.6197 28.0953 40.6623H27.8838C27.2456 40.6623 26.7327 41.1832 26.7327 41.8162C26.7327 42.4443 27.2422 42.9701 27.8837 42.9702V54.5101C27.8837 55.0144 28.2922 55.4334 28.8047 55.4334C29.3146 55.4334 29.7257 55.0177 29.7257 54.5101V42.9701C29.9651 42.9701 40.5076 42.9701 41.6969 42.9701V54.51C41.6969 55.0199 42.1092 55.4333 42.6179 55.4333C43.1266 55.4333 43.5389 55.02 43.5389 54.51V42.9663C44.1479 42.9258 44.6131 42.4152 44.6131 41.8162C44.613 41.1789 44.0975 40.6622 43.4619 40.6622Z" fill="#1A2C79"/>
</g>
</g>
<defs>
<clipPath id="clip0">
<rect x="20.3625" y="19.6233" width="35" height="33.968" fill="white"/>
</clipPath>
<clipPath id="clip1">
<rect x="17.6941" y="17.3586" width="39.5301" height="39.6294" fill="white"/>
</clipPath>
</defs>
</svg>
