<svg width="393" height="393" viewBox="0 0 393 393" fill="none" xmlns="http://www.w3.org/2000/svg">
<path d="M74.617 0C54.3476 0 37.8569 16.4906 37.8569 36.76V356.24C37.8569 376.509 54.3476 392.999 74.617 392.999H180.379V0H74.617Z" fill="#EFEFEF"/>
<path d="M59.7551 356.239V36.76C59.7551 16.4906 76.2458 0 96.5151 0H74.617C54.3476 0 37.8569 16.4906 37.8569 36.76V356.24C37.8569 376.509 54.3476 392.999 74.617 392.999H96.5151C76.2458 392.999 59.7551 376.509 59.7551 356.239Z" fill="#DDDDDD"/>
<path d="M78.3389 20.5066C68.1179 20.5066 59.7551 28.8693 59.7551 39.0904V82.5844C59.7551 92.8054 68.1179 101.168 78.3389 101.168C88.56 101.168 96.9227 92.8054 96.9227 82.5844V39.0904C96.9227 28.8693 88.56 20.5066 78.3389 20.5066Z" fill="#535454"/>
<path d="M78.3389 82.5836V39.0904C78.3389 32.249 82.0885 26.2451 87.6304 23.0197C75.2863 15.8352 59.7551 24.8672 59.7551 39.0904V82.5844C59.7551 96.8007 75.2778 105.845 87.6304 98.6552C82.0885 95.429 78.3389 89.425 78.3389 82.5836Z" fill="#444443"/>
<path d="M318.382 0H180.378C160.109 0 143.618 16.4906 143.618 36.76V356.24C143.618 376.509 160.109 393 180.378 393H318.382C338.652 393 355.142 376.509 355.142 356.24V36.76C355.142 16.4906 338.652 0 318.382 0Z" fill="#535454"/>
<path d="M163.982 356.239V36.76C163.982 16.4906 180.472 0 200.741 0H180.378C160.109 0 143.618 16.4906 143.618 36.76V356.24C143.618 376.509 160.109 393 180.378 393H200.741C180.472 392.999 163.982 376.509 163.982 356.239Z" fill="#444443"/>
<path d="M334.776 356.239C334.776 365.293 327.436 372.632 318.382 372.632H180.378C171.325 372.632 163.985 365.293 163.985 356.239V36.7601C163.985 27.7065 171.325 20.367 180.378 20.367H197.577C200.965 20.367 203.712 23.1134 203.712 26.5015V30.3915C203.712 35.6111 207.982 39.8811 213.201 39.8811H285.559C290.778 39.8811 295.048 35.6111 295.048 30.3915V24.7652C295.048 22.3358 297.018 20.3662 299.447 20.3662H318.382C327.436 20.3662 334.776 27.7058 334.776 36.7593V356.239Z" fill="#A4D9F4"/>
<path d="M183.542 356.239V36.76C183.542 28.1977 190.109 21.1782 198.479 20.4406C197.527 20.2993 198.54 20.3976 180.378 20.3669C171.325 20.3669 163.985 27.7065 163.985 36.76V356.24C163.985 365.294 171.325 372.633 180.378 372.633H199.935C190.882 372.632 183.542 365.294 183.542 356.239Z" fill="#7CC9E8"/>
<path d="M273.25 26.2979H242.283C239.008 26.2979 236.352 23.6429 236.352 20.3669C236.352 17.0908 239.007 14.4358 242.283 14.4358H273.25C276.525 14.4358 279.181 17.0908 279.181 20.3669C279.18 23.6429 276.525 26.2979 273.25 26.2979Z" fill="#666666"/>
<path d="M220.338 25.2986C216.092 22.5077 217.121 15.6847 222.465 14.5517C226.101 13.8018 229.559 16.6173 229.559 20.3638C229.559 23.1187 227.658 25.588 224.783 26.1844C224.403 26.255 221.546 26.1153 220.338 25.2986Z" fill="#666666"/>
<path d="M75.046 44.8157C72.2259 42.8891 71.6434 39.2093 73.4095 36.5911C76.5482 31.8237 84.2669 33.9376 84.2669 39.881C84.2669 42.7494 82.2044 45.1864 79.498 45.693C78.7588 45.8481 76.4138 45.7145 75.046 44.8157Z" fill="#666666"/>
<path d="M75.046 65.772C72.2259 63.8454 71.6434 60.1656 73.4095 57.5474C75.8689 53.7226 81.9166 54.0657 83.8164 58.5675C84.7144 60.6899 84.2692 63.295 82.5353 65.0282C81.1214 66.4421 77.4792 67.3709 75.046 65.772Z" fill="#F9D698"/>
<path d="M75.0459 86.7192C71.132 84.1471 71.6655 78.1746 76.066 76.3124C82.2788 73.8846 86.9817 81.5381 82.5351 85.9839C80.9931 87.526 77.6787 88.5184 75.0459 86.7192Z" fill="#666666"/>
<path d="M202.147 87.6288H186.276C184.822 87.6288 183.631 86.4383 183.631 84.9838V69.1126C183.631 67.658 184.822 66.4675 186.276 66.4675H202.147C203.601 66.4675 204.792 67.658 204.792 69.1126V84.983C204.792 86.4383 203.602 87.6288 202.147 87.6288Z" fill="#70B5E8"/>
<path d="M239.51 87.6288H223.64C222.185 87.6288 220.995 86.4383 220.995 84.9838V69.1126C220.995 67.658 222.185 66.4675 223.64 66.4675H239.51C240.965 66.4675 242.155 67.658 242.155 69.1126V84.983C242.155 86.4383 240.965 87.6288 239.51 87.6288Z" fill="#EFEFEF"/>
<path d="M276.873 87.6288H261.002C259.548 87.6288 258.357 86.4383 258.357 84.9838V69.1126C258.357 67.658 259.548 66.4675 261.002 66.4675H276.873C278.327 66.4675 279.518 67.658 279.518 69.1126V84.983C279.518 86.4383 278.327 87.6288 276.873 87.6288Z" fill="#92B620"/>
<path d="M314.235 87.6288H298.365C296.91 87.6288 295.72 86.4383 295.72 84.9838V69.1126C295.72 67.658 296.91 66.4675 298.365 66.4675H314.235C315.69 66.4675 316.88 67.658 316.88 69.1126V84.983C316.88 86.4383 315.69 87.6288 314.235 87.6288Z" fill="#898989"/>
<path d="M202.147 125.36H186.276C184.822 125.36 183.631 124.169 183.631 122.715V106.844C183.631 105.39 184.822 104.199 186.276 104.199H202.147C203.601 104.199 204.792 105.39 204.792 106.844V122.715C204.792 124.169 203.602 125.36 202.147 125.36Z" fill="#92B620"/>
<path d="M239.51 125.36H223.64C222.185 125.36 220.995 124.169 220.995 122.715V106.844C220.995 105.39 222.185 104.199 223.64 104.199H239.51C240.965 104.199 242.155 105.39 242.155 106.844V122.715C242.155 124.169 240.965 125.36 239.51 125.36Z" fill="#898989"/>
<path d="M276.873 125.36H261.002C259.548 125.36 258.357 124.169 258.357 122.715V106.844C258.357 105.39 259.548 104.199 261.002 104.199H276.873C278.327 104.199 279.518 105.39 279.518 106.844V122.715C279.518 124.169 278.327 125.36 276.873 125.36Z" fill="#70B5E8"/>
<path d="M314.235 125.36H298.365C296.91 125.36 295.72 124.169 295.72 122.715V106.844C295.72 105.39 296.91 104.199 298.365 104.199H314.235C315.69 104.199 316.88 105.39 316.88 106.844V122.715C316.88 124.169 315.69 125.36 314.235 125.36Z" fill="#F94A46"/>
<path d="M202.147 163.581H186.276C184.822 163.581 183.631 162.391 183.631 160.936V145.066C183.631 143.611 184.822 142.421 186.276 142.421H202.147C203.601 142.421 204.792 143.611 204.792 145.066V160.936C204.792 162.391 203.602 163.581 202.147 163.581Z" fill="#DDA36F"/>
<path d="M239.51 163.581H223.64C222.185 163.581 220.995 162.391 220.995 160.936V145.066C220.995 143.611 222.185 142.421 223.64 142.421H239.51C240.965 142.421 242.155 143.611 242.155 145.066V160.936C242.155 162.391 240.965 163.581 239.51 163.581Z" fill="#F9D698"/>
<path d="M276.873 163.581H261.002C259.548 163.581 258.357 162.391 258.357 160.936V145.066C258.357 143.611 259.548 142.421 261.002 142.421H276.873C278.327 142.421 279.518 143.611 279.518 145.066V160.936C279.518 162.391 278.327 163.581 276.873 163.581Z" fill="#898989"/>
<path d="M314.235 163.581H298.365C296.91 163.581 295.72 162.391 295.72 160.936V145.066C295.72 143.611 296.91 142.421 298.365 142.421H314.235C315.69 142.421 316.88 143.611 316.88 145.066V160.936C316.88 162.391 315.69 163.581 314.235 163.581Z" fill="#F9D698"/>
<path d="M202.147 201.312H186.276C184.822 201.312 183.631 200.122 183.631 198.667V182.797C183.631 181.342 184.822 180.152 186.276 180.152H202.147C203.601 180.152 204.792 181.342 204.792 182.797V198.667C204.792 200.122 203.602 201.312 202.147 201.312Z" fill="#70B5E8"/>
<path d="M239.51 201.312H223.639C222.185 201.312 220.994 200.122 220.994 198.667V182.797C220.994 181.342 222.185 180.152 223.639 180.152H239.51C240.964 180.152 242.155 181.342 242.155 182.797V198.667C242.155 200.122 240.964 201.312 239.51 201.312Z" fill="#70B5E8"/>
<path d="M276.873 201.312H261.002C259.548 201.312 258.357 200.122 258.357 198.667V182.797C258.357 181.342 259.548 180.152 261.002 180.152H276.873C278.327 180.152 279.518 181.342 279.518 182.797V198.667C279.518 200.122 278.327 201.312 276.873 201.312Z" fill="#F94A46"/>
<path d="M202.147 239.043H186.276C184.822 239.043 183.631 237.853 183.631 236.398V220.528C183.631 219.073 184.822 217.883 186.276 217.883H202.147C203.601 217.883 204.792 219.073 204.792 220.528V236.398C204.792 237.853 203.602 239.043 202.147 239.043Z" fill="#EFEFEF"/>
<path d="M239.51 239.043H223.64C222.185 239.043 220.995 237.853 220.995 236.398V220.528C220.995 219.073 222.185 217.883 223.64 217.883H239.51C240.965 217.883 242.155 219.073 242.155 220.528V236.398C242.155 237.853 240.965 239.043 239.51 239.043Z" fill="#92B620"/>
<path d="M276.873 239.043H261.002C259.548 239.043 258.357 237.853 258.357 236.398V220.528C258.357 219.073 259.548 217.883 261.002 217.883H276.873C278.327 217.883 279.518 219.073 279.518 220.528V236.398C279.518 237.853 278.327 239.043 276.873 239.043Z" fill="#898989"/>
<path d="M314.235 201.312H298.365C296.91 201.312 295.72 200.122 295.72 198.667V182.797C295.72 181.342 296.91 180.152 298.365 180.152H314.235C315.69 180.152 316.88 181.342 316.88 182.797V198.667C316.88 200.122 315.69 201.312 314.235 201.312Z" fill="#FFB70D"/>
<path d="M202.148 355.461H186.277C184.823 355.461 183.632 354.27 183.632 352.816V336.945C183.632 335.491 184.823 334.3 186.277 334.3H202.148C203.602 334.3 204.793 335.491 204.793 336.945V352.816C204.793 354.27 203.602 355.461 202.148 355.461Z" fill="#92B620"/>
<path d="M239.51 355.461H223.64C222.185 355.461 220.995 354.27 220.995 352.816V336.945C220.995 335.491 222.185 334.3 223.64 334.3H239.51C240.965 334.3 242.155 335.491 242.155 336.945V352.816C242.155 354.27 240.965 355.461 239.51 355.461Z" fill="#70B5E8"/>
<path d="M276.873 355.461H261.002C259.548 355.461 258.357 354.27 258.357 352.816V336.945C258.357 335.491 259.548 334.3 261.002 334.3H276.873C278.327 334.3 279.518 335.491 279.518 336.945V352.816C279.518 354.27 278.327 355.461 276.873 355.461Z" fill="#92B620"/>
<path d="M314.235 355.461H298.365C296.91 355.461 295.72 354.27 295.72 352.816V336.945C295.72 335.491 296.91 334.3 298.365 334.3H314.235C315.69 334.3 316.88 335.491 316.88 336.945V352.816C316.88 354.27 315.69 355.461 314.235 355.461Z" fill="#EFEFEF"/>
</svg>
