<svg width="538" height="501" viewBox="0 0 538 501" fill="none" xmlns="http://www.w3.org/2000/svg">
<g opacity="0.75">
<path opacity="0.75" d="M450.7 365.818C403.794 375.02 381.435 410.924 353.926 435.097C321.548 463.557 282.192 447.784 248.554 442.765C188.085 433.742 167.521 499.976 100.994 491.196C37.3169 482.785 12.4819 399.861 52.0527 352.37C91.6235 304.879 90.3602 290.539 81.2409 256.945C72.1216 223.35 56.1153 160.467 119.854 154.788C174.637 149.907 206.302 135.675 230.419 110.939C254.536 86.2031 343.35 18.0923 384.78 121.578C404.576 171.016 416.516 188.412 460.993 201.095C505.47 213.779 536.56 248.691 537.952 288.222C539.27 325.638 513.347 353.53 450.7 365.818Z" fill="url(#paint0_linear)"/>
</g>
<g opacity="0.75">
<path opacity="0.75" d="M266.659 93.9273C307.779 123.467 353.525 127.336 401.784 117.913C450.044 108.49 490.404 106.776 521.992 151.322C553.581 195.868 541.786 279.713 456.183 300.389C374.593 320.085 360.97 384.716 346.507 430.603C328.957 486.287 276.293 509.415 221.91 498.278C167.527 487.14 152.593 447.738 131.537 386.914C110.48 326.09 85.6425 318.559 49.0564 300.408C4.24861 278.11 -33.7967 210.775 48.1778 172.74C155.225 123.053 147.11 8.0477 266.659 93.9273Z" fill="url(#paint1_linear)"/>
</g>
<path d="M246.817 101.812C245.911 98.306 244.518 94.9443 242.677 91.8257L246.892 85.4854L241.044 79.638L235.197 73.7905L228.852 78.0007C225.734 76.16 222.372 74.7667 218.866 73.8615L217.366 66.4019H200.822L199.319 73.8615C195.813 74.7675 192.451 76.1608 189.332 78.0007L182.992 73.7863L177.144 79.6338L171.297 85.4812L175.515 91.8215C173.675 94.9408 172.281 98.3023 171.372 101.808L163.908 103.312V119.86L171.368 121.359C172.276 124.865 173.671 128.227 175.511 131.346L171.293 137.686L177.14 143.534L182.988 149.381L189.328 145.163C192.447 147.002 195.809 148.397 199.314 149.306L200.818 156.766H217.362L218.862 149.306C222.367 148.398 225.729 147.003 228.848 145.163L235.189 149.381L241.036 143.534L246.883 137.686L242.669 131.346C244.51 128.227 245.903 124.866 246.808 121.359L254.268 119.86V103.312L246.817 101.812ZM209.092 140.572C203.359 140.572 197.755 138.872 192.988 135.687C188.221 132.502 184.506 127.975 182.312 122.679C180.118 117.382 179.544 111.554 180.663 105.931C181.781 100.308 184.542 95.1431 188.596 91.0893C192.649 87.0354 197.814 84.2747 203.437 83.1562C209.06 82.0378 214.888 82.6118 220.185 84.8057C225.482 86.9997 230.009 90.715 233.194 95.4818C236.379 100.249 238.079 105.853 238.079 111.586C238.079 119.274 235.025 126.646 229.589 132.083C224.153 137.519 216.78 140.572 209.092 140.572Z" fill="url(#paint2_linear)"/>
<path d="M181.952 46.7919C181.367 44.537 180.47 42.3749 179.287 40.3681L181.998 36.2874L178.239 32.5284L174.48 28.7693L170.391 31.4717C168.385 30.2869 166.223 29.3899 163.967 28.8069L163.002 24.0078H152.356L151.408 28.8069C149.146 29.3876 146.978 30.2847 144.967 31.4717L140.886 28.7609L137.127 32.52L133.368 36.2791L136.079 40.3598C134.894 42.3657 133.997 44.5281 133.414 46.7836L128.607 47.761V58.4075L133.406 59.3723C133.989 61.6278 134.886 63.7902 136.071 65.7961L133.36 69.8768L137.119 73.6359L140.878 77.395L144.959 74.6842C146.973 75.8716 149.143 76.7701 151.408 77.3532L152.372 82.1523H163.019L163.984 77.3532C166.239 76.7684 168.401 75.8715 170.408 74.6884L174.488 77.3991L178.247 73.6401L182.006 69.881L179.296 65.8003C180.479 63.7936 181.376 61.6314 181.96 59.3765L186.76 58.4117V47.761L181.952 46.7919ZM157.673 71.7313C153.983 71.7313 150.377 70.6373 147.309 68.5876C144.242 66.538 141.851 63.6247 140.439 60.2163C139.027 56.8078 138.658 53.0573 139.378 49.4389C140.097 45.8205 141.874 42.4968 144.483 39.888C147.091 37.2793 150.415 35.5028 154.034 34.783C157.652 34.0633 161.403 34.4327 164.811 35.8445C168.219 37.2563 171.133 39.6472 173.182 42.7147C175.232 45.7822 176.326 49.3887 176.326 53.078C176.327 55.5277 175.844 57.9536 174.907 60.2169C173.97 62.4803 172.596 64.5368 170.864 66.2691C169.132 68.0013 167.075 69.3753 164.812 70.3125C162.548 71.2497 160.122 71.7318 157.673 71.7313Z" fill="url(#paint3_linear)"/>
<path d="M288.129 402.927H330.536C380.417 402.927 420.854 362.49 420.854 312.609V198.149C420.854 148.268 380.417 107.831 330.536 107.831H288.129C238.248 107.831 197.811 148.268 197.811 198.149L197.811 312.609C197.811 362.49 238.248 402.927 288.129 402.927Z" fill="url(#paint4_linear)"/>
<path d="M271.606 47.736L261.978 42.1768V45.8398H247.669V49.6281H261.978V53.2952L271.606 47.736Z" fill="#F1CC5E"/>
<path d="M247.669 35.5441L257.296 41.1034V37.4362H271.606V33.6479H257.296V29.9849L247.669 35.5441Z" fill="#F1CC5E"/>
<path d="M411.113 47.2889C409.971 47.2092 408.883 46.7707 408.006 46.0359C407.549 45.6624 407.18 45.1931 406.925 44.6611C406.67 44.1291 406.536 43.5475 406.531 42.9576C406.321 40.8137 405.828 38.707 405.065 36.6925C403.291 35.2802 402.007 33.3455 401.394 31.1626C400.781 28.9797 400.87 26.6592 401.65 24.53C402.429 22.4007 403.859 20.5708 405.736 19.2993C407.613 18.0279 409.843 17.3795 412.11 17.4461C414.376 17.5126 416.564 18.2907 418.364 19.67C420.163 21.0494 421.483 22.9601 422.136 25.1313C422.789 27.3026 422.742 29.6244 422.002 31.7676C421.262 33.9108 419.867 35.7668 418.013 37.0726C417.276 38.9894 416.793 40.9946 416.576 43.037C416.551 45.4135 414.292 47.3265 411.531 47.3098C411.385 47.3056 411.247 47.2972 411.113 47.2889ZM412.542 18.3607C410.418 18.1991 408.298 18.7261 406.497 19.8635C404.696 21.001 403.309 22.6884 402.543 24.6757C401.776 26.663 401.67 28.8444 402.24 30.8968C402.81 32.9491 404.026 34.7632 405.708 36.0702L405.809 36.1495L405.855 36.2665C406.669 38.4046 407.193 40.6425 407.413 42.92V42.9534C407.418 43.417 407.526 43.8736 407.728 44.2909C407.93 44.7081 408.222 45.0757 408.582 45.3676C409.402 46.0527 410.437 46.4255 411.506 46.4201C413.786 46.4201 415.653 44.904 415.682 43.0077V42.9743C415.91 40.8013 416.428 38.6688 417.224 36.634L417.27 36.5004L417.387 36.421C419.08 35.2613 420.371 33.6044 421.083 31.6793C421.794 29.7541 421.891 27.6556 421.358 25.6734C420.826 23.6913 419.692 21.9232 418.112 20.6133C416.532 19.3034 414.584 18.5163 412.537 18.3607H412.542Z" fill="#F1CC5E"/>
<path d="M409.109 43.6053L407.697 31.8395L410.149 33.8694L411.669 32.182L412.985 33.7649L415.278 31.8228L413.883 43.6095L413.005 43.5051L414.137 33.9487L412.876 35.018L411.644 33.531L410.24 35.0932L408.837 33.932L409.99 43.5009L409.109 43.6053Z" fill="#F1CC5E"/>
<path d="M415.343 46.2621L407.688 46.21L407.666 49.2965L415.322 49.3486L415.343 46.2621Z" fill="#F1CC5E"/>
<path d="M416.615 43.0715L406.495 43.0044L406.462 47.9704L416.582 48.0376L416.615 43.0715Z" fill="#F1CC5E"/>
<path d="M346.073 8.91735C345.966 8.63326 345.825 8.36272 345.655 8.11124C345.428 7.77207 345.176 7.45089 344.899 7.15059C344.578 6.79958 344.229 6.47551 343.855 6.18159C343.458 5.86095 343.03 5.58109 342.577 5.34624L340.401 10.4001L340.819 10.6967C341.548 11.2334 342.245 11.8122 342.907 12.43C343.452 12.9322 343.918 13.5138 344.289 14.155C344.611 14.7276 344.797 15.3663 344.832 16.022C344.849 16.7673 344.693 17.5063 344.377 18.1814C344.07 18.9543 343.585 19.644 342.961 20.1946C342.399 20.6649 341.736 20.998 341.023 21.1677C340.27 21.3412 339.491 21.3738 338.726 21.2638C337.876 21.145 337.045 20.9176 336.253 20.5872L335.151 23.1517L333.898 22.6045L335.021 19.9941C333.912 19.4256 332.887 18.7059 331.976 17.8556C331.092 17.0294 330.345 16.0679 329.763 15.007L332.014 13.2027C332.145 13.5445 332.316 13.8697 332.524 14.1717C332.796 14.5862 333.1 14.9787 333.434 15.3454C333.821 15.7783 334.24 16.1818 334.687 16.5524C335.17 16.9568 335.688 17.3162 336.237 17.6259L338.409 12.572C338.325 12.4968 338.237 12.4258 338.141 12.3548C338.048 12.2881 337.958 12.2155 337.874 12.1376C337.192 11.6133 336.542 11.0484 335.928 10.446C335.438 9.9826 335.03 9.44047 334.72 8.84217C334.459 8.32324 334.316 7.7525 334.303 7.17148C334.304 6.51942 334.447 5.87537 334.72 5.28358C335.014 4.55895 335.456 3.90428 336.019 3.36229C336.552 2.86695 337.186 2.49353 337.878 2.26797C338.595 2.03596 339.348 1.93827 340.1 1.97979C340.932 2.02705 341.753 2.19011 342.539 2.46428L343.6 0L344.853 0.547153L343.792 3.01143C344.778 3.49636 345.679 4.13662 346.461 4.90768C347.161 5.59626 347.769 6.37263 348.27 7.21741L346.073 8.91735ZM337.744 6.08134C337.598 6.36983 337.527 6.69059 337.537 7.01398C337.547 7.33738 337.639 7.65298 337.803 7.93165C338.291 8.64426 338.899 9.26735 339.599 9.77358L341.666 4.96616C340.656 4.58607 339.82 4.50253 339.16 4.71555C338.837 4.82599 338.542 5.00695 338.297 5.24533C338.052 5.48371 337.864 5.77355 337.744 6.09387V6.08134ZM341.307 17.2249C341.462 16.9094 341.53 16.5581 341.502 16.2076C341.475 15.8572 341.354 15.5204 341.153 15.2326C340.597 14.4697 339.934 13.7903 339.185 13.2152L337.097 18.0477C337.927 18.4593 338.858 18.6246 339.779 18.5239C340.124 18.463 340.447 18.312 340.716 18.0861C340.984 17.8602 341.188 17.5675 341.307 17.2374V17.2249Z" fill="#F1CC5E"/>
<path d="M456.544 66.2388C407.905 69.3839 406.978 124.684 406.978 124.684V388.04H211.678V124.684C211.678 124.684 211.456 69.5509 261.49 66.2388H456.544Z" fill="url(#paint5_linear)"/>
<path d="M371.468 135.038H237.323V146.875H371.468V135.038Z" fill="#E0E8EE"/>
<path d="M351.866 162.413H237.323V170.796H351.866V162.413Z" fill="#E0E8EE"/>
<path d="M294.904 184.541H237.323V196.996H294.904V184.541Z" fill="#E0E8EE"/>
<path d="M371.472 184.541H311.92V196.996H371.472V184.541Z" fill="#E0E8EE"/>
<path d="M329.057 208.524H237.323V217.4H329.057V208.524Z" fill="#E0E8EE"/>
<path d="M340.677 230.715H237.323V235.648H340.677V230.715Z" fill="#E0E8EE"/>
<path d="M361.606 252.91H237.323V257.843H361.606V252.91Z" fill="#E0E8EE"/>
<path d="M295.296 302.622H236.931V274.709H295.296V302.622ZM237.72 301.833H294.524V275.519H237.72V301.833Z" fill="#E0E8EE"/>
<path d="M361.606 275.105H309.33V281.517H361.606V275.105Z" fill="#E0E8EE"/>
<path d="M346.382 288.667H309.33V295.079H346.382V288.667Z" fill="#E0E8EE"/>
<path d="M339.75 319.488H237.323V324.42H339.75V319.488Z" fill="#E0E8EE"/>
<path d="M296.199 341.683H237.323V346.616H296.199V341.683Z" fill="#E0E8EE"/>
<path d="M387.088 354.718H350.287V317.913H387.088V354.718ZM353.737 351.268H383.634V321.363H353.737V351.268Z" fill="url(#paint6_linear)"/>
<path d="M369.266 344.022L356.327 331.822L360.274 327.636L369.529 336.362L389.766 319.734L393.416 324.178L369.266 344.022Z" fill="url(#paint7_linear)"/>
<path d="M239.273 346.816C239.718 347.241 240.083 347.742 240.351 348.295C240.568 348.859 241.303 349.61 241.646 350.036C242.341 350.975 242.952 351.973 243.471 353.019C243.546 353.244 243.446 354.819 243.651 355.262C243.855 355.704 244.382 356.565 243.981 356.723C243.58 356.882 242.899 356.243 242.899 356.243C242.943 356.356 242.952 356.479 242.926 356.597C242.9 356.715 242.84 356.823 242.753 356.907C242.622 357.044 242.456 357.142 242.274 357.193C242.092 357.244 241.9 357.244 241.717 357.195C241.717 357.195 241.6 357.722 241.299 357.864C241.136 357.955 240.956 358.012 240.77 358.031C240.583 358.05 240.395 358.03 240.217 357.972C240.032 358.189 239.779 358.336 239.499 358.39C239.313 358.426 239.12 358.415 238.94 358.356C238.76 358.298 238.597 358.194 238.467 358.056C238.467 358.056 237.732 358.398 237.398 358.089C237.151 357.782 236.952 357.438 236.809 357.07C236.201 355.234 236.008 353.285 236.245 351.365C236.663 348.976 234.779 347.188 234.779 347.188L239.273 346.816Z" fill="#DBA585"/>
<path d="M245.877 365.223H235.548C235.044 365.223 234.56 365.023 234.204 364.666C233.848 364.31 233.647 363.826 233.647 363.322V356.807C233.647 356.303 233.848 355.819 234.204 355.463C234.56 355.106 235.044 354.906 235.548 354.906H245.877C246.381 354.906 246.865 355.106 247.222 355.463C247.579 355.819 247.78 356.302 247.782 356.807V363.322C247.78 363.827 247.579 364.31 247.222 364.666C246.865 365.023 246.381 365.223 245.877 365.223ZM235.548 356.18C235.382 356.18 235.222 356.246 235.105 356.364C234.987 356.481 234.921 356.641 234.921 356.807V363.322C234.922 363.488 234.989 363.646 235.106 363.763C235.224 363.879 235.382 363.945 235.548 363.945H245.877C246.042 363.945 246.201 363.879 246.318 363.763C246.436 363.646 246.502 363.488 246.503 363.322V356.807C246.503 356.641 246.437 356.481 246.32 356.364C246.202 356.246 246.043 356.18 245.877 356.18H235.548Z" fill="#1A232F"/>
<path d="M260.091 362.429H221.334V390.196H260.091V362.429Z" fill="#5A5C5A"/>
<path d="M224.254 288.128C224.254 288.128 222.266 288.158 221.422 294.093C220.579 300.028 222.178 302.509 222.37 304.977C222.562 307.446 225.457 323.401 225.536 324.107C225.616 324.813 226.004 333.296 227.136 335.555C228.268 337.815 236.571 350.592 236.68 351.214C236.788 351.836 240.715 348.992 240.715 348.992C240.715 348.992 234.186 335.33 233.81 333.776C233.435 332.222 230.807 324.257 231.221 321.826C231.634 319.396 230.06 306.001 230.21 304.51C230.36 303.019 228.055 289.035 224.254 288.128Z" fill="#DBA585"/>
<path d="M224.254 288.128C224.254 288.128 222.266 288.158 221.422 294.093C220.579 300.028 221.339 302.166 221.84 304.739C222.324 307.17 223.97 322.031 224.049 322.737C224.129 323.443 226.096 332.402 227.124 335.555C227.9 337.953 235.306 350.5 235.419 351.139C235.531 351.778 241.174 348.215 241.174 348.215C241.174 348.215 233.936 334.085 233.556 332.527C233.176 330.969 231.952 325.577 231.914 323.113C231.864 320.218 230.047 305.988 230.198 304.518C230.348 303.048 229.792 290.158 224.254 288.128Z" fill="#414D99"/>
<path d="M207.647 426.558C207.647 426.558 211.102 431.692 212.497 432.932C212.497 432.932 215.704 434.051 215.901 436.232C216.03 437.656 215.901 439.949 212.242 440.053C208.583 440.158 206.231 438.876 205.559 436.658C205.231 435.425 204.558 434.311 203.621 433.446V438.09H202.786C202.786 438.09 202.577 433.6 202.527 432.778C202.477 431.955 201.934 428.776 203.675 427.373C205.417 425.969 207.647 426.558 207.647 426.558Z" fill="#E6D8D1"/>
<path d="M231.095 422.457C231.559 423.483 232.139 424.453 232.825 425.347C233.66 426.429 236.229 430.869 237.365 431.195C238.501 431.52 242.009 432.122 242.318 434.081C242.627 436.04 242.782 437.422 239.324 437.589C235.865 437.756 233.597 437.953 231.947 435.526C230.764 433.904 229.317 432.492 227.666 431.349V437.673H226.326C226.326 437.673 225.703 431.09 225.344 430.627C224.985 430.163 224.053 425.105 227.253 422.474C230.452 419.842 231.095 422.457 231.095 422.457Z" fill="#E6D8D1"/>
<path d="M205.325 327.473C205.325 327.473 200.96 333.15 199.774 339.883C198.588 346.615 200.476 369.212 200.422 372.541C200.367 375.869 197.277 384.148 197.895 390.417C198.513 396.686 203.688 427.373 203.688 427.373L207.647 426.558C207.647 426.558 207.259 394.752 207.647 392.121C208.036 389.49 208.809 379.896 208.963 378.814C209.118 377.732 218.791 349.28 218.791 344.427C218.791 339.573 215.851 319.554 205.325 327.473Z" fill="#DBA585"/>
<path d="M227.253 329.691C227.253 329.691 234.424 357.062 235.276 360.854C236.129 364.647 237.365 367.775 237.365 369.383C237.365 373.142 235.974 379.119 235.974 379.119L231.096 422.457H227.253C227.253 422.457 224.826 397.15 224.442 392.042C224.058 386.934 227.228 379.04 226.451 376.872C225.674 374.704 213.992 349.723 213.992 349.723C213.992 349.723 205.145 321.756 227.253 329.691Z" fill="#DBA585"/>
<path d="M213.089 433.191C213.089 433.191 210.078 434.741 207.346 432.698C204.615 430.656 203.688 427.373 203.688 427.373L207.647 426.559L213.089 433.191Z" fill="#DBA585"/>
<path d="M237.365 431.186C237.365 431.186 234.27 431.959 233.084 431.186C231.898 430.414 227.863 423.593 226.526 423.184C226.526 423.184 227.821 420.556 231.096 422.465C231.096 422.457 236.488 430.042 237.365 431.186Z" fill="#DBA585"/>
<path d="M236.429 365.219C236.429 365.219 223.256 372.975 198.555 372.975C198.555 372.975 197.16 344.331 200.747 336.27C204.335 328.209 228.176 333.225 228.176 333.225C228.176 333.225 235.581 359.292 236.429 365.219Z" fill="#2C3D54"/>
<path d="M218.427 285.99C218.427 285.99 222.257 287.799 223.586 288.078C224.914 288.358 230.076 295.045 230.983 297.493C231.889 299.94 230.983 303.612 229.12 307.935C227.257 312.258 229.015 313.682 228.163 317.988C227.311 322.294 226.568 331.421 226.726 333.814C226.885 336.207 205.212 336.658 200.263 332.298C200.263 332.298 205.237 324.85 205.876 323.785C206.515 322.72 205.981 316.927 205.396 315.432C204.811 313.937 200.914 301.277 200.914 301.277C200.914 301.277 197.731 291.549 200.609 289.315C203.115 287.373 209.923 286.679 211.147 286.253C212.371 285.827 215.93 285.618 218.427 285.99Z" fill="#E6D8D1"/>
<path d="M219.651 294.527L221.978 291.804L219.956 284.628C219.51 287.908 219.408 291.226 219.651 294.527Z" fill="#CFC3BC"/>
<path d="M213.595 258.808C215.871 258.006 224.233 256.043 226.201 266.744C228.168 277.445 222.266 285.042 216.84 283.033C211.415 281.024 208.069 273.619 207.744 267.997C207.418 262.375 210.717 259.819 213.595 258.808Z" fill="#DBA585"/>
<path d="M226.2 266.735C226.2 266.735 226.618 257.584 217.517 257.267C208.416 256.949 205.972 264.434 206.716 269.893C207.147 273.136 208.752 276.108 211.227 278.246C211.227 278.246 210.901 273.832 212.664 272.683C214.426 271.534 221.506 269.25 224.588 263.912C224.588 263.916 226.021 265.595 226.2 266.735Z" fill="#2C323D"/>
<path d="M214.86 265.787C213.662 269.429 210.107 271.534 206.925 270.486C203.742 269.438 202.13 265.637 203.328 261.99C204.527 258.344 208.077 256.243 211.264 257.292C214.451 258.34 216.059 262.12 214.86 265.787Z" fill="#2C323D"/>
<path d="M220.257 281.571C220.257 281.571 219.493 288.597 219.651 290.885C219.651 290.885 215.671 294.874 211.147 286.228C211.147 286.228 213.052 282.666 211.615 277.812C210.178 272.959 220.257 281.571 220.257 281.571Z" fill="#DBA585"/>
<path d="M219.651 290.885V294.527L215.069 291.107L219.651 290.885Z" fill="#DBA585"/>
<path d="M219.651 294.527L217.751 292.176L211.344 285.79L209.272 287.786L219.651 294.527Z" fill="#CFC3BC"/>
<path d="M210.454 286.399C210.454 286.399 215.829 294.561 216.088 298.149C216.347 301.736 214.088 328.597 212.283 337.23C210.479 345.864 197.435 336.257 197.435 336.257C197.435 336.257 206.206 322.056 202.836 310.708C199.465 299.36 198.241 294.803 198.241 294.803C198.241 294.803 199.398 288.475 203.504 287.586C207.104 286.805 210.454 286.399 210.454 286.399Z" fill="#414D99"/>
<path d="M231.334 298.57C231.334 298.57 232.307 302 228.527 309.585C228.527 309.585 228.59 319.291 228.694 322.319C228.798 325.348 229.529 336.817 229.529 336.817L225.791 339.006C225.622 339.105 225.428 339.156 225.231 339.151C225.035 339.146 224.844 339.086 224.68 338.979C224.515 338.871 224.384 338.719 224.302 338.541C224.219 338.363 224.188 338.165 224.212 337.97C225.269 329.244 228.711 296.144 221.289 287.251L224.271 288.129C224.271 288.129 229.554 292.468 231.334 298.57Z" fill="#414D99"/>
<path d="M213.578 270.732C213.495 270.542 213.371 270.372 213.215 270.235C213.059 270.099 212.874 269.998 212.674 269.942C212.475 269.885 212.265 269.873 212.06 269.907C211.855 269.942 211.66 270.021 211.49 270.139C210.855 270.616 210.479 272.052 211.49 273.898C212.5 275.745 216.08 277.064 213.578 270.732Z" fill="#DBA585"/>
<path d="M221.978 291.8L224.91 292.614L219.956 284.628L221.978 291.8Z" fill="#F3E4DC"/>
<path d="M217.751 292.176L215.069 295.684L209.573 286.516L211.344 285.79L217.751 292.176Z" fill="#F3E4DC"/>
<path d="M220.098 283.116L219.969 284.528C219.969 284.528 216.803 285.117 212.664 280.067C212.664 280.067 215.6 283.647 220.098 283.116Z" fill="#997761"/>
<path d="M236.375 326.133C236.375 326.133 238.233 327.332 239.299 326.659C240.209 326.091 241.805 326.012 242.285 325.987C242.936 325.953 244.904 325.101 244.958 325.924C245.012 326.747 241.78 327.486 241.132 327.774C240.485 328.063 243.333 329.445 243.638 330.113C243.943 330.782 241.391 335.359 239.549 334.181C237.707 333.004 236.517 330.527 236.153 330.381C235.68 330.139 235.221 329.87 234.779 329.574L236.375 326.133Z" fill="#DBA585"/>
<path d="M201.044 288.864C201.044 288.864 203.629 288.225 205.86 290.618C208.09 293.011 209.201 296.95 209.798 298.224C210.396 299.498 217.776 311.309 218.202 311.589C218.628 311.869 226.138 317.917 229.546 321.162C232.954 324.408 239.57 328.025 239.57 328.025L237.064 331.537C237.064 331.537 216.907 320.791 214.351 316.856C211.795 312.922 201.604 302.012 201.604 302.012C201.604 302.012 195.539 292.831 201.044 288.864Z" fill="#DBA585"/>
<path d="M243.296 329.737C243.296 329.737 248.696 333.722 248.834 334.29C248.972 334.858 248.738 335.125 248.216 334.783C247.694 334.44 242.887 331.086 242.887 331.086C242.887 331.086 248.488 336.875 248.701 337.314C248.826 337.573 248.408 338.149 248.112 337.978C247.815 337.807 241.938 332.394 241.938 332.394C241.938 332.394 247.155 337.823 247.226 338.241C247.233 338.345 247.208 338.448 247.155 338.538C247.102 338.627 247.024 338.699 246.93 338.744C246.837 338.789 246.732 338.805 246.629 338.79C246.526 338.774 246.43 338.729 246.353 338.659C245.936 338.283 240.815 333.53 240.815 333.53C240.815 333.53 244.365 337.707 244.211 338.103C244.119 338.341 243.793 338.851 242.899 337.74C242.005 336.629 239.662 334.24 239.662 334.24L243.296 329.737Z" fill="#DBA585"/>
<path d="M229.417 307.68C229.417 307.68 229.596 319.792 228.857 325.64L228.527 309.585L229.417 307.68Z" fill="#2F386C"/>
<path d="M202.364 287.978C202.364 287.978 203.834 288.225 206.069 290.618C208.303 293.011 209.41 296.95 210.007 298.224C210.605 299.498 217.985 311.31 218.411 311.589C218.837 311.869 224.993 316.084 228.397 319.329C231.801 322.574 238.138 326.429 238.138 326.429L234.888 331.258C234.888 331.258 217.108 321.409 214.288 317.658C211.277 313.653 200.539 301.891 200.539 301.891C200.539 301.891 193.593 291.19 202.364 287.978Z" fill="#414D99"/>
<path d="M242.928 355.95C242.928 355.95 242.235 353.252 241.366 352.851C240.497 352.45 240.698 353.436 240.698 353.436C240.698 353.436 240.518 352.454 239.712 352.509C238.906 352.563 239.198 353.707 239.198 353.707C239.151 353.61 239.085 353.523 239.003 353.452C238.921 353.381 238.827 353.327 238.724 353.293C238.621 353.259 238.512 353.246 238.405 353.255C238.297 353.264 238.192 353.294 238.096 353.344C237.331 353.691 237.791 354.597 237.791 354.597C237.791 354.597 236.755 353.858 236.509 354.864C236.091 356.564 237.344 358.164 237.344 358.164C237.344 358.164 237.762 358.523 238.451 358.143C238.565 358.269 238.706 358.368 238.863 358.433C239.021 358.497 239.19 358.526 239.36 358.516C239.53 358.506 239.695 358.459 239.845 358.377C239.994 358.295 240.122 358.181 240.222 358.043C240.222 358.043 241.596 358.406 241.73 357.262C241.746 357.258 243.333 357.5 242.928 355.95Z" fill="#C99A7D"/>
<path d="M214.505 320.502L208.42 310.683C208.42 310.683 213.607 316.81 214.15 317.466C214.693 318.122 214.735 318.172 214.735 318.172C214.735 318.172 214.576 320.168 214.505 320.502Z" fill="#2F386C"/>
<path d="M390.86 195.973H335.084V237.841V246.662L343.6 237.841H390.86V195.973Z" fill="#F1CC5E"/>
<path d="M135.803 199.507H191.579V241.374V250.196L183.063 241.374H135.803V199.507Z" fill="#F1CC5E"/>
<path d="M362.333 230.74C361.223 230.669 360.165 230.244 359.313 229.529C358.87 229.166 358.511 228.71 358.264 228.193C358.016 227.676 357.885 227.111 357.881 226.538C357.677 224.452 357.198 222.401 356.456 220.44C354.733 219.068 353.486 217.189 352.891 215.068C352.296 212.947 352.383 210.693 353.14 208.625C353.898 206.557 355.287 204.779 357.111 203.545C358.935 202.31 361.101 201.68 363.302 201.746C365.504 201.811 367.629 202.567 369.377 203.907C371.125 205.248 372.407 207.104 373.04 209.213C373.674 211.323 373.628 213.578 372.909 215.66C372.19 217.741 370.833 219.544 369.032 220.812C368.314 222.673 367.843 224.621 367.633 226.605C367.608 228.915 365.411 230.782 362.73 230.757C362.575 230.757 362.442 230.753 362.333 230.74ZM363.72 202.626C361.652 202.463 359.587 202.971 357.832 204.075C356.076 205.179 354.724 206.82 353.976 208.754C353.228 210.688 353.124 212.812 353.68 214.81C354.236 216.808 355.422 218.573 357.062 219.843L357.158 219.918L357.2 220.035C357.994 222.112 358.504 224.287 358.716 226.501V226.526C358.721 226.976 358.826 227.42 359.022 227.826C359.219 228.232 359.502 228.589 359.852 228.873C360.655 229.54 361.669 229.903 362.713 229.896C364.931 229.896 366.744 228.422 366.756 226.58V226.547C366.976 224.434 367.479 222.36 368.251 220.382L368.302 220.257L368.414 220.177C370.057 219.049 371.309 217.439 371.998 215.569C372.687 213.7 372.78 211.662 372.262 209.738C371.745 207.813 370.644 206.097 369.11 204.825C367.576 203.553 365.686 202.787 363.699 202.635L363.72 202.626Z" fill="white"/>
<path d="M360.366 227.165L358.992 215.729L361.377 217.7L362.855 216.063L364.129 217.6L366.359 215.712L365.002 227.165L364.154 227.065L365.248 217.775L364.025 218.815L362.826 217.375L361.46 218.886L360.099 217.759L361.218 227.06L360.366 227.165Z" fill="white"/>
<path d="M366.447 229.715L359.004 229.666L358.985 232.665L366.427 232.714L366.447 229.715Z" fill="white"/>
<path d="M367.629 226.699L357.793 226.632L357.761 231.46L367.597 231.527L367.629 226.699Z" fill="white"/>
<path d="M170.57 214.71C170.298 214.425 169.99 214.175 169.656 213.966C169.209 213.675 168.742 213.418 168.256 213.198C167.692 212.943 167.108 212.734 166.511 212.571C165.873 212.394 165.22 212.282 164.56 212.237L164.535 219.396L165.191 219.538C166.333 219.812 167.458 220.151 168.561 220.553C169.471 220.876 170.327 221.333 171.101 221.911C171.78 222.432 172.329 223.104 172.705 223.874C173.104 224.758 173.296 225.723 173.264 226.693C173.292 227.774 173.063 228.846 172.596 229.821C172.167 230.674 171.543 231.414 170.775 231.981C169.961 232.571 169.045 233.007 168.073 233.267C166.994 233.561 165.882 233.716 164.765 233.727V237.36H162.965V233.66C161.347 233.548 159.753 233.21 158.228 232.657C156.746 232.12 155.359 231.35 154.118 230.377L155.893 227.061C156.225 227.402 156.595 227.705 156.996 227.963C157.536 228.32 158.103 228.634 158.692 228.902C159.379 229.223 160.09 229.493 160.818 229.709C161.602 229.943 162.406 230.107 163.219 230.197L163.24 223.034C163.103 222.987 162.964 222.946 162.822 222.913C162.681 222.88 162.542 222.839 162.405 222.792C161.32 222.507 160.252 222.163 159.205 221.76C158.384 221.451 157.62 221.009 156.942 220.453C156.361 219.967 155.897 219.358 155.584 218.669C155.255 217.886 155.098 217.042 155.125 216.193C155.108 215.159 155.311 214.134 155.722 213.185C156.11 212.32 156.68 211.548 157.393 210.922C158.13 210.279 158.98 209.778 159.899 209.443C160.919 209.075 161.986 208.851 163.069 208.779V205.283H164.869V208.775C166.291 208.858 167.691 209.167 169.017 209.689C170.205 210.159 171.328 210.78 172.358 211.536L170.57 214.71ZM159.147 215.574C159.122 215.995 159.203 216.416 159.383 216.797C159.564 217.178 159.837 217.507 160.179 217.755C161.13 218.356 162.177 218.792 163.274 219.045L163.294 212.229C161.886 212.29 160.847 212.615 160.179 213.202C159.841 213.496 159.573 213.861 159.395 214.272C159.216 214.682 159.132 215.127 159.147 215.574ZM169.113 227.094C169.136 226.637 169.037 226.183 168.826 225.777C168.614 225.372 168.298 225.03 167.91 224.788C166.852 224.163 165.712 223.688 164.522 223.377L164.497 230.231C165.976 230.231 167.112 229.938 167.91 229.395C168.294 229.15 168.607 228.809 168.818 228.405C169.029 228.001 169.13 227.549 169.113 227.094Z" fill="white"/>
<path d="M432.423 356.452C431.457 356.648 430.481 356.787 429.499 356.869C428.559 356.899 424.207 354.923 422.816 355.111C421.426 355.299 412.341 359.158 411.928 359.442C411.514 359.726 412.12 360.344 412.12 360.344L432.978 360.591L432.423 356.452Z" fill="#DBA585"/>
<path d="M404.728 363.378L439.419 363.638L439.443 360.46L404.752 360.199L404.728 363.378Z" fill="#363957"/>
<path d="M394.642 330.196L404.785 363.372L407.825 362.443L397.682 329.266L394.642 330.196Z" fill="#363957"/>
<path d="M468.109 427.54L469.445 430.435C469.445 430.435 475.08 428.346 475.109 428.263C475.138 428.179 473.555 424.245 473.555 424.245L468.109 427.54Z" fill="#525368"/>
<path d="M419.842 427.477L418.301 432.022C418.301 432.022 424.487 433.383 425.402 433.312C425.481 433.312 426.571 428.15 426.571 428.15L419.842 427.477Z" fill="#6A6B87"/>
<path d="M426.058 431.996C426.058 431.996 421.739 430.823 421.61 430.635C421.48 430.447 419.897 429.382 419.078 429.515C418.26 429.649 418.189 430.631 417.37 430.827C416.551 431.023 410.24 433.049 409.363 433.563C408.486 434.076 404.309 432.56 403.516 433.642C402.722 434.724 401.929 437.568 408.495 438.55C415.06 439.531 422.086 442.463 423.66 442.067C425.235 441.67 426.3 433.746 426.058 431.996Z" fill="#26283A"/>
<path d="M475.552 427.49C475.552 427.49 471.547 429.202 471.338 429.135C471.129 429.069 469.249 429.211 468.731 429.808C468.214 430.405 468.731 431.195 468.218 431.838C467.704 432.481 464.876 436.261 464.041 437.134C463.36 437.848 459.609 438.516 458.407 439.774C457.5 440.718 458.565 444.506 464.943 442.697C471.154 440.935 478.843 437.881 479.8 436.628C480.756 435.375 476.776 428.68 475.552 427.49Z" fill="#26283A"/>
<path d="M471.446 370.695C471.446 370.695 453.829 378.53 450.095 381.207C446.361 383.885 438.187 388.822 437.915 390.029C437.644 391.236 436.027 390.058 438.926 396.089C441.825 402.12 455.529 416.635 456.815 418.226C458.156 419.872 467.675 429.725 467.675 429.725L474.825 424.341C474.825 424.341 461.075 404.125 459.087 401.151C457.099 398.178 456.201 397.739 457.375 396.428C458.549 395.116 463.256 395.133 487.447 385.113C489.866 384.11 496.611 381.771 497.501 378.543C499.109 372.695 497.731 365.244 491.236 361.974C484.741 358.703 471.446 370.695 471.446 370.695Z" fill="#2E3048"/>
<path d="M463.068 313.987C463.285 314.231 463.454 314.515 463.565 314.822C463.872 315.577 464.132 316.35 464.346 317.136C465.144 319.93 465.87 323.518 465.87 323.518C465.87 323.518 475.953 315.114 474.529 314.588C473.105 314.062 472.048 311.606 472.048 311.606C472.048 311.606 462.003 313.043 463.068 313.987Z" fill="#DBA585"/>
<path d="M471.722 367.528C471.722 367.528 453.52 371.81 449.021 373.246C444.523 374.683 436.779 377.218 434.695 378.405C433.592 379.035 431.905 379.979 429.883 386.558C427.59 394.013 422.365 414.96 421.175 418.247C420.427 420.297 418.285 428.367 418.285 428.367L427.586 429.979C427.586 429.979 438.663 407.679 439.561 401.736C441.073 391.712 444.949 391.678 446.515 390.764C448.082 389.849 455.629 391.566 482.473 389.423C485.154 389.21 492.497 389.076 494.385 386.182C497.818 380.952 501.277 375.009 495.951 369.75C490.626 364.492 471.722 367.528 471.722 367.528Z" fill="#2E3048"/>
<path d="M459.513 292.936C459.513 292.936 456.364 298.366 457.078 299.853C457.792 301.34 453.791 304.923 454.447 305.7C455.103 306.477 456.46 307.371 456.439 307.601C456.418 307.83 457.605 314.914 459.15 315.069C460.695 315.223 471.263 314.68 472.14 311.376C473.017 308.073 475.594 300.83 476.199 299.485C476.805 298.14 470.715 287.728 459.513 292.936Z" fill="#DBA585"/>
<path d="M472.541 291.875C473.345 292.463 474.071 293.153 474.7 293.926C475.393 294.252 479.478 296.282 478.63 298.474C477.486 301.427 472.866 309.334 472.474 310.169C472.424 310.278 472.424 310.073 472.474 309.631C472.19 306.836 468.752 303.708 468.752 303.708L466.919 302.873C467.489 301.823 467.693 300.614 467.499 299.435C465.411 297.209 458.523 294.811 458.523 294.811C459.497 284.967 467.917 288.442 472.541 291.875Z" fill="#EECAA2"/>
<path d="M469.42 301.385C469.905 300.638 472.482 300.759 472.106 302.956C471.73 305.153 468.573 306.911 467.883 305.934C467.194 304.957 468.898 302.175 469.42 301.385Z" fill="#DBA585"/>
<path d="M474.529 314.601C474.529 314.601 487.297 322.044 490.179 335.038C493.061 348.032 498.273 370.853 498.365 373.556C498.365 373.556 481.082 365.24 471.722 367.529C471.722 367.529 465.828 346.352 462.725 341.349C459.622 336.345 464.233 324.592 464.233 324.592C464.233 324.592 468.639 317.533 474.529 314.601Z" fill="#70A9ED"/>
<path d="M521.095 320.415L510.804 350.596C510.726 350.825 510.678 351.064 510.662 351.306L508.193 390.985L465.173 391.942L452.643 437.581C452.452 438.263 452.415 438.98 452.535 439.678C452.655 440.377 452.929 441.04 453.336 441.62C453.601 442.043 453.953 442.404 454.37 442.678C454.787 442.953 455.257 443.134 455.75 443.211C458.478 443.545 513.719 443.211 513.719 443.211V440.931C513.712 440.382 513.488 439.858 513.097 439.473C512.707 439.087 512.18 438.871 511.631 438.871H459.96C459.541 438.875 459.126 438.785 458.746 438.606C458.367 438.428 458.032 438.166 457.768 437.84C457.603 437.647 457.481 437.421 457.409 437.178C457.337 436.935 457.317 436.68 457.35 436.428C457.575 434.975 468.602 397.789 468.602 397.789L510.211 397.05C511.111 397.043 511.974 396.693 512.626 396.073C513.277 395.452 513.668 394.607 513.719 393.708L515.528 351.005C515.541 350.734 515.586 350.465 515.661 350.203L524.069 321.35C524.069 321.35 524.951 319.341 523.33 319.145C521.709 318.949 521.275 319.893 521.095 320.415Z" fill="#5E5E5B"/>
<path d="M464.935 392.79C464.935 392.79 464.905 389.494 469.42 389.264C474.604 389.001 508.331 388.767 508.331 388.767L508.11 392.272L464.935 392.79Z" fill="#C59661"/>
<path d="M444.105 365.929V367.466H370.808V365.929C370.808 364.496 371.772 363.331 372.959 363.331H441.954C443.14 363.331 444.105 364.496 444.105 365.929Z" fill="#C59661"/>
<path d="M397.113 442.464H374.976V438.922H393.583C394.523 438.922 395.425 439.295 396.089 439.959C396.754 440.623 397.128 441.524 397.13 442.464H397.113Z" fill="#7B6F66"/>
<path d="M379.295 367.466H376.367V442.447H379.295V367.466Z" fill="#7B6F66"/>
<path d="M385.175 367.466H382.248V442.447H385.175V367.466Z" fill="#7B6F66"/>
<path d="M463.565 314.835C463.872 315.59 464.133 316.362 464.346 317.149C465.854 316.522 468.732 313.866 468.823 313.782C467.621 314.237 463.565 314.835 463.565 314.835Z" fill="#997761"/>
<path d="M413.005 367.466H360.662V365.929C360.683 365.22 360.984 364.549 361.499 364.061C362.014 363.574 362.702 363.312 363.41 363.331H404.827L413.005 367.466Z" fill="#CEAF8A"/>
<path d="M468.924 324.679C468.924 324.679 465.883 328.99 463.999 332.256C461.869 335.952 459.777 339.607 459.313 340.43C458.373 342.1 455.028 342.99 453.545 343.625C452.183 344.21 429.499 356.352 429.211 356.326C428.923 356.301 431.655 360.85 431.655 360.85C431.655 360.85 463.151 351.82 464.567 350.525C465.983 349.23 470.185 343.341 471.906 340.918C473.543 338.609 476.053 334.82 477.386 333.187C478.873 331.358 481.98 325.109 478.025 321.994C472.95 317.996 470.143 322.833 468.924 324.679Z" fill="#70A9ED"/>
<path d="M477.553 332.945C477.553 332.945 473.91 342.827 471.705 346.194C470.297 348.339 468.763 350.399 467.111 352.363L465.945 348.955C465.945 348.955 475.376 335.986 477.553 332.945Z" fill="#46688D"/>
<path d="M135.465 426.446C135.465 426.446 132.775 433.371 131.288 434.582C129.801 435.793 126.451 437.948 127.291 439.001C128.131 440.054 134.078 440.212 135.498 439.582C136.918 438.951 137.148 436.658 139.04 435.914C140.932 435.171 139.495 431.266 139.303 429.858C139.049 428.025 138.56 427.77 138.56 426.817C138.56 425.865 135.465 426.446 135.465 426.446Z" fill="#E6D8D1"/>
<path d="M161.231 424.65C161.231 424.65 161.904 427.431 162.221 428.167C163.104 429.893 164.088 431.567 165.166 433.179C165.583 433.651 171.635 436.282 170.846 437.121C170.057 437.961 169.058 438.963 164.902 438.015C160.747 437.067 159.473 433.839 156.219 433.542C152.965 433.245 153.934 429.653 155.196 428.079C156.19 426.706 157.055 425.245 157.781 423.714L161.231 424.65Z" fill="#E6D8D1"/>
<path d="M176.973 383.901C176.422 387.61 165.341 408.03 161.749 425.769C161.723 425.902 161.688 426.033 161.645 426.162C159.906 425.951 158.199 425.53 156.561 424.909C156.649 422.294 159.067 401.298 160.32 397.384C161.636 393.278 165.608 384.599 165.454 381.813C165.299 379.027 163.503 377.164 162.292 375.799C161.594 375.009 157.255 368.698 153.692 363.268C151.65 360.157 149.862 357.341 149.169 356.047C149.03 355.828 148.927 355.588 148.864 355.337C148.864 354.338 133.163 327.177 161.106 331.629C161.106 331.629 161.82 336.224 161.974 337.059C162.079 337.619 164.422 343.166 166.431 348.441C167.525 351.327 168.519 354.13 168.996 355.997C169.559 358.206 170.533 361.564 171.531 364.83C172.918 369.37 174.342 373.739 174.755 374.608C175.474 376.091 177.529 380.192 176.973 383.901Z" fill="#414D99"/>
<path d="M149.52 354.556C149.52 354.556 147.377 363.795 146.178 367.504C144.979 371.212 142.607 379.311 142.498 381.445C142.39 383.58 142.39 388.229 142.235 390.121C142.081 392.013 142.277 399.619 141.772 403.486C141.266 407.354 139.266 426.074 139.119 427.256C139.121 427.284 139.121 427.312 139.119 427.34C137.601 427.59 136.056 427.639 134.525 427.486V427.423C133.422 422.265 132.24 403.152 132.161 400.074C132.082 396.995 132.95 389.979 132.637 387.848C132.324 385.718 129.4 363.866 130.348 355.028C131.296 346.19 134.32 331.6 134.32 331.6C134.32 331.6 165.692 320.315 149.52 354.556Z" fill="#414D99"/>
<path d="M163.595 339.92C163.516 339.135 162.693 333.613 161.983 330.055C161.273 326.496 160.684 323.243 160.287 321.822C160.262 321.731 160.22 321.563 160.166 321.346C159.907 320.298 159.33 317.955 158.758 315.758L158.633 315.298V314.463C158.215 312.943 158.863 312.157 158.996 310.992C159.038 310.597 159.016 310.198 158.93 309.81V309.76C158.518 308.196 158.251 306.598 158.132 304.986C158.132 301.753 156.632 286.161 156.632 286.161C156.632 286.161 161.615 288.496 162.325 291.967C163.035 295.438 163.236 303.102 163.315 304.681C163.394 306.26 165.863 318.093 166.101 320.774C166.253 323.069 166.635 325.343 167.241 327.561C167.797 329.374 167.321 338.6 167.479 340.02C167.638 341.441 163.674 340.714 163.595 339.92Z" fill="#DBA585"/>
<path d="M153.421 272.19C153.421 272.19 157.313 260.763 149.883 257.221C142.452 253.679 136.133 258.8 134.943 261.569C133.752 264.338 134.066 269.379 135.085 272.892C136.104 276.404 135.953 281.751 133.744 283.538C131.534 285.326 129.567 289.219 127.788 292.518C126.009 295.818 143.689 284.75 143.689 284.75L153.421 272.19Z" fill="#2E4254"/>
<path d="M146.813 259.171C146.813 259.171 154.544 261.46 153.441 272.19C152.339 282.92 147.264 282.365 146.813 282.444C146.362 282.523 140.343 282.916 138.459 269.914C136.576 256.911 146.813 259.171 146.813 259.171Z" fill="#DBA585"/>
<path d="M150.451 284.219C150.451 284.219 157.969 286.153 158.671 287.414C159.373 288.676 159.46 294.197 159.924 296.014C160.387 297.831 161.423 301.686 160.713 303.265C160.003 304.844 159.214 306.352 159.46 307.442C159.707 308.532 160.329 311.619 159.773 313.991C159.218 316.363 158.909 321.246 159.619 324.642C160.329 328.037 161.039 331.032 161.118 331.584C161.198 332.135 134.32 331.584 134.32 331.584C134.32 331.584 136.501 324.007 137.29 322.269C138.079 320.532 136.58 313.828 135.87 312.245C135.16 310.662 132.086 304.276 132.086 303.566C132.086 303.566 128.828 292.443 129.116 292.051C129.404 291.658 129.229 290.017 132.324 288.091C134.701 286.617 141.738 284.862 143.71 284.549C145.681 284.236 150.451 284.219 150.451 284.219Z" fill="#E6D8D1"/>
<path d="M150.476 280.468C150.476 280.468 150.142 284.294 150.827 286.5C151.512 288.705 143.096 288.588 142.411 286.917C141.726 285.247 142.741 282.895 141.813 279.357C140.886 275.82 150.476 280.468 150.476 280.468Z" fill="#DBA585"/>
<path d="M158.119 293.667C158.119 293.667 160.258 296.428 161.072 299.439C161.427 300.738 161.465 302.104 161.183 303.42C160.901 304.737 160.307 305.967 159.452 307.007C159.452 307.007 152.293 306.648 149.766 306.703C147.239 306.757 139.278 307.626 134.847 310.044C134.847 310.044 131.505 303.958 131.605 303.111C131.706 302.263 133.757 296.578 136.977 295.956C142.991 294.799 146.98 302.321 148.872 302.112C150.764 301.904 152.072 294.481 158.119 293.667Z" fill="#E6D8D1"/>
<path d="M144.796 263.954C144.796 263.954 148.997 270.636 153.421 272.19C153.421 272.19 155.835 260.976 145.861 258.624C135.887 256.273 137.453 269.964 138.196 273.598C139.735 269.977 141.978 266.699 144.796 263.954Z" fill="#2E4254"/>
<path d="M142.962 280.924C142.962 280.924 146.02 284.11 149.933 281.258C149.933 281.258 149.607 283.292 146.796 283.555C143.985 283.818 142.962 280.924 142.962 280.924Z" fill="#997761"/>
<path d="M153.701 363.235C151.658 360.123 149.871 357.308 149.177 356.013C149.177 356.013 151.934 349.042 152.222 346.323C152.51 343.604 153.701 363.235 153.701 363.235Z" fill="#343D77"/>
<path d="M141.049 285.138C141.049 285.138 144.524 291.144 148.375 292.105C152.226 293.066 152.113 287.214 150.99 284.361C150.99 284.361 150.869 284.056 147.093 283.998C143.154 283.944 141.049 285.138 141.049 285.138Z" fill="#DBA585"/>
<path d="M132.829 329.077C132.131 325.097 132.628 320.999 134.259 317.301C135.89 313.604 138.58 310.473 141.99 308.304C145.401 306.136 149.377 305.027 153.417 305.119C157.457 305.211 161.38 306.498 164.688 308.819C167.996 311.139 170.542 314.389 172.004 318.157C173.465 321.924 173.777 326.041 172.899 329.985C172.021 333.93 169.993 337.526 167.072 340.318C164.15 343.11 160.467 344.973 156.486 345.671C153.843 346.136 151.135 346.075 148.515 345.492C145.896 344.91 143.417 343.816 141.22 342.275C139.023 340.734 137.151 338.776 135.711 336.511C134.272 334.247 133.292 331.72 132.829 329.077Z" fill="#E7B96B"/>
<path d="M157.673 345.425L150.626 305.249C155.797 304.664 160.996 306.074 165.163 309.191C169.329 312.308 172.15 316.897 173.049 322.023C173.947 327.148 172.857 332.423 170 336.772C167.142 341.121 162.734 344.216 157.673 345.425Z" fill="#E7B96B"/>
<path d="M132.829 329.077C132.043 324.594 132.776 319.976 134.912 315.956C137.048 311.936 140.464 308.744 144.62 306.886L151.47 345.93C146.931 345.594 142.634 343.754 139.258 340.702C135.882 337.65 133.62 333.559 132.829 329.077Z" fill="#E7B96B"/>
<path d="M137.432 325.143C137.512 322.073 138.5 319.095 140.272 316.586C142.044 314.077 144.52 312.15 147.387 311.049C150.254 309.947 153.384 309.721 156.38 310.398C159.376 311.075 162.103 312.625 164.218 314.853C166.333 317.08 167.74 319.885 168.26 322.912C168.781 325.939 168.393 329.052 167.144 331.859C165.895 334.665 163.842 337.038 161.245 338.677C158.647 340.316 155.622 341.149 152.552 341.069C150.513 341.016 148.505 340.563 146.642 339.734C144.778 338.905 143.097 337.717 141.693 336.238C140.289 334.759 139.19 333.018 138.459 331.114C137.728 329.211 137.379 327.182 137.432 325.143Z" fill="#E09637"/>
<path d="M158.696 323.506C158.585 323.275 158.445 323.06 158.278 322.867C158.051 322.601 157.806 322.353 157.543 322.123C157.236 321.858 156.909 321.616 156.565 321.401C156.196 321.173 155.806 320.982 155.4 320.828L154.047 325.323L154.431 325.531C155.098 325.912 155.742 326.33 156.361 326.784C156.872 327.158 157.324 327.605 157.702 328.113C158.031 328.566 158.251 329.089 158.345 329.641C158.431 330.273 158.371 330.916 158.169 331.521C157.984 332.206 157.639 332.837 157.163 333.363C156.735 333.818 156.205 334.164 155.617 334.374C154.996 334.594 154.339 334.698 153.679 334.678C152.947 334.662 152.22 334.551 151.516 334.349L150.827 336.629L149.699 336.291L150.396 333.968C149.402 333.594 148.465 333.084 147.611 332.452C146.779 331.837 146.051 331.094 145.451 330.251L147.189 328.501C147.331 328.779 147.506 329.038 147.711 329.274C147.983 329.598 148.281 329.902 148.6 330.18C148.973 330.509 149.37 330.811 149.787 331.082C150.234 331.378 150.708 331.631 151.203 331.838L152.556 327.344C152.476 327.29 152.397 327.235 152.309 327.185C152.222 327.135 152.138 327.085 152.059 327.031C151.43 326.648 150.823 326.229 150.242 325.778C149.782 325.429 149.384 325.005 149.064 324.525C148.789 324.111 148.612 323.639 148.546 323.146C148.484 322.595 148.543 322.036 148.717 321.509C148.9 320.856 149.221 320.249 149.657 319.73C150.061 319.257 150.562 318.878 151.127 318.619C151.712 318.353 152.341 318.197 152.982 318.159C153.691 318.119 154.402 318.178 155.095 318.335L155.755 316.142L156.887 316.48L156.227 318.673C157.106 318.99 157.928 319.445 158.662 320.022C159.323 320.54 159.914 321.141 160.421 321.81L158.696 323.506ZM151.361 321.914C151.265 322.173 151.235 322.451 151.274 322.724C151.313 322.997 151.421 323.256 151.587 323.476C152.073 324.031 152.649 324.499 153.291 324.863L154.577 320.586C153.881 320.358 153.129 320.368 152.439 320.615C152.174 320.738 151.939 320.918 151.753 321.143C151.567 321.368 151.433 321.631 151.361 321.914ZM155.467 331.015C155.567 330.733 155.59 330.429 155.533 330.136C155.476 329.842 155.34 329.568 155.141 329.345C154.596 328.751 153.969 328.239 153.278 327.824L151.984 332.126C152.723 332.383 153.519 332.425 154.281 332.248C154.569 332.163 154.83 332.005 155.038 331.789C155.246 331.573 155.394 331.306 155.467 331.015Z" fill="#EAC483"/>
<g style="mix-blend-mode:soft-light">
<path d="M160.88 344.381C165.155 342.59 168.694 339.4 170.916 335.333C173.139 331.266 173.914 326.565 173.113 322C172.312 317.435 169.984 313.278 166.509 310.211C163.035 307.144 158.622 305.349 153.993 305.12L160.88 344.381Z" fill="#F7F7F7"/>
</g>
<g style="mix-blend-mode:soft-light">
<path d="M151.47 345.931L144.62 306.886C146.155 306.203 147.768 305.712 149.423 305.424C149.841 305.353 150.229 305.291 150.63 305.249L157.672 345.425C157.28 345.517 156.883 345.601 156.482 345.672C154.828 345.962 153.145 346.049 151.47 345.931Z" fill="#F7F7F7"/>
</g>
<path d="M131.104 288.889C129.084 290.589 127.408 292.66 126.167 294.991C124.037 298.934 119.146 305.876 118.198 308.164C117.25 310.453 114.097 314.313 113.641 317.282C113.199 320.206 114.381 321.254 116.273 322.516C118.165 323.777 131.605 327.912 131.605 327.912C131.605 327.912 133.982 324.099 132.775 323.844C130.582 323.376 125.353 320.122 124.467 319.6C123.503 319.032 121.126 317.007 122.312 316.058C123.498 315.11 131.53 303.353 133.172 301.064C134.813 298.775 137.825 293.174 136.722 290.334C135.619 287.494 133.059 287.815 131.104 288.889Z" fill="#DBA585"/>
<path d="M130.056 323.109C130.428 323.305 130.849 323.389 131.267 323.351C132.27 323.18 133.222 321.969 134.45 322.725C135.678 323.481 134.204 327.791 133.493 328.384C132.783 328.977 130.816 328.443 128.481 326.567C126.147 324.692 130.056 323.109 130.056 323.109Z" fill="#DBA585"/>
<path d="M133.999 322.528C135.517 322.77 137.023 323.088 138.51 323.481C140.577 324.036 142.862 325.051 142.912 325.485C142.962 325.92 140.761 325.218 138.672 324.8C136.751 324.412 137.06 324.8 137.06 324.8C137.06 324.8 136.977 324.688 138.982 325.494C141.141 326.363 143.259 327.461 143.254 328C143.254 328.25 143.112 328.351 142.277 328.154C142.732 328.367 142.732 328.514 142.657 328.702C142.269 329.675 138.898 328.864 137.545 328.543C138.572 328.798 139.303 329.086 138.652 329.537C137.908 330.051 133.18 328.702 131.438 328.376C129.538 327.987 133.999 322.528 133.999 322.528Z" fill="#DBA585"/>
<path d="M169.785 317.829C169.785 317.829 172.901 317.103 173.903 318.606C174.721 319.892 175.004 321.446 174.693 322.938C174.442 323.831 173.636 326.129 172.579 325.657C169.179 324.14 169.785 317.829 169.785 317.829Z" fill="#DBA585"/>
<path d="M172.851 317.863C172.851 317.863 172.433 315.775 171.573 316.117C170.712 316.46 171.489 317.867 171.489 317.867L172.851 317.863Z" fill="#DBA585"/>
<path d="M132.387 328.589C131.814 330.924 131.476 330.94 131.322 330.949C131.058 330.949 130.929 330.581 130.854 330.301C130.668 329.537 130.583 328.752 130.603 327.966C130.637 326.421 130.817 324.883 131.142 323.372C131.142 323.372 131.142 323.28 131.142 323.272L131.276 323.305H131.401C131.07 324.877 130.885 326.477 130.85 328.083C130.84 328.803 130.92 329.522 131.088 330.222C131.205 330.64 131.305 330.673 131.305 330.673C131.305 330.673 131.426 330.644 131.601 330.23C131.819 329.678 131.994 329.11 132.123 328.53C132.22 328.564 132.307 328.58 132.387 328.589Z" fill="#2D374B"/>
<path d="M333.401 431.395C333.401 431.395 334.804 434.022 335.723 435.062C336.642 436.102 340.163 437.986 340.184 441.06C340.184 444.402 334.249 443.483 331.922 443.357C329.596 443.232 329.416 441.445 328.439 439.544C327.461 437.644 326.467 437.965 326.288 436.437C326.108 434.908 327.248 431.395 327.248 431.395H333.401Z" fill="#26283A"/>
<path d="M297.961 431.09C297.961 431.09 295.092 434.294 292.18 434.966C289.269 435.639 287.231 436.491 287.21 438.308C287.189 440.125 295.589 441.357 298.905 439.502C303.879 436.737 304.385 437.573 304.936 436.19C305.487 434.808 304.276 431.111 304.31 430.673C304.372 430.15 297.961 431.09 297.961 431.09Z" fill="#26283A"/>
<path d="M298.283 429.557C298.146 430.062 298.039 430.574 297.961 431.09C298.019 431.124 304.523 431.896 304.326 430.673C304.168 429.695 303.942 428.634 303.942 428.634L298.283 429.557Z" fill="#807F7D"/>
<path d="M327.315 430.384C327.214 430.868 327.141 431.358 327.098 431.85C327.148 431.884 333.693 433.053 333.656 431.85C333.585 431.137 333.381 430.442 333.054 429.804L327.315 430.384Z" fill="#807F7D"/>
<path d="M304.201 339.741C304.201 339.741 301.833 362.713 300.605 370.586C299.164 379.775 298.675 387.381 298.274 392.142C297.769 398.132 297.673 427.586 297.318 429.315C296.963 431.044 305.158 429.8 305.158 429.8C305.158 429.8 309.188 391.315 310.692 384.937C312.091 378.998 317.287 353.432 318.561 355.057C319.835 356.682 321.422 384.887 322.37 389.569C323.318 394.251 326.192 430.919 326.192 430.919C326.192 430.919 332.712 432.214 334.445 430.748C334.445 430.748 335.234 399.151 334.633 390.371C334.403 387.03 338.551 350.249 333.229 335.447C330.419 327.645 304.201 339.741 304.201 339.741Z" fill="#2E3048"/>
<path d="M325.44 334.645C325.44 334.645 323.861 332.256 322.19 331.951C320.52 331.646 345.221 319.701 345.162 315.436C345.112 311.974 336.512 305.596 336.512 305.596V305.537C336.324 306.218 333.518 316.439 333.43 320.991C333.334 325.719 333.71 341.984 333.71 341.984L327.378 343.679L307.154 343.867L302.56 341.984C302.56 341.984 303.065 336.754 303.253 333.079C303.37 330.744 303.821 326.563 303.704 322.495C303.704 322.495 303.779 318.201 303.353 316.355C303.307 308.198 302.814 300.12 302.814 300.12C302.539 296.42 302.351 292.965 302.242 289.737C303.132 289.265 304.205 288.713 305.066 288.304C307.722 287.051 311.423 285.334 313.799 284.244C315.19 283.605 316.552 283.142 316.552 283.142C316.552 283.142 326.041 282.231 326.814 282.277C327.83 282.554 328.828 282.896 329.8 283.3C333.167 284.578 339.653 287.181 340.689 287.92C342.205 289.006 352.129 315.257 352.271 317.061C352.505 320.319 325.44 334.645 325.44 334.645Z" fill="#D8D6E1"/>
<path d="M303.14 340.259C303.14 340.259 317.032 341.441 329.199 340.259V344.251C329.199 344.251 311.08 345.981 302.53 343.491L303.14 340.259Z" fill="#232536"/>
<path d="M301.988 289.682C302.096 292.961 302.255 296.478 302.535 300.245C302.535 300.245 302.798 309.434 303.328 318.172C303.527 319.44 303.583 320.726 303.495 322.006C303.366 323.714 303.178 325.577 302.957 327.519C302.957 327.544 302.957 327.569 302.957 327.594C302.906 328.054 302.848 328.518 302.794 328.985C301.612 338.709 299.611 349.869 298.567 353.236C298.35 353.941 299.11 354.593 299.653 355.094L303.449 357.487C303.449 357.487 305.016 343.069 305.538 338.174C306.039 333.446 307.626 327.114 308.311 320.941C309.188 313.114 310.4 305.441 311.047 300.893C312.743 289.026 315.002 283.718 315.002 283.718C313.908 284.048 301.988 289.682 301.988 289.682Z" fill="#70A9ED"/>
<path d="M342.318 314.237C343.968 317.85 327.198 324.291 327.578 325.181C328.485 327.319 332.173 331.675 332.173 331.675C332.173 331.675 354.251 320.753 354.001 318.281C353.821 316.476 343.479 289.223 341.963 288.137C341.09 287.51 334.604 285.213 331.425 283.96C330.841 283.731 328.857 282.987 328.334 282.791C327.662 283.538 323.009 288.672 321.368 308.073C321.088 311.339 321.965 318.26 322.545 323.915C323.172 329.942 323.861 334.645 324.367 339.686C325.361 349.619 326.037 357.521 326.037 357.521L335.924 353.123C337.523 352.321 340.288 350.233 339.683 348.529C337.398 342.126 333.969 329.996 333.965 324.379C333.965 324.379 335.581 308.883 336.471 305.859C336.496 305.884 340.476 310.19 342.318 314.237Z" fill="#70A9ED"/>
<path d="M325.907 283.292C325.907 283.292 325.974 280.034 327.227 273.439C327.566 271.677 316.982 278.084 316.982 278.084C316.982 278.084 317.015 278.702 317.036 279.537C317.036 279.98 317.036 280.481 317.036 280.982C317.036 281.158 317.036 281.333 317.036 281.509C317.036 281.972 317.003 282.423 316.965 282.799C316.893 283.228 316.775 283.648 316.614 284.052C316.184 285.08 322.345 285.836 325.907 283.292Z" fill="#DBA686"/>
<path d="M319.312 286.708L317.558 289.064C317.558 289.064 318.586 290.438 320.411 289.423L319.312 286.708Z" fill="#2E3048"/>
<path d="M318.018 289.177C318.018 289.177 311.377 314.772 312.734 334.704L314.973 338.646L317.061 334.516C317.061 334.516 317.634 298.85 319.459 289.089L318.018 289.177Z" fill="#2E3048"/>
<path d="M317.425 284.511L319.304 286.708C319.304 286.708 322.316 286.124 323.201 284.549C324.087 282.974 317.425 284.511 317.425 284.511Z" fill="#DBA686"/>
<path d="M316.995 282.586C316.995 282.586 317.212 284.257 319.304 286.708L317.02 289.774L315.767 283.413L316.995 282.586Z" fill="#C1BFC9"/>
<path d="M326.108 280.723C326.108 280.723 322.349 285.501 319.304 286.708L320.72 290.213L327.198 282.385L326.108 280.723Z" fill="#C1BFC9"/>
<path d="M263.319 316.155C263.319 316.155 256.348 316.99 255.956 317.408C255.563 317.825 255.659 318.243 256.315 318.184C256.97 318.126 263.085 317.596 263.085 317.596C263.085 317.596 255.095 319.955 254.69 320.244C254.452 320.411 254.59 321.15 254.945 321.158C255.3 321.167 263.386 319.287 263.386 319.287C263.386 319.287 255.93 321.505 255.672 321.856C255.619 321.953 255.596 322.064 255.604 322.174C255.613 322.284 255.653 322.39 255.72 322.478C255.787 322.566 255.878 322.633 255.982 322.671C256.086 322.708 256.199 322.716 256.306 322.691C256.87 322.566 263.933 320.908 263.933 320.908C263.933 320.908 258.633 322.871 258.599 323.309C258.574 323.577 258.666 324.216 260.011 323.669C261.356 323.121 264.706 322.161 264.706 322.161L263.319 316.155Z" fill="#DBA585"/>
<path d="M271.56 316.485C271.56 316.485 269.238 316.606 268.528 315.432C267.926 314.434 266.439 313.527 266.021 313.252C265.416 312.876 263.933 311.067 263.515 311.794C263.098 312.521 265.817 314.885 266.301 315.49C266.786 316.096 263.436 315.871 262.826 316.326C262.216 316.781 262.546 322.299 264.844 322.173C267.141 322.048 269.409 320.419 269.822 320.503C270.379 320.535 270.937 320.535 271.493 320.503L271.56 316.485Z" fill="#DBA585"/>
<path d="M270.591 321.956C270.591 321.956 287.686 319.563 291.475 318.615C293.229 318.197 295.539 315.766 297.74 312.918C298.462 311.982 299.172 310.996 299.828 310.023C302.522 306.135 304.631 302.405 304.631 302.405C304.631 302.405 312.592 293.074 306.206 288.918C306.206 288.918 303.466 288.855 301.962 289.674C300.459 290.493 297.126 297.384 296.566 298.604C296.006 299.824 289.958 311.134 289.553 311.381C289.148 311.627 283.109 312.947 280.419 313.511L269.196 315.841L270.591 321.956Z" fill="#70A9ED"/>
<path d="M313.381 345.4H319.88V340.472H313.381V345.4Z" fill="#3E4265"/>
<path d="M324.237 334.937C324.632 334.928 325.023 334.855 325.394 334.72C325.394 334.72 325.995 334.332 326.442 334.081C326.557 334.015 326.675 333.956 326.797 333.906C327.49 333.702 328.146 333.389 328.739 332.978C329.5 332.398 331.981 330.076 331.981 330.076L330.377 327.616L329.637 325.172C329.637 325.172 323.857 325.749 323.084 326.208C323.01 326.251 322.939 326.298 322.871 326.35C322.257 326.801 321.986 327.394 321.693 327.67C321.585 327.77 320.574 328.848 320.632 329.286C320.647 329.53 320.723 329.767 320.855 329.973C320.987 330.179 321.169 330.348 321.384 330.464C321.384 330.464 321.589 331.646 322.22 332.176C322.272 332.5 322.399 332.807 322.589 333.073C322.78 333.34 323.029 333.559 323.318 333.714C323.318 333.714 323.581 334.808 324.237 334.937Z" fill="#DCA787"/>
<path d="M332.185 331.667C330.115 329.86 328.436 327.65 327.249 325.172L337.118 319.772L340.777 327.227L332.185 331.667Z" fill="#70A9ED"/>
<path d="M311.41 261.861C311.41 261.861 309.084 266.171 310.237 266.84C311.189 267.395 309.121 271.626 308.85 272.315C308.578 273.005 310.575 273.51 311.001 273.953C311.427 274.395 312.672 279.871 314.321 280.034C315.971 280.197 323.368 277.624 325.386 275.531C327.403 273.439 329.057 263.966 327.712 259.973C326.367 255.98 315.512 254.33 311.41 261.861Z" fill="#DBA585"/>
<path d="M310.959 262.792C310.959 262.792 308.587 258.14 312.897 254.685C317.207 251.231 325.156 257.296 326.05 257.526C326.943 257.755 332.031 258.106 329.462 267.032C327.261 274.692 326.956 275.014 326.956 275.014C326.956 275.014 325.31 270.578 324.379 269.901C322.921 268.845 319.73 269.095 319.73 269.095C319.73 269.095 321.25 265.06 318.895 264.501C316.539 263.941 313.352 261.903 310.959 262.792Z" fill="#1F2531"/>
<path d="M322.236 266.785C322.449 266.23 323.126 263.862 325.16 265.248C327.194 266.635 323.907 271.133 323.531 271.192C323.155 271.25 320.482 271.442 322.236 266.785Z" fill="#DBA585"/>
<path d="M317.053 280.982C317.053 281.158 317.053 281.333 317.053 281.508C323.105 279.474 324.279 276.421 324.279 276.421C322.391 277.754 317.044 279.537 317.044 279.537C317.049 279.988 317.053 280.481 317.053 280.982Z" fill="#997761"/>
<defs>
<linearGradient id="paint0_linear" x1="468.619" y1="432.515" x2="62.4588" y2="206.982" gradientUnits="userSpaceOnUse">
<stop stop-color="#D256EC"/>
<stop offset="0.09" stop-color="#B346DB"/>
<stop offset="0.22" stop-color="#8E32C6"/>
<stop offset="0.35" stop-color="#6F22B6"/>
<stop offset="0.49" stop-color="#5715A9"/>
<stop offset="0.64" stop-color="#460C9F"/>
<stop offset="0.8" stop-color="#3C079A"/>
<stop offset="1" stop-color="#390598"/>
</linearGradient>
<linearGradient id="paint1_linear" x1="416.773" y1="378.715" x2="127.421" y2="84.8148" gradientUnits="userSpaceOnUse">
<stop stop-color="#390598"/>
<stop offset="0.2" stop-color="#3C079A"/>
<stop offset="0.36" stop-color="#460C9F"/>
<stop offset="0.51" stop-color="#5715A9"/>
<stop offset="0.65" stop-color="#6F22B6"/>
<stop offset="0.78" stop-color="#8E32C6"/>
<stop offset="0.91" stop-color="#B346DB"/>
<stop offset="1" stop-color="#D256EC"/>
</linearGradient>
<linearGradient id="paint2_linear" x1="163.908" y1="111.586" x2="254.276" y2="111.586" gradientUnits="userSpaceOnUse">
<stop stop-color="#E79D5A"/>
<stop offset="1" stop-color="#F2D05F"/>
</linearGradient>
<linearGradient id="paint3_linear" x1="23181" y1="25126.7" x2="31276.4" y2="25126.7" gradientUnits="userSpaceOnUse">
<stop stop-color="#E79D5A"/>
<stop offset="1" stop-color="#F2D05F"/>
</linearGradient>
<linearGradient id="paint4_linear" x1="126056" y1="131053" x2="328557" y2="404044" gradientUnits="userSpaceOnUse">
<stop stop-color="#E79D5A"/>
<stop offset="1" stop-color="#F2D05F"/>
</linearGradient>
<linearGradient id="paint5_linear" x1="217758" y1="94878.6" x2="217758" y2="176240" gradientUnits="userSpaceOnUse">
<stop stop-color="#E0E8EE"/>
<stop offset="1" stop-color="#FCF8F4"/>
</linearGradient>
<linearGradient id="paint6_linear" x1="34471" y1="41166.8" x2="37713.6" y2="41166.8" gradientUnits="userSpaceOnUse">
<stop stop-color="#E79D5A"/>
<stop offset="1" stop-color="#F2D05F"/>
</linearGradient>
<linearGradient id="paint7_linear" x1="38178.4" y1="27619.9" x2="35530.9" y2="23438.5" gradientUnits="userSpaceOnUse">
<stop stop-color="#E79D5A"/>
<stop offset="1" stop-color="#F2D05F"/>
</linearGradient>
</defs>
</svg>
