<svg width="70" height="70" viewBox="0 0 70 70" fill="none" xmlns="http://www.w3.org/2000/svg">
<circle cx="35" cy="35" r="35" fill="url(#paint0_linear)"/>
<path d="M17.3347 45.875H49.6655C49.9203 45.875 50.1564 45.7439 50.2906 45.5289C50.4247 45.3138 50.4369 45.0454 50.3228 44.8196L48.0834 40.5985V26.9167C48.0834 25.3081 46.8778 24 45.2568 24H21.7434C20.1224 24 18.9167 25.3081 18.9167 26.9167V40.5985L16.6773 44.8197C16.5632 45.0454 16.5754 45.3139 16.7096 45.5289C16.8439 45.7439 17.0799 45.875 17.3347 45.875ZM21.8334 26.9167H45.1667V40.0417H21.8334V26.9167Z" fill="white"/>
<path d="M50.8659 47.6423C50.7282 47.4486 50.5042 47.3333 50.2653 47.3333H37.7824C37.5873 47.3333 37.4007 47.4102 37.2629 47.5469L36.9586 47.8488C36.8216 47.9849 36.6322 48.0624 36.4391 48.0624H30.5608C30.3677 48.0624 30.1783 47.9849 30.0412 47.8488L29.737 47.5469C29.5992 47.4102 29.4126 47.3333 29.2174 47.3333H16.7347C16.4957 47.3333 16.2718 47.4486 16.1341 47.6423C15.997 47.8353 15.9626 48.0831 16.0422 48.3067C16.4584 49.4688 17.5685 50.2499 18.8042 50.2499H48.1959C49.4315 50.2499 50.5416 49.4688 50.9578 48.3067C51.0374 48.0831 51.003 47.8353 50.8659 47.6423Z" fill="white"/>
<defs>
<linearGradient id="paint0_linear" x1="35" y1="0" x2="35" y2="70" gradientUnits="userSpaceOnUse">
<stop stop-color="#6730E3"/>
<stop offset="1" stop-color="#DA23F8"/>
</linearGradient>
</defs>
</svg>
