<svg width="70" height="70" viewBox="0 0 70 70" fill="none" xmlns="http://www.w3.org/2000/svg">
<circle cx="35" cy="35" r="33" stroke="white" stroke-width="4"/>
<path d="M35.9182 23.8019C37.4191 23.8019 38.6358 22.5852 38.6358 21.0843C38.6358 19.5835 37.4191 18.3668 35.9182 18.3668C34.4174 18.3668 33.2007 19.5835 33.2007 21.0843C33.2007 22.5852 34.4174 23.8019 35.9182 23.8019Z" fill="#FEFEFE"/>
<path d="M43.863 41.8022L40.569 34.1783C40.5624 34.163 40.5556 34.1478 40.5485 34.1327C40.3938 33.8058 40.0639 33.5966 39.7021 33.5966H39.7019V36.6978C40.9884 36.6978 41.7175 37.6368 41.7175 38.6005C41.7175 39.3048 41.3347 39.9191 40.766 40.2481V42.0847L41.1503 42.9743C41.4742 43.7241 42.3444 44.068 43.0926 43.7446C43.8418 43.4208 44.1866 42.5513 43.863 41.8022Z" fill="#FEFEFE"/>
<path d="M34.608 24.2886L33.6524 24.1253C32.7327 23.9681 31.7893 24.2021 31.0497 24.7706C30.3099 25.3392 29.8413 26.1907 29.7567 27.1199L29.2925 32.2178L29.3196 32.2002C30.391 31.5071 31.8213 31.8139 32.5144 32.8852C32.6599 33.1102 32.7608 33.3509 32.8203 33.5975L34.639 29.3877L33.2105 27.9177L34.815 28.9804L35.7826 26.7407C35.7908 26.7217 35.8008 26.704 35.8097 26.6856L34.2599 25.6591L35.9303 26.3384L35.9554 26.1915C36.1087 25.2939 35.5055 24.4419 34.608 24.2886Z" fill="#FEFEFE"/>
<path d="M50.9809 30.6748H47.6728C47.8638 30.5617 47.9923 30.3541 47.9923 30.116C47.9923 29.572 47.9923 25.6728 47.9923 25.1439L49.7612 21.0491C49.8605 20.8192 49.7547 20.5524 49.5248 20.453L48.4861 20.0043C48.2562 19.9049 47.9894 20.0108 47.89 20.2407L44.6394 27.7651C44.5401 27.9949 44.6459 28.2618 44.8758 28.3612L45.9145 28.8099C46.1444 28.9092 46.4112 28.8033 46.5106 28.5735L46.6933 28.1507V29.4666C45.9594 29.4666 44.1413 29.4666 43.4479 29.4666C43.3522 29.4666 43.2615 29.4879 43.1796 29.5251C43.2356 29.3566 43.2572 29.1739 43.2338 28.9861C43.1498 28.3112 42.5355 27.8322 41.86 27.9162L39.5953 28.198C39.5545 28.3341 39.683 28.0231 37.8516 32.2627C37.8516 32.7488 37.8516 36.2226 37.8516 36.6979H38.8186V32.7132C39.0306 32.7132 48.365 32.7132 49.418 32.7132V43.0505C49.418 43.5008 49.783 43.866 50.2334 43.866C50.6838 43.866 51.0489 43.501 51.0489 43.0505V32.7097C51.5899 32.6739 52 32.2211 52 31.6939C52 31.1311 51.5437 30.6748 50.9809 30.6748ZM39.6326 30.6748L42.1641 30.3599C42.4076 30.3296 42.625 30.2294 42.8003 30.0829C42.7998 30.094 42.7987 30.1049 42.7987 30.1161C42.7987 30.3541 42.9272 30.5617 43.1182 30.6748H39.6326V30.6748Z" fill="#FEFEFE"/>
<path d="M35.9404 41.9348L34.7065 40.7009C34.6172 40.6115 34.5097 40.5452 34.3931 40.5032C33.9256 40.5032 30.6745 40.5032 30.2073 40.5032C30.275 40.6457 30.3408 40.8261 30.3806 41.0024L30.7272 42.5373L31.1138 42.1507H33.754L34.7392 43.136C35.0709 43.4677 35.6087 43.4677 35.9403 43.136C36.2722 42.8043 36.2722 42.2665 35.9404 41.9348Z" fill="#FEFEFE"/>
<path d="M24.7517 30.7083C26.2526 30.7083 27.4693 29.4916 27.4693 27.9907C27.4693 26.4899 26.2526 25.2732 24.7517 25.2732C23.2509 25.2732 22.0342 26.4899 22.0342 27.9907C22.0342 29.4916 23.2509 30.7083 24.7517 30.7083Z" fill="#FEFEFE"/>
<path d="M31.2092 48.828L29.4877 41.204C29.4877 41.2038 29.4877 41.2036 29.4876 41.2034C29.4003 40.8174 29.0813 40.5032 28.5357 40.5032V49.9572H28.5283C28.8551 50.4611 29.4717 50.7349 30.0934 50.5947C30.8895 50.4149 31.389 49.624 31.2092 48.828Z" fill="#FEFEFE"/>
<path d="M39.8148 37.5814C38.257 37.5814 38.0645 37.5814 36.5066 37.5814C36.6977 37.4683 36.8261 37.2608 36.8261 37.0226C36.8261 36.5374 36.8261 32.5235 36.8261 32.0505L38.5951 27.9556C38.6945 27.7257 38.5886 27.4589 38.3587 27.3595L37.32 26.9108C37.0912 26.812 36.8237 26.9164 36.7239 27.1472L33.4733 34.6717C33.374 34.9015 33.4799 35.1684 33.7097 35.2678L34.7484 35.7165C34.9777 35.8155 35.2449 35.7104 35.3445 35.4801L35.5272 35.0572V36.3731C35.1606 36.3731 32.6015 36.3731 32.2819 36.3731C31.9233 36.3731 31.6324 36.6638 31.6324 37.0226C31.6324 37.2607 31.7609 37.4683 31.9519 37.5814C31.4618 37.5814 27.9957 37.5814 27.5204 37.5814C27.5783 37.5449 27.0476 37.8878 31.2432 35.1738C31.8142 34.8046 31.9776 34.0422 31.6083 33.4713C31.239 32.9003 30.4766 32.7369 29.9057 33.1062L26.8724 35.0684L23.0936 32.5656L24.7641 33.2449L24.7891 33.098C24.9425 32.2005 24.3393 31.3487 23.4418 31.1953L22.4862 31.0319C21.5666 30.8748 20.6232 31.1087 19.8835 31.6773C19.1439 32.2457 18.6752 33.0974 18.5906 34.0264L18.0169 40.3261C17.9787 40.7455 18.1292 41.1744 18.4591 41.4831H18.0189C17.4563 41.483 17 41.9392 17 42.5022C17 43.065 17.4563 43.5213 18.0192 43.5213H20.4625V47.7006H19.5959C19.3707 47.7006 19.1547 47.79 18.9954 47.9493L17.7613 49.1834C17.4296 49.5151 17.4296 50.0529 17.7612 50.3845C18.093 50.7162 18.6308 50.7162 18.9623 50.3845L19.9477 49.3992H22.5879L23.5732 50.3845C23.9049 50.7162 24.4427 50.7161 24.7743 50.3845C25.106 50.0528 25.106 49.515 24.7742 49.1834L23.5401 47.9493C23.3809 47.79 23.1649 47.7006 22.9396 47.7006H22.1613V43.5213H25.1387C25.1387 41.9964 25.1387 41.7635 25.1387 40.2857C24.6464 40.0271 24.2813 39.5594 24.1617 39.0005L23.7967 38.9063C23.9856 37.801 23.9433 38.0482 24.1279 36.9682L22.0445 34.8243C26.6134 37.8505 26.1495 37.5439 26.2092 37.5815H26.0219C25.4569 37.5815 25.0028 38.0415 25.0028 38.6006C25.0028 39.1553 25.4539 39.6197 26.0219 39.6198V49.8116C26.0219 50.257 26.3836 50.6271 26.8373 50.6271C27.2888 50.6271 27.6528 50.2599 27.6528 49.8116V39.6197C27.8648 39.6197 37.1991 39.6197 38.2521 39.6197V49.8116C38.2521 50.2618 38.6171 50.627 39.0676 50.627C39.5179 50.627 39.883 50.262 39.883 49.8116V39.6163C40.4222 39.5806 40.8341 39.1296 40.8341 38.6006C40.834 38.0378 40.3776 37.5814 39.8148 37.5814Z" fill="#FEFEFE"/>
</svg>
